Aarav Regular.ufo
<glyph name="exclam" format="1">
  <advance width="258"/>
  <unicode hex="0021"/>
  <outline>
    <contour>
      <point x="127" y="114" type="curve" smooth="yes"/>
      <point x="110" y="113"/>
      <point x="98" y="98"/>
      <point x="84" y="96" type="curve" smooth="yes"/>
      <point x="74" y="95"/>
      <point x="65" y="67"/>
      <point x="65" y="39" type="curve" smooth="yes"/>
      <point x="65" y="29"/>
      <point x="83" y="-13"/>
      <point x="109" y="-13" type="curve" smooth="yes"/>
      <point x="152" y="-13"/>
      <point x="192" y="23"/>
      <point x="192" y="45" type="curve" smooth="yes"/>
      <point x="192" y="64"/>
      <point x="148" y="114"/>
    </contour>
    <contour>
      <point x="128" y="740" type="curve" smooth="yes"/>
      <point x="106" y="740"/>
      <point x="76" y="705"/>
      <point x="76" y="681" type="curve" smooth="yes"/>
      <point x="76" y="613"/>
      <point x="92" y="543"/>
      <point x="89" y="479" type="curve" smooth="yes"/>
      <point x="88" y="455"/>
      <point x="81" y="279"/>
      <point x="81" y="240" type="curve" smooth="yes"/>
      <point x="81" y="216"/>
      <point x="106" y="204"/>
      <point x="120" y="204" type="curve" smooth="yes"/>
      <point x="155" y="204"/>
      <point x="175" y="247"/>
      <point x="175" y="301" type="curve" smooth="yes"/>
      <point x="175" y="369"/>
      <point x="170" y="425"/>
      <point x="170" y="482" type="curve" smooth="yes"/>
      <point x="170" y="551"/>
      <point x="187" y="616"/>
      <point x="187" y="682" type="curve" smooth="yes"/>
      <point x="187" y="705"/>
      <point x="155" y="740"/>
    </contour>
  </outline>
</glyph>
<glyph name="quotedbl" format="1">
  <advance width="357"/>
  <unicode hex="0022"/>
  <outline>
    <contour>
      <point x="77" y="720" type="curve" smooth="yes"/>
      <point x="55" y="720"/>
      <point x="36" y="690"/>
      <point x="40" y="670" type="curve" smooth="yes"/>
      <point x="48" y="622"/>
      <point x="44" y="571"/>
      <point x="44" y="528" type="curve" smooth="yes"/>
      <point x="44" y="505"/>
      <point x="66" y="484"/>
      <point x="91" y="484" type="curve" smooth="yes"/>
      <point x="118" y="484"/>
      <point x="134" y="510"/>
      <point x="134" y="532" type="curve" smooth="yes"/>
      <point x="134" y="557"/>
      <point x="128" y="581"/>
      <point x="128" y="601" type="curve" smooth="yes"/>
      <point x="128" y="626"/>
      <point x="140" y="653"/>
      <point x="140" y="675" type="curve" smooth="yes"/>
      <point x="140" y="698"/>
      <point x="111" y="720"/>
    </contour>
    <contour>
      <point x="266" y="730" type="curve" smooth="yes"/>
      <point x="241" y="730"/>
      <point x="219" y="710"/>
      <point x="219" y="686" type="curve"/>
      <point x="218" y="641"/>
      <point x="226" y="593"/>
      <point x="214" y="551" type="curve" smooth="yes"/>
      <point x="205" y="520"/>
      <point x="225" y="489"/>
      <point x="254" y="489" type="curve" smooth="yes"/>
      <point x="283" y="489"/>
      <point x="302" y="516"/>
      <point x="302" y="540" type="curve" smooth="yes"/>
      <point x="302" y="573"/>
      <point x="307" y="619"/>
      <point x="307" y="640" type="curve" smooth="yes"/>
      <point x="307" y="653"/>
      <point x="317" y="668"/>
      <point x="317" y="679" type="curve" smooth="yes"/>
      <point x="318" y="691"/>
      <point x="299" y="730"/>
    </contour>
  </outline>
</glyph>
<glyph name="numbersign" format="1">
  <advance width="735"/>
  <unicode hex="0023"/>
  <outline>
    <contour>
      <point x="580" y="656" type="curve" smooth="yes"/>
      <point x="560" y="656"/>
      <point x="547" y="666"/>
      <point x="524" y="593" type="curve" smooth="yes"/>
      <point x="514" y="561"/>
      <point x="503" y="534"/>
      <point x="489" y="505" type="curve"/>
      <point x="449" y="504"/>
      <point x="410" y="502"/>
      <point x="372" y="501" type="curve"/>
      <point x="387" y="536"/>
      <point x="404" y="575"/>
      <point x="412" y="583" type="curve" smooth="yes"/>
      <point x="420" y="592"/>
      <point x="426" y="617"/>
      <point x="426" y="636" type="curve" smooth="yes"/>
      <point x="426" y="648"/>
      <point x="414" y="670"/>
      <point x="398" y="670" type="curve" smooth="yes"/>
      <point x="360" y="670"/>
      <point x="331" y="642"/>
      <point x="310" y="587" type="curve" smooth="yes"/>
      <point x="300" y="561"/>
      <point x="289" y="534"/>
      <point x="279" y="501" type="curve"/>
      <point x="238" y="502"/>
      <point x="201" y="507"/>
      <point x="160" y="507" type="curve" smooth="yes"/>
      <point x="129" y="507"/>
      <point x="113" y="490"/>
      <point x="107" y="467" type="curve" smooth="yes"/>
      <point x="101" y="448"/>
      <point x="104" y="414"/>
      <point x="137" y="414" type="curve" smooth="yes"/>
      <point x="174" y="414"/>
      <point x="203" y="420"/>
      <point x="250" y="422" type="curve"/>
      <point x="237" y="388"/>
      <point x="228" y="358"/>
      <point x="199" y="290" type="curve" smooth="yes"/>
      <point x="197" y="286"/>
      <point x="195" y="281"/>
      <point x="190" y="271" type="curve"/>
      <point x="157" y="273"/>
      <point x="125" y="276"/>
      <point x="92" y="276" type="curve" smooth="yes"/>
      <point x="43" y="276"/>
      <point x="35" y="249"/>
      <point x="35" y="233" type="curve" smooth="yes"/>
      <point x="35" y="203"/>
      <point x="63" y="187"/>
      <point x="84" y="187" type="curve" smooth="yes"/>
      <point x="88" y="187"/>
      <point x="101" y="188"/>
      <point x="155" y="189" type="curve" smooth="yes"/>
      <point x="134" y="144"/>
      <point x="92" y="85"/>
      <point x="92" y="38" type="curve" smooth="yes"/>
      <point x="92" y="3"/>
      <point x="112" y="-16"/>
      <point x="148" y="-16" type="curve" smooth="yes"/>
      <point x="166" y="-16"/>
      <point x="185" y="-4"/>
      <point x="185" y="13" type="curve" smooth="yes"/>
      <point x="185" y="28"/>
      <point x="189" y="38"/>
      <point x="197" y="65" type="curve" smooth="yes"/>
      <point x="210" y="106"/>
      <point x="228" y="146"/>
      <point x="245" y="191" type="curve"/>
      <point x="282" y="192"/>
      <point x="317" y="193"/>
      <point x="341" y="193" type="curve" smooth="yes"/>
      <point x="369" y="193" type="line"/>
      <point x="335" y="104"/>
      <point x="331" y="93"/>
      <point x="309" y="51" type="curve" smooth="yes"/>
      <point x="289" y="15"/>
      <point x="318" y="-6"/>
      <point x="350" y="-6" type="curve" smooth="yes"/>
      <point x="404" y="-6"/>
      <point x="395" y="32"/>
      <point x="410" y="72" type="curve" smooth="yes"/>
      <point x="417" y="96"/>
      <point x="416" y="96"/>
      <point x="454" y="188" type="curve"/>
      <point x="506" y="186"/>
      <point x="559" y="183"/>
      <point x="569" y="183" type="curve" smooth="yes"/>
      <point x="593" y="183"/>
      <point x="625" y="204"/>
      <point x="625" y="233" type="curve" smooth="yes"/>
      <point x="625" y="256"/>
      <point x="615" y="271"/>
      <point x="574" y="271" type="curve" smooth="yes"/>
      <point x="541" y="271"/>
      <point x="519" y="271"/>
      <point x="487" y="270" type="curve"/>
      <point x="497" y="296"/>
      <point x="493" y="285"/>
      <point x="495" y="290" type="curve" smooth="yes"/>
      <point x="510" y="330"/>
      <point x="529" y="377"/>
      <point x="549" y="426" type="curve"/>
      <point x="638" y="426" type="line" smooth="yes"/>
      <point x="656" y="426"/>
      <point x="693" y="438"/>
      <point x="700" y="474" type="curve" smooth="yes"/>
      <point x="706" y="506"/>
      <point x="677" y="516"/>
      <point x="643" y="516" type="curve"/>
      <point x="631" y="516"/>
      <point x="618" y="514"/>
      <point x="585" y="512" type="curve"/>
      <point x="600" y="546"/>
      <point x="614" y="579"/>
      <point x="620" y="586" type="curve"/>
      <point x="644" y="607"/>
      <point x="609" y="656"/>
    </contour>
    <contour>
      <point x="462" y="426" type="curve"/>
      <point x="442" y="371"/>
      <point x="426" y="332"/>
      <point x="409" y="291" type="curve" smooth="yes"/>
      <point x="407" y="287"/>
      <point x="403" y="277"/>
      <point x="399" y="269" type="curve"/>
      <point x="313" y="271"/>
      <point x="224" y="274"/>
      <point x="141" y="276" type="curve" smooth="yes"/>
      <point x="277" y="268" type="line"/>
      <point x="279" y="273"/>
      <point x="281" y="278"/>
      <point x="283" y="283" type="curve" smooth="yes"/>
      <point x="306" y="340"/>
      <point x="323" y="385"/>
      <point x="339" y="425" type="curve"/>
      <point x="375" y="426"/>
      <point x="415" y="426"/>
    </contour>
  </outline>
</glyph>
<glyph name="dollar" format="1">
  <advance width="528"/>
  <unicode hex="0024"/>
  <outline>
    <contour>
      <point x="282" y="763" type="curve" smooth="yes"/>
      <point x="255" y="763"/>
      <point x="221" y="747"/>
      <point x="221" y="719" type="curve" smooth="yes"/>
      <point x="221" y="697"/>
      <point x="223" y="684"/>
      <point x="225" y="627" type="curve"/>
      <point x="126" y="595"/>
      <point x="64" y="530"/>
      <point x="64" y="478" type="curve" smooth="yes"/>
      <point x="64" y="383"/>
      <point x="144" y="358"/>
      <point x="225" y="343" type="curve"/>
      <point x="224" y="264"/>
      <point x="223" y="229"/>
      <point x="223" y="192" type="curve"/>
      <point x="169" y="194"/>
      <point x="147" y="208"/>
      <point x="131" y="221" type="curve" smooth="yes"/>
      <point x="110" y="240"/>
      <point x="107" y="267"/>
      <point x="74" y="267" type="curve" smooth="yes"/>
      <point x="43" y="267"/>
      <point x="32" y="242"/>
      <point x="32" y="219" type="curve" smooth="yes"/>
      <point x="32" y="181"/>
      <point x="101" y="127"/>
      <point x="220" y="123" type="curve"/>
      <point x="219" y="95"/>
      <point x="218" y="84"/>
      <point x="218" y="79" type="curve" smooth="yes"/>
      <point x="218" y="44"/>
      <point x="205" y="32"/>
      <point x="205" y="17" type="curve" smooth="yes"/>
      <point x="205" y="5"/>
      <point x="225" y="-14"/>
      <point x="248" y="-14" type="curve" smooth="yes"/>
      <point x="278" y="-14"/>
      <point x="298" y="12"/>
      <point x="298" y="41" type="curve" smooth="yes"/>
      <point x="298" y="128" type="line"/>
      <point x="422" y="149"/>
      <point x="482" y="212"/>
      <point x="482" y="271" type="curve" smooth="yes"/>
      <point x="482" y="374"/>
      <point x="388" y="394"/>
      <point x="298" y="411" type="curve"/>
      <point x="298" y="446" type="line" smooth="yes"/>
      <point x="298" y="468"/>
      <point x="298" y="520"/>
      <point x="299" y="563" type="curve"/>
      <point x="355" y="561"/>
      <point x="333" y="508"/>
      <point x="381" y="508" type="curve" smooth="yes"/>
      <point x="410" y="508"/>
      <point x="421" y="535"/>
      <point x="421" y="560" type="curve" smooth="yes"/>
      <point x="421" y="587"/>
      <point x="389" y="642"/>
      <point x="324" y="642" type="curve" smooth="yes"/>
      <point x="320" y="642"/>
      <point x="312" y="642"/>
      <point x="301" y="641" type="curve"/>
      <point x="301" y="678" type="line" smooth="yes"/>
      <point x="301" y="701"/>
      <point x="306" y="719"/>
      <point x="306" y="739" type="curve" smooth="yes"/>
      <point x="306" y="751"/>
      <point x="291" y="763"/>
    </contour>
    <contour>
      <point x="387" y="274" type="curve" smooth="yes"/>
      <point x="387" y="233"/>
      <point x="357" y="211"/>
      <point x="298" y="198" type="curve"/>
      <point x="298" y="331" type="line"/>
      <point x="344" y="322"/>
      <point x="387" y="310"/>
    </contour>
    <contour>
      <point x="155" y="481" type="curve" smooth="yes"/>
      <point x="155" y="508"/>
      <point x="184" y="533"/>
      <point x="227" y="551" type="curve"/>
      <point x="227" y="499" type="line" smooth="yes"/>
      <point x="227" y="463"/>
      <point x="226" y="450"/>
      <point x="226" y="426" type="curve" smooth="yes"/>
      <point x="179" y="439"/>
      <point x="155" y="453"/>
    </contour>
  </outline>
</glyph>
<glyph name="percent" format="1">
  <advance width="830"/>
  <unicode hex="0025"/>
  <outline>
    <contour>
      <point x="536" y="726" type="curve" smooth="yes"/>
      <point x="500" y="726"/>
      <point x="468" y="697"/>
      <point x="449" y="642" type="curve" smooth="yes"/>
      <point x="385" y="462"/>
      <point x="376" y="443"/>
      <point x="324" y="315" type="curve" smooth="yes"/>
      <point x="272" y="187"/>
      <point x="210" y="88"/>
      <point x="210" y="45" type="curve" smooth="yes"/>
      <point x="210" y="1"/>
      <point x="247" y="-11"/>
      <point x="270" y="-11" type="curve" smooth="yes"/>
      <point x="289" y="-11"/>
      <point x="309" y="2"/>
      <point x="309" y="19" type="curve" smooth="yes"/>
      <point x="309" y="38"/>
      <point x="304" y="53"/>
      <point x="310" y="72" type="curve" smooth="yes"/>
      <point x="334" y="152"/>
      <point x="371" y="228"/>
      <point x="401" y="304" type="curve" smooth="yes"/>
      <point x="480" y="499"/>
      <point x="540" y="627"/>
      <point x="554" y="641" type="curve" smooth="yes"/>
      <point x="562" y="650"/>
      <point x="568" y="679"/>
      <point x="566" y="698" type="curve" smooth="yes"/>
      <point x="565" y="707"/>
      <point x="548" y="726"/>
    </contour>
    <contour>
      <point x="532" y="337" type="curve" smooth="yes"/>
      <point x="509" y="336"/>
      <point x="477" y="324"/>
      <point x="474" y="294" type="curve"/>
      <point x="461" y="288"/>
      <point x="452" y="278"/>
      <point x="452" y="262" type="curve" smooth="yes"/>
      <point x="452" y="247"/>
      <point x="457" y="234"/>
      <point x="470" y="229" type="curve"/>
      <point x="465" y="203"/>
      <point x="460" y="178"/>
      <point x="460" y="154" type="curve" smooth="yes"/>
      <point x="460" y="82"/>
      <point x="489" y="2"/>
      <point x="572" y="2" type="curve" smooth="yes"/>
      <point x="690" y="2"/>
      <point x="775" y="120"/>
      <point x="775" y="175" type="curve" smooth="yes"/>
      <point x="775" y="262"/>
      <point x="694" y="310"/>
      <point x="636" y="310" type="curve" smooth="yes"/>
      <point x="614" y="310"/>
      <point x="597" y="307"/>
      <point x="580" y="304" type="curve"/>
      <point x="572" y="330"/>
      <point x="552" y="337"/>
    </contour>
    <contour>
      <point x="691" y="177" type="curve" smooth="yes"/>
      <point x="691" y="134"/>
      <point x="630" y="86"/>
      <point x="583" y="86" type="curve" smooth="yes"/>
      <point x="563" y="86"/>
      <point x="543" y="107"/>
      <point x="543" y="149" type="curve" smooth="yes"/>
      <point x="543" y="171"/>
      <point x="547" y="196"/>
      <point x="558" y="225" type="curve"/>
      <point x="598" y="227"/>
      <point x="691" y="232"/>
    </contour>
    <contour>
      <point x="44" y="527" type="curve" smooth="yes"/>
      <point x="44" y="426"/>
      <point x="106" y="364"/>
      <point x="162" y="364" type="curve" smooth="yes"/>
      <point x="270" y="364"/>
      <point x="339" y="460"/>
      <point x="339" y="518" type="curve" smooth="yes"/>
      <point x="339" y="595"/>
      <point x="278" y="705"/>
      <point x="155" y="705" type="curve" smooth="yes"/>
      <point x="118" y="705"/>
      <point x="96" y="666"/>
      <point x="64" y="662" type="curve" smooth="yes"/>
      <point x="52" y="660"/>
      <point x="32" y="641"/>
      <point x="32" y="617" type="curve" smooth="yes"/>
      <point x="32" y="601"/>
      <point x="43" y="587"/>
      <point x="57" y="589" type="curve"/>
      <point x="48" y="568"/>
      <point x="44" y="547"/>
    </contour>
    <contour>
      <point x="184" y="617" type="curve" smooth="yes"/>
      <point x="220" y="617"/>
      <point x="258" y="592"/>
      <point x="258" y="542" type="curve" smooth="yes"/>
      <point x="258" y="478"/>
      <point x="199" y="444"/>
      <point x="177" y="444" type="curve" smooth="yes"/>
      <point x="155" y="444"/>
      <point x="122" y="468"/>
      <point x="122" y="518" type="curve" smooth="yes"/>
      <point x="122" y="574"/>
      <point x="171" y="585"/>
      <point x="171" y="606" type="curve" smooth="yes"/>
      <point x="171" y="614" type="line"/>
      <point x="175" y="616"/>
      <point x="182" y="617"/>
    </contour>
  </outline>
</glyph>
<glyph name="ampersand" format="1">
  <advance width="607"/>
  <unicode hex="0026"/>
  <outline>
    <contour>
      <point x="514" y="-48" type="curve" smooth="yes"/>
      <point x="538" y="-48"/>
      <point x="562" y="-27"/>
      <point x="560" y="-2" type="curve" smooth="yes"/>
      <point x="558" y="26"/>
      <point x="528" y="48"/>
      <point x="509" y="65" type="curve" smooth="yes"/>
      <point x="502" y="71"/>
      <point x="494" y="79"/>
      <point x="484" y="90" type="curve"/>
      <point x="531" y="150"/>
      <point x="558" y="219"/>
      <point x="558" y="289" type="curve" smooth="yes"/>
      <point x="558" y="298"/>
      <point x="547" y="328"/>
      <point x="527" y="328" type="curve" smooth="yes"/>
      <point x="516" y="328"/>
      <point x="479" y="316"/>
      <point x="477" y="291" type="curve" smooth="yes"/>
      <point x="474" y="247"/>
      <point x="463" y="199"/>
      <point x="428" y="156" type="curve"/>
      <point x="372" y="223"/>
      <point x="320" y="295"/>
      <point x="278" y="361" type="curve"/>
      <point x="355" y="409"/>
      <point x="423" y="456"/>
      <point x="423" y="534" type="curve" smooth="yes"/>
      <point x="423" y="608"/>
      <point x="346" y="702"/>
      <point x="257" y="702" type="curve" smooth="yes"/>
      <point x="183" y="702"/>
      <point x="111" y="594"/>
      <point x="111" y="549" type="curve" smooth="yes"/>
      <point x="111" y="510"/>
      <point x="126" y="459"/>
      <point x="164" y="389" type="curve"/>
      <point x="83" y="341"/>
      <point x="32" y="294"/>
      <point x="32" y="201" type="curve" smooth="yes"/>
      <point x="32" y="126"/>
      <point x="80" y="-1"/>
      <point x="295" y="-1" type="curve" smooth="yes"/>
      <point x="335" y="-1"/>
      <point x="374" y="11"/>
      <point x="417" y="35" type="curve" smooth="yes"/>
      <point x="427" y="21"/>
      <point x="439" y="5"/>
      <point x="455" y="-17" type="curve" smooth="yes"/>
      <point x="473" y="-41"/>
      <point x="503" y="-48"/>
    </contour>
    <contour>
      <point x="282" y="85" type="curve" smooth="yes"/>
      <point x="181" y="85"/>
      <point x="117" y="149"/>
      <point x="117" y="196" type="curve" smooth="yes"/>
      <point x="117" y="254"/>
      <point x="153" y="281"/>
      <point x="207" y="317" type="curve"/>
      <point x="249" y="253"/>
      <point x="300" y="183"/>
      <point x="362" y="102" type="curve"/>
      <point x="332" y="87"/>
      <point x="305" y="85"/>
    </contour>
    <contour>
      <point x="198" y="547" type="curve" smooth="yes"/>
      <point x="198" y="579"/>
      <point x="235" y="607"/>
      <point x="260" y="607" type="curve" smooth="yes"/>
      <point x="300" y="607"/>
      <point x="333" y="562"/>
      <point x="333" y="539" type="curve" smooth="yes"/>
      <point x="333" y="502"/>
      <point x="294" y="471"/>
      <point x="238" y="432" type="curve"/>
      <point x="212" y="487"/>
      <point x="198" y="516"/>
    </contour>
  </outline>
</glyph>
<glyph name="quotesingle" format="1">
  <advance width="179"/>
  <unicode hex="0027"/>
  <outline>
    <contour>
      <point x="90" y="719" type="curve" smooth="yes"/>
      <point x="65" y="719"/>
      <point x="47" y="701"/>
      <point x="47" y="680" type="curve" smooth="yes"/>
      <point x="47" y="624"/>
      <point x="41" y="583"/>
      <point x="41" y="539" type="curve" smooth="yes"/>
      <point x="41" y="499"/>
      <point x="61" y="479"/>
      <point x="86" y="479" type="curve" smooth="yes"/>
      <point x="113" y="479"/>
      <point x="130" y="508"/>
      <point x="130" y="531" type="curve" smooth="yes"/>
      <point x="130" y="572"/>
      <point x="133" y="602"/>
      <point x="133" y="633" type="curve" smooth="yes"/>
      <point x="133" y="646"/>
      <point x="141" y="660"/>
      <point x="141" y="672" type="curve" smooth="yes"/>
      <point x="141" y="685"/>
      <point x="121" y="719"/>
    </contour>
  </outline>
</glyph>
<glyph name="parenleft" format="1">
  <advance width="440"/>
  <unicode hex="0028"/>
  <outline>
    <contour>
      <point x="304" y="737" type="curve" smooth="yes"/>
      <point x="289" y="737"/>
      <point x="262" y="727"/>
      <point x="242" y="695" type="curve" smooth="yes"/>
      <point x="141" y="548"/>
      <point x="51" y="381"/>
      <point x="51" y="199" type="curve" smooth="yes"/>
      <point x="51" y="-10"/>
      <point x="132" y="-142"/>
      <point x="261" y="-142" type="curve" smooth="yes"/>
      <point x="325" y="-142"/>
      <point x="367" y="-118"/>
      <point x="367" y="-98" type="curve" smooth="yes"/>
      <point x="367" y="-60"/>
      <point x="311" y="-72"/>
      <point x="290" y="-72" type="curve" smooth="yes"/>
      <point x="228" y="-72"/>
      <point x="136" y="-17"/>
      <point x="136" y="191" type="curve" smooth="yes"/>
      <point x="136" y="367"/>
      <point x="264" y="611"/>
      <point x="293" y="611" type="curve" smooth="yes"/>
      <point x="308" y="611"/>
      <point x="319" y="595"/>
      <point x="333" y="595" type="curve" smooth="yes"/>
      <point x="351" y="595"/>
      <point x="373" y="628"/>
      <point x="373" y="643" type="curve" smooth="yes"/>
      <point x="373" y="658"/>
      <point x="354" y="737"/>
    </contour>
  </outline>
</glyph>
<glyph name="parenright" format="1">
  <advance width="421"/>
  <unicode hex="0029"/>
  <outline>
    <contour>
      <point x="93" y="733" type="curve" smooth="yes"/>
      <point x="64" y="733"/>
      <point x="42" y="708"/>
      <point x="42" y="687" type="curve" smooth="yes"/>
      <point x="42" y="665"/>
      <point x="66" y="640"/>
      <point x="93" y="627" type="curve" smooth="yes"/>
      <point x="142" y="606"/>
      <point x="275" y="379"/>
      <point x="275" y="226" type="curve" smooth="yes"/>
      <point x="275" y="83"/>
      <point x="210" y="-3"/>
      <point x="100" y="-66" type="curve" smooth="yes"/>
      <point x="62" y="-88"/>
      <point x="81" y="-131"/>
      <point x="127" y="-131" type="curve" smooth="yes"/>
      <point x="167" y="-131"/>
      <point x="363" y="-17"/>
      <point x="363" y="241" type="curve" smooth="yes"/>
      <point x="363" y="381"/>
      <point x="267" y="577"/>
      <point x="178" y="671" type="curve"/>
      <point x="168" y="700"/>
      <point x="117" y="733"/>
    </contour>
  </outline>
</glyph>
<glyph name="asterisk" format="1">
  <advance width="423"/>
  <unicode hex="002A"/>
  <outline>
    <contour>
      <point x="376" y="483" type="curve" smooth="yes"/>
      <point x="376" y="524"/>
      <point x="318" y="532"/>
      <point x="275" y="553" type="curve" smooth="yes"/>
      <point x="268" y="556"/>
      <point x="263" y="559"/>
      <point x="259" y="561" type="curve"/>
      <point x="280" y="577"/>
      <point x="293" y="582"/>
      <point x="301" y="587" type="curve" smooth="yes"/>
      <point x="322" y="600"/>
      <point x="368" y="621"/>
      <point x="368" y="644" type="curve" smooth="yes"/>
      <point x="368" y="673"/>
      <point x="347" y="681"/>
      <point x="330" y="681" type="curve" smooth="yes"/>
      <point x="321" y="681"/>
      <point x="311" y="679"/>
      <point x="304" y="674" type="curve" smooth="yes"/>
      <point x="288" y="664"/>
      <point x="269" y="644"/>
      <point x="238" y="621" type="curve"/>
      <point x="236" y="662"/>
      <point x="249" y="673"/>
      <point x="249" y="698" type="curve" smooth="yes"/>
      <point x="249" y="711"/>
      <point x="228" y="738"/>
      <point x="205" y="738" type="curve" smooth="yes"/>
      <point x="179" y="738"/>
      <point x="165" y="717"/>
      <point x="165" y="679" type="curve" smooth="yes"/>
      <point x="165" y="671"/>
      <point x="168" y="650"/>
      <point x="172" y="617" type="curve"/>
      <point x="121" y="650"/>
      <point x="103" y="669"/>
      <point x="86" y="669" type="curve" smooth="yes"/>
      <point x="63" y="669"/>
      <point x="45" y="653"/>
      <point x="45" y="636" type="curve" smooth="yes"/>
      <point x="45" y="620"/>
      <point x="52" y="610"/>
      <point x="65" y="601" type="curve" smooth="yes"/>
      <point x="77" y="592"/>
      <point x="130" y="566"/>
      <point x="143" y="558" type="curve"/>
      <point x="140" y="556"/>
      <point x="137" y="554"/>
      <point x="131" y="551" type="curve" smooth="yes"/>
      <point x="103" y="536"/>
      <point x="49" y="519"/>
      <point x="49" y="486" type="curve" smooth="yes"/>
      <point x="49" y="464"/>
      <point x="64" y="445"/>
      <point x="83" y="445" type="curve" smooth="yes"/>
      <point x="111" y="445"/>
      <point x="152" y="483"/>
      <point x="173" y="500" type="curve"/>
      <point x="173" y="461"/>
      <point x="171" y="443"/>
      <point x="174" y="420" type="curve" smooth="yes"/>
      <point x="177" y="380"/>
      <point x="199" y="368"/>
      <point x="214" y="368" type="curve" smooth="yes"/>
      <point x="238" y="368"/>
      <point x="251" y="396"/>
      <point x="251" y="412" type="curve" smooth="yes"/>
      <point x="251" y="431"/>
      <point x="242" y="462"/>
      <point x="239" y="504" type="curve"/>
      <point x="251" y="493" type="line"/>
      <point x="290" y="466"/>
      <point x="316" y="444"/>
      <point x="339" y="444" type="curve" smooth="yes"/>
      <point x="362" y="444"/>
      <point x="376" y="455"/>
    </contour>
  </outline>
</glyph>
<glyph name="plus" format="1">
  <advance width="695"/>
  <unicode hex="002B"/>
  <outline>
    <contour>
      <point x="90" y="335" type="curve" smooth="yes"/>
      <point x="90" y="291"/>
      <point x="116" y="280"/>
      <point x="142" y="280" type="curve" smooth="yes"/>
      <point x="166" y="280"/>
      <point x="238" y="284"/>
      <point x="302" y="290" type="curve"/>
      <point x="293" y="219"/>
      <point x="285" y="154"/>
      <point x="285" y="119" type="curve" smooth="yes"/>
      <point x="285" y="81"/>
      <point x="317" y="48"/>
      <point x="341" y="48" type="curve" smooth="yes"/>
      <point x="364" y="48"/>
      <point x="385" y="78"/>
      <point x="385" y="95" type="curve" smooth="yes"/>
      <point x="385" y="114"/>
      <point x="384" y="121"/>
      <point x="384" y="128" type="curve" smooth="yes"/>
      <point x="384" y="158"/>
      <point x="391" y="226"/>
      <point x="399" y="298" type="curve"/>
      <point x="443" y="297"/>
      <point x="479" y="295"/>
      <point x="514" y="295" type="curve" smooth="yes"/>
      <point x="534" y="295"/>
      <point x="550" y="289"/>
      <point x="564" y="289" type="curve" smooth="yes"/>
      <point x="584" y="290"/>
      <point x="606" y="310"/>
      <point x="606" y="338" type="curve" smooth="yes"/>
      <point x="606" y="351"/>
      <point x="598" y="390"/>
      <point x="573" y="390" type="curve" smooth="yes"/>
      <point x="556" y="390"/>
      <point x="539" y="384"/>
      <point x="523" y="384" type="curve" smooth="yes"/>
      <point x="505" y="384"/>
      <point x="464" y="382"/>
      <point x="409" y="379" type="curve"/>
      <point x="414" y="430"/>
      <point x="425" y="478"/>
      <point x="425" y="525" type="curve" smooth="yes"/>
      <point x="425" y="562"/>
      <point x="407" y="599"/>
      <point x="376" y="599" type="curve" smooth="yes"/>
      <point x="358" y="599"/>
      <point x="320" y="573"/>
      <point x="320" y="537" type="curve" smooth="yes"/>
      <point x="320" y="491"/>
      <point x="321" y="469"/>
      <point x="321" y="448" type="curve" smooth="yes"/>
      <point x="321" y="431"/>
      <point x="318" y="404"/>
      <point x="314" y="374" type="curve"/>
      <point x="300" y="373"/>
      <point x="284" y="373"/>
      <point x="272" y="373" type="curve" smooth="yes"/>
      <point x="228" y="373"/>
      <point x="185" y="379"/>
      <point x="141" y="379" type="curve" smooth="yes"/>
      <point x="126" y="379"/>
      <point x="90" y="369"/>
    </contour>
  </outline>
</glyph>
<glyph name="comma" format="1">
  <advance width="188"/>
  <unicode hex="002C"/>
  <outline>
    <contour>
      <point x="41" y="8" type="curve" smooth="yes"/>
      <point x="29" y="-44"/>
      <point x="3" y="-98"/>
      <point x="3" y="-110" type="curve" smooth="yes"/>
      <point x="3" y="-133"/>
      <point x="17" y="-145"/>
      <point x="39" y="-145" type="curve" smooth="yes"/>
      <point x="52" y="-145"/>
      <point x="80" y="-139"/>
      <point x="89" y="-108" type="curve" smooth="yes"/>
      <point x="101" y="-66"/>
      <point x="108" y="-44"/>
      <point x="124" y="-16" type="curve" smooth="yes"/>
      <point x="138" y="10"/>
      <point x="154" y="31"/>
      <point x="154" y="58" type="curve" smooth="yes"/>
      <point x="154" y="94"/>
      <point x="138" y="110"/>
      <point x="99" y="110" type="curve" smooth="yes"/>
      <point x="51" y="110"/>
      <point x="47" y="36"/>
    </contour>
  </outline>
</glyph>
<glyph name="hyphen" format="1">
  <advance width="460"/>
  <unicode hex="002D"/>
  <outline>
    <contour>
      <point x="414" y="289" type="curve" smooth="yes"/>
      <point x="414" y="315"/>
      <point x="399" y="338"/>
      <point x="352" y="338" type="curve" smooth="yes"/>
      <point x="326" y="338"/>
      <point x="304" y="335"/>
      <point x="281" y="335" type="curve" smooth="yes"/>
      <point x="280" y="335"/>
      <point x="165" y="335"/>
      <point x="105" y="328" type="curve"/>
      <point x="64" y="326"/>
      <point x="49" y="305"/>
      <point x="49" y="279" type="curve" smooth="yes"/>
      <point x="49" y="249"/>
      <point x="77" y="233"/>
      <point x="98" y="233" type="curve" smooth="yes"/>
      <point x="131" y="233"/>
      <point x="138" y="246"/>
      <point x="300" y="246" type="curve" smooth="yes"/>
      <point x="326" y="246"/>
      <point x="348" y="235"/>
      <point x="370" y="235" type="curve" smooth="yes"/>
      <point x="387" y="235"/>
      <point x="414" y="259"/>
    </contour>
  </outline>
</glyph>
<glyph name="period" format="1">
  <advance width="201"/>
  <unicode hex="002E"/>
  <outline>
    <contour>
      <point x="103" y="112" type="curve" smooth="yes"/>
      <point x="76" y="112"/>
      <point x="48" y="103"/>
      <point x="46" y="78" type="curve" smooth="yes"/>
      <point x="44" y="59"/>
      <point x="35" y="46"/>
      <point x="35" y="27" type="curve" smooth="yes"/>
      <point x="35" y="10"/>
      <point x="45" y="-12"/>
      <point x="77" y="-12" type="curve" smooth="yes"/>
      <point x="88" y="-12"/>
      <point x="122" y="-10"/>
      <point x="135" y="5" type="curve" smooth="yes"/>
      <point x="149" y="22"/>
      <point x="166" y="35"/>
      <point x="166" y="52" type="curve" smooth="yes"/>
      <point x="166" y="93"/>
      <point x="129" y="112"/>
    </contour>
  </outline>
</glyph>
<glyph name="slash" format="1">
  <advance width="451"/>
  <unicode hex="002F"/>
  <outline>
    <contour>
      <point x="357" y="740" type="curve" smooth="yes"/>
      <point x="329" y="740"/>
      <point x="302" y="721"/>
      <point x="302" y="699" type="curve" smooth="yes"/>
      <point x="302" y="676"/>
      <point x="298" y="656"/>
      <point x="292" y="638" type="curve" smooth="yes"/>
      <point x="291" y="636"/>
      <point x="179" y="310"/>
      <point x="159" y="262" type="curve" smooth="yes"/>
      <point x="72" y="49"/>
      <point x="52" y="9"/>
      <point x="15" y="-31" type="curve" smooth="yes"/>
      <point x="9" y="-39"/>
      <point x="1" y="-56"/>
      <point x="1" y="-83" type="curve" smooth="yes"/>
      <point x="1" y="-102"/>
      <point x="25" y="-128"/>
      <point x="56" y="-128" type="curve" smooth="yes"/>
      <point x="108" y="-128"/>
      <point x="158" y="29"/>
      <point x="176" y="70" type="curve" smooth="yes"/>
      <point x="221" y="171"/>
      <point x="372" y="588"/>
      <point x="378" y="607" type="curve" smooth="yes"/>
      <point x="387" y="634"/>
      <point x="411" y="657"/>
      <point x="411" y="683" type="curve" smooth="yes"/>
      <point x="411" y="715"/>
      <point x="382" y="740"/>
    </contour>
  </outline>
</glyph>
<glyph name="zero" format="1">
  <advance width="556"/>
  <unicode hex="0030"/>
  <outline>
    <contour>
      <point x="222" y="716" type="curve" smooth="yes"/>
      <point x="179" y="716"/>
      <point x="110" y="688"/>
      <point x="110" y="653" type="curve" smooth="yes"/>
      <point x="110" y="620"/>
      <point x="126" y="601"/>
      <point x="142" y="601" type="curve" smooth="yes"/>
      <point x="155" y="601"/>
      <point x="166" y="605"/>
      <point x="179" y="610" type="curve" smooth="yes"/>
      <point x="194" y="616"/>
      <point x="209" y="620"/>
      <point x="225" y="620" type="curve" smooth="yes"/>
      <point x="369" y="620"/>
      <point x="433" y="419"/>
      <point x="433" y="317" type="curve" smooth="yes"/>
      <point x="433" y="199"/>
      <point x="358" y="70"/>
      <point x="247" y="70" type="curve" smooth="yes"/>
      <point x="176" y="70"/>
      <point x="120" y="146"/>
      <point x="120" y="245" type="curve" smooth="yes"/>
      <point x="120" y="374"/>
      <point x="156" y="440"/>
      <point x="182" y="479" type="curve" smooth="yes"/>
      <point x="193" y="496"/>
      <point x="202" y="509"/>
      <point x="202" y="522" type="curve" smooth="yes"/>
      <point x="202" y="554"/>
      <point x="185" y="582"/>
      <point x="146" y="582" type="curve"/>
      <point x="97" y="582"/>
      <point x="32" y="467"/>
      <point x="32" y="263" type="curve" smooth="yes"/>
      <point x="32" y="124"/>
      <point x="109" y="-17"/>
      <point x="258" y="-17" type="curve" smooth="yes"/>
      <point x="453" y="-17"/>
      <point x="524" y="215"/>
      <point x="524" y="303" type="curve" smooth="yes"/>
      <point x="524" y="542"/>
      <point x="360" y="716"/>
    </contour>
  </outline>
</glyph>
<glyph name="one" format="1">
  <advance width="330"/>
  <unicode hex="0031"/>
  <outline>
    <contour>
      <point x="155" y="729" type="curve" smooth="yes"/>
      <point x="127" y="729"/>
      <point x="106" y="697"/>
      <point x="106" y="679" type="curve" smooth="yes"/>
      <point x="106" y="672"/>
      <point x="108" y="662"/>
      <point x="111" y="649" type="curve" smooth="yes"/>
      <point x="118" y="620"/>
      <point x="125" y="575"/>
      <point x="125" y="518" type="curve" smooth="yes"/>
      <point x="125" y="472"/>
      <point x="122" y="390"/>
      <point x="119" y="323" type="curve" smooth="yes"/>
      <point x="116" y="265"/>
      <point x="115" y="224"/>
      <point x="115" y="203" type="curve" smooth="yes"/>
      <point x="115" y="174"/>
      <point x="121" y="150"/>
      <point x="121" y="123" type="curve" smooth="yes"/>
      <point x="121" y="102"/>
      <point x="110" y="85"/>
      <point x="110" y="64" type="curve" smooth="yes"/>
      <point x="110" y="41"/>
      <point x="145" y="-6"/>
      <point x="171" y="-6" type="curve" smooth="yes"/>
      <point x="192" y="-6"/>
      <point x="235" y="15"/>
      <point x="235" y="37" type="curve" smooth="yes"/>
      <point x="235" y="87"/>
      <point x="208" y="128"/>
      <point x="208" y="176" type="curve" smooth="yes"/>
      <point x="208" y="196"/>
      <point x="213" y="332"/>
      <point x="219" y="453" type="curve" smooth="yes"/>
      <point x="225" y="553"/>
      <point x="229" y="642"/>
      <point x="228" y="654" type="curve" smooth="yes"/>
      <point x="227" y="689"/>
      <point x="185" y="729"/>
    </contour>
  </outline>
</glyph>
<glyph name="two" format="1">
  <advance width="540"/>
  <unicode hex="0032"/>
  <outline>
    <contour>
      <point x="269" y="729" type="curve" smooth="yes"/>
      <point x="175" y="729"/>
      <point x="89" y="705"/>
      <point x="89" y="656" type="curve" smooth="yes"/>
      <point x="89" y="627"/>
      <point x="104" y="579"/>
      <point x="133" y="579" type="curve" smooth="yes"/>
      <point x="171" y="579"/>
      <point x="175" y="620"/>
      <point x="201" y="631" type="curve" smooth="yes"/>
      <point x="216" y="638"/>
      <point x="253" y="643"/>
      <point x="279" y="643" type="curve" smooth="yes"/>
      <point x="313" y="643"/>
      <point x="373" y="611"/>
      <point x="373" y="520" type="curve" smooth="yes"/>
      <point x="373" y="401"/>
      <point x="219" y="260"/>
      <point x="118" y="174" type="curve" smooth="yes"/>
      <point x="94" y="152"/>
      <point x="69" y="127"/>
      <point x="42" y="108" type="curve" smooth="yes"/>
      <point x="32" y="101"/>
      <point x="8" y="96"/>
      <point x="8" y="74" type="curve" smooth="yes"/>
      <point x="8" y="41"/>
      <point x="28" y="-9"/>
      <point x="72" y="-9" type="curve" smooth="yes"/>
      <point x="169" y="-9"/>
      <point x="256" y="5"/>
      <point x="345" y="5" type="curve" smooth="yes"/>
      <point x="405" y="5"/>
      <point x="426" y="4"/>
      <point x="455" y="4" type="curve" smooth="yes"/>
      <point x="491" y="4"/>
      <point x="501" y="39"/>
      <point x="501" y="56" type="curve" smooth="yes"/>
      <point x="501" y="93"/>
      <point x="478" y="114"/>
      <point x="456" y="114" type="curve" smooth="yes"/>
      <point x="435" y="114"/>
      <point x="418" y="94"/>
      <point x="392" y="93" type="curve" smooth="yes"/>
      <point x="382" y="92"/>
      <point x="217" y="86"/>
      <point x="138" y="82" type="curve"/>
      <point x="177" y="122"/>
      <point x="208" y="151"/>
      <point x="249" y="186" type="curve" smooth="yes"/>
      <point x="348" y="272"/>
      <point x="471" y="382"/>
      <point x="471" y="526" type="curve" smooth="yes"/>
      <point x="471" y="651"/>
      <point x="393" y="729"/>
    </contour>
  </outline>
</glyph>
<glyph name="three" format="1">
  <advance width="563"/>
  <unicode hex="0033"/>
  <outline>
    <contour>
      <point x="252" y="719" type="curve" smooth="yes"/>
      <point x="169" y="719"/>
      <point x="64" y="710"/>
      <point x="64" y="649" type="curve" smooth="yes"/>
      <point x="64" y="606"/>
      <point x="96" y="577"/>
      <point x="118" y="577" type="curve" smooth="yes"/>
      <point x="147" y="577"/>
      <point x="158" y="615"/>
      <point x="174" y="626" type="curve" smooth="yes"/>
      <point x="186" y="634"/>
      <point x="232" y="638"/>
      <point x="250" y="638" type="curve" smooth="yes"/>
      <point x="337" y="638"/>
      <point x="360" y="603"/>
      <point x="360" y="573" type="curve" smooth="yes"/>
      <point x="360" y="455"/>
      <point x="219" y="400"/>
      <point x="152" y="391" type="curve" smooth="yes"/>
      <point x="124" y="388"/>
      <point x="114" y="364"/>
      <point x="114" y="351" type="curve" smooth="yes"/>
      <point x="114" y="337"/>
      <point x="143" y="288"/>
      <point x="167" y="288" type="curve" smooth="yes"/>
      <point x="178" y="288"/>
      <point x="185" y="292"/>
      <point x="196" y="297" type="curve" smooth="yes"/>
      <point x="214" y="306"/>
      <point x="239" y="319"/>
      <point x="289" y="319" type="curve" smooth="yes"/>
      <point x="342" y="319"/>
      <point x="439" y="255"/>
      <point x="439" y="188" type="curve" smooth="yes"/>
      <point x="439" y="121"/>
      <point x="355" y="65"/>
      <point x="254" y="65" type="curve" smooth="yes"/>
      <point x="209" y="65"/>
      <point x="150" y="72"/>
      <point x="132" y="80" type="curve"/>
      <point x="104" y="88"/>
      <point x="101" y="126"/>
      <point x="61" y="126" type="curve" smooth="yes"/>
      <point x="35" y="126"/>
      <point x="3" y="95"/>
      <point x="3" y="60" type="curve" smooth="yes"/>
      <point x="3" y="0"/>
      <point x="104" y="-15"/>
      <point x="248" y="-15" type="curve" smooth="yes"/>
      <point x="353" y="-15"/>
      <point x="531" y="27"/>
      <point x="531" y="184" type="curve" smooth="yes"/>
      <point x="531" y="287"/>
      <point x="448" y="359"/>
      <point x="347" y="391" type="curve"/>
      <point x="411" y="438"/>
      <point x="454" y="505"/>
      <point x="454" y="568" type="curve" smooth="yes"/>
      <point x="454" y="641"/>
      <point x="396" y="719"/>
    </contour>
  </outline>
</glyph>
<glyph name="four" format="1">
  <advance width="650"/>
  <unicode hex="0034"/>
  <outline>
    <contour>
      <point x="491" y="580" type="curve" smooth="yes"/>
      <point x="457" y="580"/>
      <point x="431" y="546"/>
      <point x="431" y="528" type="curve" smooth="yes"/>
      <point x="431" y="492"/>
      <point x="438" y="462"/>
      <point x="438" y="429" type="curve" smooth="yes"/>
      <point x="438" y="409"/>
      <point x="436" y="377"/>
      <point x="431" y="326" type="curve"/>
      <point x="355" y="324"/>
      <point x="265" y="321"/>
      <point x="169" y="318" type="curve"/>
      <point x="230" y="397"/>
      <point x="331" y="532"/>
      <point x="362" y="560" type="curve" smooth="yes"/>
      <point x="393" y="588"/>
      <point x="457" y="618"/>
      <point x="457" y="661" type="curve" smooth="yes"/>
      <point x="457" y="687"/>
      <point x="447" y="718"/>
      <point x="401" y="718" type="curve" smooth="yes"/>
      <point x="369" y="718"/>
      <point x="330" y="672"/>
      <point x="317" y="650" type="curve" smooth="yes"/>
      <point x="307" y="633"/>
      <point x="255" y="569"/>
      <point x="216" y="522" type="curve" smooth="yes"/>
      <point x="175" y="472"/>
      <point x="89" y="343"/>
      <point x="42" y="318" type="curve" smooth="yes"/>
      <point x="39" y="317"/>
      <point x="18" y="307"/>
      <point x="18" y="288" type="curve" smooth="yes"/>
      <point x="18" y="268"/>
      <point x="34" y="214"/>
      <point x="78" y="214" type="curve" smooth="yes"/>
      <point x="91" y="214"/>
      <point x="126" y="217"/>
      <point x="212" y="226" type="curve" smooth="yes"/>
      <point x="308" y="236"/>
      <point x="365" y="241"/>
      <point x="388" y="241" type="curve"/>
      <point x="421" y="241" type="line"/>
      <point x="410" y="145"/>
      <point x="401" y="70"/>
      <point x="401" y="42" type="curve" smooth="yes"/>
      <point x="401" y="11"/>
      <point x="423" y="-16"/>
      <point x="446" y="-16" type="curve" smooth="yes"/>
      <point x="473" y="-16"/>
      <point x="499" y="7"/>
      <point x="500" y="37" type="curve" smooth="yes"/>
      <point x="503" y="80"/>
      <point x="506" y="118"/>
      <point x="510" y="157" type="curve" smooth="yes"/>
      <point x="513" y="186"/>
      <point x="514" y="213"/>
      <point x="518" y="248" type="curve"/>
      <point x="545" y="249"/>
      <point x="566" y="250"/>
      <point x="589" y="250" type="curve" smooth="yes"/>
      <point x="614" y="250"/>
      <point x="627" y="285"/>
      <point x="627" y="302" type="curve" smooth="yes"/>
      <point x="627" y="320"/>
      <point x="605" y="341"/>
      <point x="588" y="341" type="curve" smooth="yes"/>
      <point x="573" y="341"/>
      <point x="546" y="336"/>
      <point x="524" y="333" type="curve"/>
      <point x="526" y="365"/>
      <point x="527" y="380"/>
      <point x="527" y="393" type="curve" smooth="yes"/>
      <point x="527" y="458"/>
      <point x="546" y="478"/>
      <point x="546" y="525" type="curve" smooth="yes"/>
      <point x="546" y="547"/>
      <point x="516" y="580"/>
    </contour>
  </outline>
</glyph>
<glyph name="five" format="1">
  <advance width="605"/>
  <unicode hex="0035"/>
  <outline>
    <contour>
      <point x="199" y="635" type="curve" smooth="yes"/>
      <point x="162" y="635"/>
      <point x="162" y="537"/>
      <point x="142" y="499" type="curve" smooth="yes"/>
      <point x="133" y="480"/>
      <point x="117" y="455"/>
      <point x="99" y="431" type="curve" smooth="yes"/>
      <point x="76" y="402"/>
      <point x="53" y="374"/>
      <point x="53" y="358" type="curve" smooth="yes"/>
      <point x="53" y="338"/>
      <point x="90" y="292"/>
      <point x="111" y="292" type="curve" smooth="yes"/>
      <point x="122" y="292"/>
      <point x="134" y="297"/>
      <point x="149" y="303" type="curve" smooth="yes"/>
      <point x="182" y="315"/>
      <point x="232" y="334"/>
      <point x="314" y="334" type="curve" smooth="yes"/>
      <point x="391" y="334"/>
      <point x="452" y="294"/>
      <point x="452" y="243" type="curve" smooth="yes"/>
      <point x="452" y="119"/>
      <point x="310" y="73"/>
      <point x="206" y="73" type="curve" smooth="yes"/>
      <point x="145" y="73"/>
      <point x="109" y="84"/>
      <point x="98" y="97" type="curve" smooth="yes"/>
      <point x="84" y="111"/>
      <point x="79" y="139"/>
      <point x="54" y="139" type="curve" smooth="yes"/>
      <point x="24" y="139"/>
      <point x="6" y="108"/>
      <point x="6" y="72" type="curve" smooth="yes"/>
      <point x="6" y="45"/>
      <point x="43" y="-15"/>
      <point x="214" y="-15" type="curve" smooth="yes"/>
      <point x="384" y="-15"/>
      <point x="549" y="107"/>
      <point x="549" y="232" type="curve" smooth="yes"/>
      <point x="549" y="368"/>
      <point x="426" y="416"/>
      <point x="287" y="416" type="curve" smooth="yes"/>
      <point x="258" y="416"/>
      <point x="226" y="411"/>
      <point x="177" y="394" type="curve"/>
      <point x="204" y="442"/>
      <point x="265" y="520"/>
      <point x="265" y="565" type="curve" smooth="yes"/>
      <point x="265" y="601"/>
      <point x="228" y="635"/>
    </contour>
    <contour>
      <point x="269" y="620" type="curve" smooth="yes"/>
      <point x="269" y="594"/>
      <point x="290" y="575"/>
      <point x="307" y="575" type="curve" smooth="yes"/>
      <point x="327" y="575"/>
      <point x="341" y="589"/>
      <point x="349" y="594" type="curve" smooth="yes"/>
      <point x="369" y="607"/>
      <point x="423" y="618"/>
      <point x="485" y="618" type="curve" smooth="yes"/>
      <point x="512" y="618"/>
      <point x="534" y="608"/>
      <point x="557" y="608" type="curve" smooth="yes"/>
      <point x="586" y="608"/>
      <point x="606" y="645"/>
      <point x="606" y="662" type="curve" smooth="yes"/>
      <point x="606" y="686"/>
      <point x="578" y="715"/>
      <point x="525" y="715" type="curve" smooth="yes"/>
      <point x="454" y="715"/>
      <point x="397" y="705"/>
      <point x="360" y="695" type="curve" smooth="yes"/>
      <point x="322" y="685"/>
      <point x="270" y="660"/>
    </contour>
  </outline>
</glyph>
<glyph name="six" format="1">
  <advance width="523"/>
  <unicode hex="0036"/>
  <outline>
    <contour>
      <point x="343" y="729" type="curve" smooth="yes"/>
      <point x="330" y="729"/>
      <point x="316" y="724"/>
      <point x="306" y="719" type="curve" smooth="yes"/>
      <point x="272" y="702"/>
      <point x="155" y="512"/>
      <point x="125" y="442" type="curve" smooth="yes"/>
      <point x="103" y="394"/>
      <point x="80" y="340"/>
      <point x="66" y="275" type="curve"/>
      <point x="40" y="252"/>
      <point x="28" y="231"/>
      <point x="28" y="202" type="curve" smooth="yes"/>
      <point x="28" y="187"/>
      <point x="41" y="166"/>
      <point x="60" y="156" type="curve"/>
      <point x="82" y="52"/>
      <point x="159" y="-12"/>
      <point x="268" y="-12" type="curve" smooth="yes"/>
      <point x="378" y="-12"/>
      <point x="493" y="35"/>
      <point x="493" y="131" type="curve" smooth="yes"/>
      <point x="493" y="268"/>
      <point x="353" y="330"/>
      <point x="269" y="330" type="curve" smooth="yes"/>
      <point x="251" y="330"/>
      <point x="208" y="329"/>
      <point x="169" y="318" type="curve"/>
      <point x="207" y="430"/>
      <point x="255" y="543"/>
      <point x="337" y="614" type="curve" smooth="yes"/>
      <point x="342" y="617"/>
      <point x="349" y="620"/>
      <point x="356" y="624" type="curve" smooth="yes"/>
      <point x="372" y="632"/>
      <point x="384" y="643"/>
      <point x="384" y="662" type="curve" smooth="yes"/>
      <point x="384" y="691"/>
      <point x="378" y="729"/>
    </contour>
    <contour>
      <point x="259" y="248" type="curve" smooth="yes"/>
      <point x="330" y="248"/>
      <point x="401" y="193"/>
      <point x="401" y="136" type="curve" smooth="yes"/>
      <point x="401" y="101"/>
      <point x="357" y="68"/>
      <point x="274" y="68" type="curve" smooth="yes"/>
      <point x="199" y="68"/>
      <point x="149" y="112"/>
      <point x="149" y="166" type="curve" smooth="yes"/>
      <point x="149" y="186"/>
      <point x="148" y="203"/>
      <point x="154" y="229" type="curve"/>
      <point x="182" y="241"/>
      <point x="217" y="248"/>
    </contour>
  </outline>
</glyph>
<glyph name="seven" format="1">
  <advance width="501"/>
  <unicode hex="0037"/>
  <outline>
    <contour>
      <point x="42" y="706" type="curve" smooth="yes"/>
      <point x="15" y="706"/>
      <point x="-3" y="681"/>
      <point x="-3" y="650" type="curve" smooth="yes"/>
      <point x="-3" y="627"/>
      <point x="17" y="590"/>
      <point x="48" y="590" type="curve" smooth="yes"/>
      <point x="130" y="590"/>
      <point x="206" y="619"/>
      <point x="292" y="619" type="curve" smooth="yes"/>
      <point x="311" y="619"/>
      <point x="325" y="620"/>
      <point x="366" y="622" type="curve"/>
      <point x="296" y="479"/>
      <point x="204" y="110"/>
      <point x="203" y="71" type="curve" smooth="yes"/>
      <point x="203" y="39"/>
      <point x="225" y="-9"/>
      <point x="260" y="-9" type="curve" smooth="yes"/>
      <point x="291" y="-9"/>
      <point x="329" y="24"/>
      <point x="329" y="48" type="curve" smooth="yes"/>
      <point x="329" y="56"/>
      <point x="326" y="66"/>
      <point x="322" y="74" type="curve" smooth="yes"/>
      <point x="317" y="85"/>
      <point x="312" y="95"/>
      <point x="312" y="106" type="curve" smooth="yes"/>
      <point x="312" y="130"/>
      <point x="347" y="295"/>
      <point x="369" y="371" type="curve" smooth="yes"/>
      <point x="397" y="465"/>
      <point x="427" y="545"/>
      <point x="461" y="618" type="curve" smooth="yes"/>
      <point x="471" y="642"/>
      <point x="477" y="653"/>
      <point x="477" y="661" type="curve" smooth="yes"/>
      <point x="477" y="696"/>
      <point x="441" y="729"/>
      <point x="414" y="729" type="curve" smooth="yes"/>
      <point x="392" y="729"/>
      <point x="373" y="714"/>
      <point x="352" y="706" type="curve"/>
      <point x="318" y="701"/>
      <point x="129" y="689"/>
      <point x="109" y="689" type="curve" smooth="yes"/>
      <point x="85" y="689"/>
      <point x="66" y="706"/>
    </contour>
  </outline>
</glyph>
<glyph name="eight" format="1">
  <advance width="531"/>
  <unicode hex="0038"/>
  <outline>
    <contour>
      <point x="443" y="542" type="curve" smooth="yes"/>
      <point x="443" y="637"/>
      <point x="371" y="713"/>
      <point x="277" y="713" type="curve" smooth="yes"/>
      <point x="211" y="713"/>
      <point x="43" y="639"/>
      <point x="43" y="469" type="curve" smooth="yes"/>
      <point x="43" y="361"/>
      <point x="119" y="307"/>
      <point x="181" y="274" type="curve"/>
      <point x="125" y="199"/>
      <point x="102" y="145"/>
      <point x="102" y="95" type="curve" smooth="yes"/>
      <point x="102" y="38"/>
      <point x="138" y="-19"/>
      <point x="263" y="-19" type="curve" smooth="yes"/>
      <point x="391" y="-19"/>
      <point x="480" y="64"/>
      <point x="480" y="143" type="curve" smooth="yes"/>
      <point x="480" y="221"/>
      <point x="384" y="271"/>
      <point x="310" y="308" type="curve"/>
      <point x="333" y="339"/>
      <point x="397" y="412"/>
      <point x="423" y="422" type="curve" smooth="yes"/>
      <point x="450" y="432"/>
      <point x="457" y="448"/>
      <point x="457" y="459" type="curve" smooth="yes"/>
      <point x="457" y="473"/>
      <point x="449" y="487"/>
      <point x="436" y="501" type="curve"/>
      <point x="442" y="520"/>
      <point x="443" y="532"/>
    </contour>
    <contour>
      <point x="387" y="117" type="curve" smooth="yes"/>
      <point x="387" y="71"/>
      <point x="319" y="56"/>
      <point x="268" y="56" type="curve" smooth="yes"/>
      <point x="224" y="56"/>
      <point x="191" y="76"/>
      <point x="191" y="99" type="curve" smooth="yes"/>
      <point x="191" y="142"/>
      <point x="210" y="182"/>
      <point x="253" y="238" type="curve"/>
      <point x="332" y="200"/>
      <point x="387" y="164"/>
    </contour>
    <contour>
      <point x="239" y="345" type="curve"/>
      <point x="167" y="378"/>
      <point x="123" y="429"/>
      <point x="123" y="498" type="curve" smooth="yes"/>
      <point x="123" y="567"/>
      <point x="225" y="627"/>
      <point x="279" y="627" type="curve" smooth="yes"/>
      <point x="311" y="627"/>
      <point x="347" y="604"/>
      <point x="347" y="573" type="curve" smooth="yes"/>
      <point x="347" y="534"/>
      <point x="336" y="509"/>
      <point x="324" y="485" type="curve" smooth="yes"/>
      <point x="319" y="474"/>
      <point x="314" y="463"/>
      <point x="314" y="453" type="curve" smooth="yes"/>
      <point x="314" y="449"/>
      <point x="314" y="440"/>
      <point x="320" y="437" type="curve"/>
      <point x="290" y="404"/>
      <point x="266" y="378"/>
    </contour>
  </outline>
</glyph>
<glyph name="nine" format="1">
  <advance width="508"/>
  <unicode hex="0039"/>
  <outline>
    <contour>
      <point x="398" y="605" type="curve" smooth="yes"/>
      <point x="398" y="672"/>
      <point x="313" y="716"/>
      <point x="244" y="716" type="curve" smooth="yes"/>
      <point x="119" y="716"/>
      <point x="17" y="633"/>
      <point x="17" y="531" type="curve" smooth="yes"/>
      <point x="17" y="434"/>
      <point x="73" y="379"/>
      <point x="166" y="379" type="curve" smooth="yes"/>
      <point x="225" y="379"/>
      <point x="279" y="395"/>
      <point x="348" y="431" type="curve"/>
      <point x="335" y="336"/>
      <point x="323" y="262"/>
      <point x="316" y="188" type="curve" smooth="yes"/>
      <point x="311" y="145"/>
      <point x="298" y="105"/>
      <point x="275" y="66" type="curve" smooth="yes"/>
      <point x="271" y="59"/>
      <point x="268" y="53"/>
      <point x="268" y="48" type="curve" smooth="yes"/>
      <point x="268" y="20"/>
      <point x="294" y="-31"/>
      <point x="328" y="-31" type="curve" smooth="yes"/>
      <point x="372" y="-31"/>
      <point x="381" y="61"/>
      <point x="381" y="93" type="curve" smooth="yes"/>
      <point x="381" y="97"/>
      <point x="381" y="106"/>
      <point x="390" y="139" type="curve" smooth="yes"/>
      <point x="407" y="205"/>
      <point x="414" y="266"/>
      <point x="425" y="326" type="curve" smooth="yes"/>
      <point x="435" y="379"/>
      <point x="442" y="434"/>
      <point x="445" y="455" type="curve" smooth="yes"/>
      <point x="446" y="460"/>
      <point x="450" y="471"/>
      <point x="455" y="477" type="curve" smooth="yes"/>
      <point x="459" y="483"/>
      <point x="462" y="488"/>
      <point x="462" y="498" type="curve" smooth="yes"/>
      <point x="462" y="515"/>
      <point x="442" y="571"/>
      <point x="419" y="571" type="curve" smooth="yes"/>
      <point x="410" y="571"/>
      <point x="393" y="555"/>
      <point x="384" y="545" type="curve"/>
      <point x="395" y="564"/>
      <point x="398" y="587"/>
    </contour>
    <contour>
      <point x="190" y="458" type="curve" smooth="yes"/>
      <point x="130" y="458"/>
      <point x="100" y="487"/>
      <point x="100" y="523" type="curve" smooth="yes"/>
      <point x="100" y="601"/>
      <point x="179" y="629"/>
      <point x="237" y="629" type="curve" smooth="yes"/>
      <point x="272" y="629"/>
      <point x="301" y="609"/>
      <point x="301" y="591" type="curve" smooth="yes"/>
      <point x="301" y="568"/>
      <point x="281" y="550"/>
      <point x="281" y="529" type="curve" smooth="yes"/>
      <point x="281" y="509"/>
      <point x="291" y="498"/>
      <point x="307" y="493" type="curve"/>
      <point x="256" y="466"/>
      <point x="226" y="458"/>
    </contour>
  </outline>
</glyph>
<glyph name="colon" format="1">
  <advance width="222"/>
  <unicode hex="003A"/>
  <outline>
    <contour>
      <point x="105" y="126" type="curve" smooth="yes"/>
      <point x="90" y="126"/>
      <point x="61" y="106"/>
      <point x="51" y="88" type="curve" smooth="yes"/>
      <point x="46" y="79"/>
      <point x="42" y="51"/>
      <point x="42" y="43" type="curve" smooth="yes"/>
      <point x="42" y="26"/>
      <point x="75" y="-9"/>
      <point x="105" y="-9" type="curve" smooth="yes"/>
      <point x="138" y="-9"/>
      <point x="175" y="24"/>
      <point x="175" y="45" type="curve" smooth="yes"/>
      <point x="175" y="56"/>
      <point x="166" y="64"/>
      <point x="165" y="74" type="curve" smooth="yes"/>
      <point x="164" y="91"/>
      <point x="128" y="126"/>
    </contour>
    <contour>
      <point x="108" y="432" type="curve" smooth="yes"/>
      <point x="84" y="432"/>
      <point x="70" y="420"/>
      <point x="66" y="412" type="curve" smooth="yes"/>
      <point x="61" y="405"/>
      <point x="52" y="383"/>
      <point x="52" y="352" type="curve" smooth="yes"/>
      <point x="52" y="336"/>
      <point x="74" y="307"/>
      <point x="90" y="308" type="curve" smooth="yes"/>
      <point x="105" y="310"/>
      <point x="113" y="301"/>
      <point x="124" y="301" type="curve" smooth="yes"/>
      <point x="139" y="301"/>
      <point x="177" y="325"/>
      <point x="177" y="349" type="curve" smooth="yes"/>
      <point x="177" y="379"/>
      <point x="155" y="432"/>
    </contour>
  </outline>
</glyph>
<glyph name="semicolon" format="1">
  <advance width="214"/>
  <unicode hex="003B"/>
  <outline>
    <contour>
      <point x="119" y="112" type="curve" smooth="yes"/>
      <point x="78" y="112"/>
      <point x="65" y="89"/>
      <point x="61" y="68" type="curve" smooth="yes"/>
      <point x="56" y="44"/>
      <point x="55" y="19"/>
      <point x="49" y="-2" type="curve" smooth="yes"/>
      <point x="43" y="-22"/>
      <point x="45" y="-45"/>
      <point x="27" y="-81" type="curve" smooth="yes"/>
      <point x="21" y="-94"/>
      <point x="15" y="-98"/>
      <point x="15" y="-118" type="curve" smooth="yes"/>
      <point x="15" y="-129"/>
      <point x="19" y="-148"/>
      <point x="52" y="-148" type="curve" smooth="yes"/>
      <point x="86" y="-148"/>
      <point x="101" y="-111"/>
      <point x="124" y="-50" type="curve" smooth="yes"/>
      <point x="137" y="-15"/>
      <point x="166" y="37"/>
      <point x="166" y="60" type="curve" smooth="yes"/>
      <point x="166" y="79"/>
      <point x="152" y="112"/>
    </contour>
    <contour>
      <point x="97" y="438" type="curve" smooth="yes"/>
      <point x="71" y="438"/>
      <point x="44" y="397"/>
      <point x="44" y="379" type="curve" smooth="yes"/>
      <point x="44" y="327"/>
      <point x="67" y="304"/>
      <point x="117" y="304" type="curve" smooth="yes"/>
      <point x="146" y="304"/>
      <point x="169" y="338"/>
      <point x="169" y="354" type="curve" smooth="yes"/>
      <point x="169" y="376"/>
      <point x="164" y="406"/>
      <point x="143" y="411" type="curve" smooth="yes"/>
      <point x="124" y="415"/>
      <point x="114" y="438"/>
    </contour>
  </outline>
</glyph>
<glyph name="less" format="1">
  <advance width="695"/>
  <unicode hex="003C"/>
  <outline>
    <contour>
      <point x="555" y="593" type="curve" smooth="yes"/>
      <point x="543" y="593"/>
      <point x="513" y="579"/>
      <point x="500" y="566" type="curve" smooth="yes"/>
      <point x="479" y="543"/>
      <point x="162" y="394"/>
      <point x="137" y="393" type="curve" smooth="yes"/>
      <point x="92" y="391"/>
      <point x="67" y="370"/>
      <point x="67" y="326" type="curve" smooth="yes"/>
      <point x="67" y="264"/>
      <point x="137" y="278"/>
      <point x="167" y="261" type="curve" smooth="yes"/>
      <point x="183" y="254"/>
      <point x="440" y="95"/>
      <point x="489" y="63" type="curve" smooth="yes"/>
      <point x="507" y="51"/>
      <point x="533" y="38"/>
      <point x="555" y="38" type="curve" smooth="yes"/>
      <point x="591" y="38"/>
      <point x="599" y="74"/>
      <point x="599" y="89" type="curve" smooth="yes"/>
      <point x="598" y="126"/>
      <point x="486" y="173"/>
      <point x="454" y="193" type="curve" smooth="yes"/>
      <point x="399" y="227"/>
      <point x="293" y="287"/>
      <point x="221" y="332" type="curve"/>
      <point x="281" y="361"/>
      <point x="323" y="378"/>
      <point x="360" y="395" type="curve" smooth="yes"/>
      <point x="420" y="420"/>
      <point x="532" y="473"/>
      <point x="551" y="473" type="curve"/>
      <point x="583" y="474"/>
      <point x="599" y="528"/>
      <point x="599" y="544" type="curve" smooth="yes"/>
      <point x="599" y="567"/>
      <point x="576" y="593"/>
    </contour>
  </outline>
</glyph>
<glyph name="equal" format="1">
  <advance width="695"/>
  <unicode hex="003D"/>
  <outline>
    <contour>
      <point x="132" y="261" type="curve" smooth="yes"/>
      <point x="118" y="261"/>
      <point x="88" y="252"/>
      <point x="88" y="215" type="curve" smooth="yes"/>
      <point x="88" y="167"/>
      <point x="108" y="154"/>
      <point x="139" y="154" type="curve" smooth="yes"/>
      <point x="202" y="154"/>
      <point x="242" y="174"/>
      <point x="330" y="174" type="curve" smooth="yes"/>
      <point x="405" y="174"/>
      <point x="470" y="168"/>
      <point x="535" y="168" type="curve" smooth="yes"/>
      <point x="573" y="168"/>
      <point x="597" y="188"/>
      <point x="597" y="223" type="curve" smooth="yes"/>
      <point x="597" y="248"/>
      <point x="585" y="267"/>
      <point x="537" y="268" type="curve" smooth="yes"/>
      <point x="437" y="268"/>
      <point x="344" y="256"/>
      <point x="252" y="256" type="curve" smooth="yes"/>
      <point x="203" y="256"/>
      <point x="168" y="261"/>
    </contour>
    <contour>
      <point x="87" y="445" type="curve" smooth="yes"/>
      <point x="87" y="408"/>
      <point x="118" y="388"/>
      <point x="147" y="388" type="curve" smooth="yes"/>
      <point x="228" y="388"/>
      <point x="220" y="403"/>
      <point x="361" y="403" type="curve" smooth="yes"/>
      <point x="428" y="403"/>
      <point x="489" y="400"/>
      <point x="551" y="400" type="curve" smooth="yes"/>
      <point x="581" y="400"/>
      <point x="606" y="430"/>
      <point x="606" y="457" type="curve" smooth="yes"/>
      <point x="606" y="471"/>
      <point x="586" y="499"/>
      <point x="540" y="499" type="curve" smooth="yes"/>
      <point x="474" y="499"/>
      <point x="414" y="493"/>
      <point x="354" y="493" type="curve" smooth="yes"/>
      <point x="267" y="493"/>
      <point x="202" y="496"/>
      <point x="138" y="496" type="curve" smooth="yes"/>
      <point x="99" y="496"/>
      <point x="87" y="474"/>
    </contour>
  </outline>
</glyph>
<glyph name="greater" format="1">
  <advance width="695"/>
  <unicode hex="003E"/>
  <outline>
    <contour>
      <point x="169" y="590" type="curve" smooth="yes"/>
      <point x="138" y="590"/>
      <point x="114" y="559"/>
      <point x="114" y="538" type="curve" smooth="yes"/>
      <point x="114" y="517"/>
      <point x="132" y="484"/>
      <point x="160" y="473" type="curve" smooth="yes"/>
      <point x="234" y="443"/>
      <point x="408" y="367"/>
      <point x="495" y="321" type="curve"/>
      <point x="420" y="275"/>
      <point x="366" y="240"/>
      <point x="331" y="222" type="curve" smooth="yes"/>
      <point x="264" y="188"/>
      <point x="204" y="150"/>
      <point x="138" y="121" type="curve"/>
      <point x="82" y="95"/>
      <point x="82" y="16"/>
      <point x="144" y="16" type="curve" smooth="yes"/>
      <point x="188" y="16"/>
      <point x="266" y="83"/>
      <point x="395" y="161" type="curve" smooth="yes"/>
      <point x="448" y="193"/>
      <point x="561" y="274"/>
      <point x="591" y="275" type="curve" smooth="yes"/>
      <point x="623" y="277"/>
      <point x="625" y="298"/>
      <point x="625" y="322" type="curve" smooth="yes"/>
      <point x="625" y="342"/>
      <point x="615" y="377"/>
      <point x="593" y="382" type="curve"/>
      <point x="498" y="409"/>
      <point x="421" y="449"/>
      <point x="375" y="473" type="curve" smooth="yes"/>
      <point x="258" y="532"/>
      <point x="198" y="590"/>
    </contour>
  </outline>
</glyph>
<glyph name="question" format="1">
  <advance width="410"/>
  <unicode hex="003F"/>
  <outline>
    <contour>
      <point x="149" y="109" type="curve" smooth="yes"/>
      <point x="135" y="109"/>
      <point x="81" y="80"/>
      <point x="81" y="62" type="curve" smooth="yes"/>
      <point x="81" y="38"/>
      <point x="103" y="13"/>
      <point x="102" y="5" type="curve" smooth="yes"/>
      <point x="104" y="-9"/>
      <point x="130" y="-15"/>
      <point x="139" y="-15" type="curve" smooth="yes"/>
      <point x="173" y="-15"/>
      <point x="210" y="11"/>
      <point x="210" y="39" type="curve" smooth="yes"/>
      <point x="210" y="66"/>
      <point x="179" y="109"/>
    </contour>
    <contour>
      <point x="153" y="738" type="curve" smooth="yes"/>
      <point x="139" y="738"/>
      <point x="48" y="736"/>
      <point x="40" y="711" type="curve" smooth="yes"/>
      <point x="36" y="699"/>
      <point x="28" y="682"/>
      <point x="28" y="672" type="curve" smooth="yes"/>
      <point x="28" y="655"/>
      <point x="49" y="610"/>
      <point x="82" y="610" type="curve" smooth="yes"/>
      <point x="116" y="610"/>
      <point x="123" y="652"/>
      <point x="184" y="652" type="curve" smooth="yes"/>
      <point x="226" y="652"/>
      <point x="278" y="613"/>
      <point x="278" y="547" type="curve" smooth="yes"/>
      <point x="278" y="499"/>
      <point x="252" y="458"/>
      <point x="190" y="446" type="curve" smooth="yes"/>
      <point x="129" y="434"/>
      <point x="87" y="420"/>
      <point x="87" y="369" type="curve" smooth="yes"/>
      <point x="87" y="319"/>
      <point x="103" y="265"/>
      <point x="100" y="219" type="curve" smooth="yes"/>
      <point x="99" y="184"/>
      <point x="122" y="176"/>
      <point x="151" y="176" type="curve" smooth="yes"/>
      <point x="184" y="176"/>
      <point x="193" y="197"/>
      <point x="193" y="226" type="curve" smooth="yes"/>
      <point x="193" y="248"/>
      <point x="182" y="267"/>
      <point x="182" y="287" type="curve" smooth="yes"/>
      <point x="182" y="300"/>
      <point x="181" y="344"/>
      <point x="189" y="355" type="curve" smooth="yes"/>
      <point x="196" y="366"/>
      <point x="221" y="372"/>
      <point x="260" y="384" type="curve" smooth="yes"/>
      <point x="300" y="395"/>
      <point x="367" y="439"/>
      <point x="367" y="539" type="curve" smooth="yes"/>
      <point x="367" y="674"/>
      <point x="236" y="738"/>
    </contour>
  </outline>
</glyph>
<glyph name="at" format="1">
  <advance width="951"/>
  <unicode hex="0040"/>
  <outline>
    <contour>
      <point x="713" y="99" type="curve" smooth="yes"/>
      <point x="853" y="99"/>
      <point x="902" y="251"/>
      <point x="902" y="378" type="curve" smooth="yes"/>
      <point x="902" y="573"/>
      <point x="719" y="732"/>
      <point x="494" y="732" type="curve" smooth="yes"/>
      <point x="158" y="732"/>
      <point x="50" y="453"/>
      <point x="50" y="303" type="curve" smooth="yes"/>
      <point x="50" y="116"/>
      <point x="188" y="-74"/>
      <point x="448" y="-74" type="curve" smooth="yes"/>
      <point x="502" y="-74"/>
      <point x="528" y="-48"/>
      <point x="528" y="-25" type="curve" smooth="yes"/>
      <point x="528" y="38"/>
      <point x="433" y="-3"/>
      <point x="395" y="4" type="curve" smooth="yes"/>
      <point x="182" y="44"/>
      <point x="142" y="194"/>
      <point x="142" y="315" type="curve" smooth="yes"/>
      <point x="142" y="425"/>
      <point x="227" y="650"/>
      <point x="480" y="650" type="curve" smooth="yes"/>
      <point x="676" y="650"/>
      <point x="818" y="530"/>
      <point x="818" y="364" type="curve" smooth="yes"/>
      <point x="818" y="273"/>
      <point x="790" y="176"/>
      <point x="720" y="176" type="curve" smooth="yes"/>
      <point x="664" y="176"/>
      <point x="665" y="253"/>
      <point x="666" y="306" type="curve" smooth="yes"/>
      <point x="666" y="358"/>
      <point x="691" y="398"/>
      <point x="691" y="439" type="curve" smooth="yes"/>
      <point x="691" y="457"/>
      <point x="679" y="476"/>
      <point x="656" y="476" type="curve" smooth="yes"/>
      <point x="650" y="476"/>
      <point x="644" y="474"/>
      <point x="640" y="470" type="curve"/>
      <point x="623" y="492"/>
      <point x="579" y="537"/>
      <point x="526" y="537" type="curve" smooth="yes"/>
      <point x="397" y="537"/>
      <point x="264" y="383"/>
      <point x="264" y="235" type="curve" smooth="yes"/>
      <point x="264" y="153"/>
      <point x="322" y="111"/>
      <point x="380" y="111" type="curve" smooth="yes"/>
      <point x="479" y="111"/>
      <point x="566" y="204"/>
      <point x="597" y="250" type="curve"/>
      <point x="599" y="163"/>
      <point x="633" y="99"/>
    </contour>
    <contour>
      <point x="526" y="466" type="curve" smooth="yes"/>
      <point x="552" y="466"/>
      <point x="579" y="435"/>
      <point x="579" y="414" type="curve" smooth="yes"/>
      <point x="579" y="331"/>
      <point x="481" y="186"/>
      <point x="389" y="186" type="curve" smooth="yes"/>
      <point x="361" y="186"/>
      <point x="350" y="213"/>
      <point x="350" y="231" type="curve" smooth="yes"/>
      <point x="350" y="310"/>
      <point x="426" y="466"/>
    </contour>
  </outline>
</glyph>
<glyph name="A" format="1">
  <advance width="588"/>
  <unicode hex="0041"/>
  <outline>
    <contour>
      <point x="260" y="771" type="move" name="top"/>
    </contour>
    <contour>
      <point x="282" y="721" type="curve" smooth="yes"/>
      <point x="276" y="721"/>
      <point x="267" y="719"/>
      <point x="258" y="713" type="curve"/>
      <point x="249" y="727"/>
      <point x="235" y="735"/>
      <point x="219" y="735" type="curve" smooth="yes"/>
      <point x="181" y="735"/>
      <point x="173" y="688"/>
      <point x="168" y="666" type="curve" smooth="yes"/>
      <point x="142" y="553"/>
      <point x="123" y="476"/>
      <point x="112" y="406" type="curve" smooth="yes"/>
      <point x="93" y="294"/>
      <point x="71" y="200"/>
      <point x="43" y="118" type="curve" smooth="yes"/>
      <point x="37" y="99"/>
      <point x="28" y="81"/>
      <point x="28" y="62" type="curve" smooth="yes"/>
      <point x="28" y="38"/>
      <point x="52" y="-17"/>
      <point x="86" y="-17" type="curve" smooth="yes"/>
      <point x="118" y="-17"/>
      <point x="148" y="23"/>
      <point x="148" y="51" type="curve" smooth="yes"/>
      <point x="148" y="62"/>
      <point x="149" y="103"/>
      <point x="163" y="190" type="curve"/>
      <point x="189" y="190"/>
      <point x="209" y="192"/>
      <point x="232" y="194" type="curve" smooth="yes"/>
      <point x="257" y="196"/>
      <point x="287" y="198"/>
      <point x="316" y="198" type="curve" smooth="yes"/>
      <point x="425" y="198" type="line"/>
      <point x="447" y="147"/>
      <point x="461" y="109"/>
      <point x="466" y="78" type="curve" smooth="yes"/>
      <point x="473" y="38"/>
      <point x="494" y="-4"/>
      <point x="535" y="-4" type="curve" smooth="yes"/>
      <point x="567" y="-4"/>
      <point x="588" y="24"/>
      <point x="588" y="57" type="curve" smooth="yes"/>
      <point x="588" y="73"/>
      <point x="577" y="95"/>
      <point x="559" y="122" type="curve" smooth="yes"/>
      <point x="552" y="131"/>
      <point x="549" y="135"/>
      <point x="546" y="142" type="curve" smooth="yes"/>
      <point x="530" y="184"/>
      <point x="465" y="326"/>
      <point x="442" y="373" type="curve" smooth="yes"/>
      <point x="419" y="423"/>
      <point x="367" y="584"/>
      <point x="359" y="609" type="curve" smooth="yes"/>
      <point x="352" y="627"/>
      <point x="353" y="646"/>
      <point x="348" y="664" type="curve" smooth="yes"/>
      <point x="341" y="684"/>
      <point x="320" y="721"/>
    </contour>
    <contour>
      <point x="187" y="337" type="curve" smooth="yes"/>
      <point x="203" y="419"/>
      <point x="222" y="496"/>
      <point x="240" y="561" type="curve" smooth="yes"/>
      <point x="244" y="575"/>
      <point x="247" y="586"/>
      <point x="249" y="597" type="curve"/>
      <point x="260" y="576"/>
      <point x="274" y="557"/>
      <point x="281" y="535" type="curve" smooth="yes"/>
      <point x="300" y="487"/>
      <point x="352" y="363"/>
      <point x="385" y="287" type="curve"/>
      <point x="344" y="282"/>
      <point x="314" y="283"/>
      <point x="280" y="283" type="curve" smooth="yes"/>
      <point x="265" y="283"/>
      <point x="236" y="283"/>
      <point x="177" y="284" type="curve"/>
      <point x="183" y="309"/>
      <point x="186" y="323"/>
    </contour>
  </outline>
</glyph>
<glyph name="B" format="1">
  <advance width="667"/>
  <unicode hex="0042"/>
  <outline>
    <contour>
      <point x="328" y="730" type="curve" smooth="yes"/>
      <point x="277" y="730"/>
      <point x="163" y="714"/>
      <point x="141" y="709" type="curve" smooth="yes"/>
      <point x="113" y="701"/>
      <point x="77" y="679"/>
      <point x="77" y="643" type="curve" smooth="yes"/>
      <point x="77" y="606"/>
      <point x="108" y="579"/>
      <point x="108" y="543" type="curve" smooth="yes"/>
      <point x="108" y="473"/>
      <point x="99" y="402"/>
      <point x="89" y="335" type="curve" smooth="yes"/>
      <point x="79" y="264"/>
      <point x="68" y="200"/>
      <point x="68" y="134" type="curve" smooth="yes"/>
      <point x="68" y="126"/>
      <point x="69" y="114"/>
      <point x="70" y="99" type="curve"/>
      <point x="50" y="93"/>
      <point x="37" y="74"/>
      <point x="37" y="52" type="curve" smooth="yes"/>
      <point x="37" y="24"/>
      <point x="58" y="-11"/>
      <point x="104" y="-11" type="curve" smooth="yes"/>
      <point x="144" y="-11"/>
      <point x="170" y="-7"/>
      <point x="198" y="-7" type="curve" smooth="yes"/>
      <point x="255" y="-7"/>
      <point x="307" y="-19"/>
      <point x="359" y="-19" type="curve" smooth="yes"/>
      <point x="509" y="-19"/>
      <point x="634" y="35"/>
      <point x="634" y="182" type="curve" smooth="yes"/>
      <point x="634" y="280"/>
      <point x="589" y="355"/>
      <point x="485" y="393" type="curve"/>
      <point x="551" y="427"/>
      <point x="584" y="481"/>
      <point x="584" y="541" type="curve" smooth="yes"/>
      <point x="584" y="668"/>
      <point x="500" y="730"/>
    </contour>
    <contour>
      <point x="195" y="384" type="curve" smooth="yes"/>
      <point x="195" y="346"/>
      <point x="209" y="322"/>
      <point x="232" y="322" type="curve" smooth="yes"/>
      <point x="275" y="322"/>
      <point x="281" y="339"/>
      <point x="335" y="339" type="curve" smooth="yes"/>
      <point x="436" y="339"/>
      <point x="539" y="299"/>
      <point x="539" y="185" type="curve" smooth="yes"/>
      <point x="539" y="96"/>
      <point x="458" y="62"/>
      <point x="350" y="62" type="curve" smooth="yes"/>
      <point x="265" y="62"/>
      <point x="212" y="71"/>
      <point x="171" y="82" type="curve"/>
      <point x="177" y="92"/>
      <point x="177" y="104"/>
      <point x="177" y="108" type="curve" smooth="yes"/>
      <point x="177" y="140"/>
      <point x="169" y="164"/>
      <point x="169" y="192" type="curve" smooth="yes"/>
      <point x="169" y="236"/>
      <point x="177" y="280"/>
      <point x="182" y="322" type="curve" smooth="yes"/>
      <point x="187" y="370"/>
      <point x="201" y="490"/>
      <point x="201" y="529" type="curve" smooth="yes"/>
      <point x="201" y="552"/>
      <point x="198" y="570"/>
      <point x="198" y="589" type="curve" smooth="yes"/>
      <point x="198" y="610"/>
      <point x="200" y="616"/>
      <point x="202" y="620" type="curve" smooth="yes"/>
      <point x="220" y="632"/>
      <point x="294" y="640"/>
      <point x="331" y="640" type="curve" smooth="yes"/>
      <point x="438" y="640"/>
      <point x="492" y="609"/>
      <point x="492" y="544" type="curve" smooth="yes"/>
      <point x="492" y="460"/>
      <point x="404" y="435"/>
      <point x="373" y="435" type="curve" smooth="yes"/>
      <point x="364" y="435"/>
      <point x="345" y="433"/>
      <point x="327" y="425" type="curve"/>
      <point x="313" y="426"/>
      <point x="302" y="426"/>
      <point x="282" y="426" type="curve" smooth="yes"/>
      <point x="216" y="426"/>
      <point x="195" y="413"/>
    </contour>
  </outline>
</glyph>
<glyph name="D" format="1">
  <advance width="604"/>
  <unicode hex="0044"/>
  <outline>
    <contour>
      <point x="252" y="739" type="move" name="top"/>
    </contour>
    <contour>
      <point x="52" y="669" type="curve" smooth="yes"/>
      <point x="52" y="654"/>
      <point x="55" y="612"/>
      <point x="59" y="559" type="curve" smooth="yes"/>
      <point x="69" y="451"/>
      <point x="80" y="327"/>
      <point x="83" y="208" type="curve"/>
      <point x="76" y="192"/>
      <point x="66" y="177"/>
      <point x="66" y="160" type="curve" smooth="yes"/>
      <point x="66" y="134"/>
      <point x="100" y="96"/>
      <point x="132" y="96" type="curve" smooth="yes"/>
      <point x="166" y="96"/>
      <point x="176" y="153"/>
      <point x="176" y="179" type="curve" smooth="yes"/>
      <point x="176" y="262"/>
      <point x="159" y="352"/>
      <point x="159" y="429" type="curve" smooth="yes"/>
      <point x="159" y="528"/>
      <point x="159" y="565"/>
      <point x="158" y="603" type="curve" smooth="yes"/>
      <point x="158" y="620"/>
      <point x="170" y="626"/>
      <point x="179" y="626" type="curve" smooth="yes"/>
      <point x="197" y="626"/>
      <point x="278" y="610"/>
      <point x="331" y="580" type="curve" smooth="yes"/>
      <point x="402" y="540"/>
      <point x="487" y="473"/>
      <point x="487" y="332" type="curve" smooth="yes"/>
      <point x="487" y="166"/>
      <point x="281" y="70"/>
      <point x="168" y="70" type="curve" smooth="yes"/>
      <point x="145" y="70"/>
      <point x="135" y="91"/>
      <point x="107" y="91" type="curve" smooth="yes"/>
      <point x="90" y="91"/>
      <point x="73" y="59"/>
      <point x="73" y="47" type="curve" smooth="yes"/>
      <point x="73" y="27"/>
      <point x="91" y="-18"/>
      <point x="126" y="-18" type="curve" smooth="yes"/>
      <point x="327" y="-18"/>
      <point x="574" y="98"/>
      <point x="574" y="317" type="curve" smooth="yes"/>
      <point x="574" y="489"/>
      <point x="486" y="620"/>
      <point x="331" y="676" type="curve" smooth="yes"/>
      <point x="252" y="705"/>
      <point x="162" y="730"/>
      <point x="107" y="730" type="curve" smooth="yes"/>
      <point x="75" y="730"/>
      <point x="52" y="714"/>
    </contour>
  </outline>
</glyph>
<glyph name="E" format="1">
  <advance width="487"/>
  <unicode hex="0045"/>
  <outline>
    <contour>
      <point x="283" y="752" type="move" name="top"/>
    </contour>
    <contour>
      <point x="365" y="407" type="curve" smooth="yes"/>
      <point x="333" y="407"/>
      <point x="306" y="401"/>
      <point x="276" y="396" type="curve" smooth="yes"/>
      <point x="248" y="392"/>
      <point x="223" y="388"/>
      <point x="201" y="388" type="curve" smooth="yes"/>
      <point x="186" y="387"/>
      <point x="175" y="384"/>
      <point x="168" y="376" type="curve"/>
      <point x="173" y="423"/>
      <point x="175" y="473"/>
      <point x="180" y="506" type="curve" smooth="yes"/>
      <point x="184" y="541"/>
      <point x="188" y="576"/>
      <point x="190" y="606" type="curve"/>
      <point x="196" y="606" type="line" smooth="yes"/>
      <point x="254" y="606"/>
      <point x="294" y="642"/>
      <point x="343" y="642" type="curve" smooth="yes"/>
      <point x="370" y="642"/>
      <point x="393" y="636"/>
      <point x="418" y="636" type="curve" smooth="yes"/>
      <point x="441" y="636"/>
      <point x="467" y="652"/>
      <point x="467" y="675" type="curve" smooth="yes"/>
      <point x="467" y="701"/>
      <point x="451" y="730"/>
      <point x="396" y="730" type="curve" smooth="yes"/>
      <point x="344" y="730"/>
      <point x="297" y="713"/>
      <point x="245" y="713" type="curve" smooth="yes"/>
      <point x="226" y="713"/>
      <point x="209" y="718"/>
      <point x="190" y="718" type="curve" smooth="yes"/>
      <point x="174" y="718"/>
      <point x="157" y="700"/>
      <point x="150" y="675" type="curve"/>
      <point x="144" y="678"/>
      <point x="134" y="678"/>
      <point x="132" y="678" type="curve" smooth="yes"/>
      <point x="103" y="677"/>
      <point x="75" y="640"/>
      <point x="75" y="610" type="curve" smooth="yes"/>
      <point x="75" y="587"/>
      <point x="92" y="568"/>
      <point x="92" y="546" type="curve" smooth="yes"/>
      <point x="92" y="530"/>
      <point x="87" y="475"/>
      <point x="82" y="421" type="curve" smooth="yes"/>
      <point x="75" y="346"/>
      <point x="67" y="272"/>
      <point x="58" y="207" type="curve" smooth="yes"/>
      <point x="46" y="114"/>
      <point x="44" y="88"/>
      <point x="44" y="79" type="curve" smooth="yes"/>
      <point x="44" y="52"/>
      <point x="73" y="-23"/>
      <point x="117" y="-23" type="curve" smooth="yes"/>
      <point x="139" y="-23"/>
      <point x="153" y="-20"/>
      <point x="170" y="-17" type="curve" smooth="yes"/>
      <point x="201" y="-12"/>
      <point x="247" y="-7"/>
      <point x="373" y="-7" type="curve" smooth="yes"/>
      <point x="392" y="-7"/>
      <point x="422" y="5"/>
      <point x="422" y="29" type="curve" smooth="yes"/>
      <point x="422" y="69"/>
      <point x="365" y="102"/>
      <point x="339" y="102" type="curve" smooth="yes"/>
      <point x="320" y="102"/>
      <point x="307" y="83"/>
      <point x="291" y="78" type="curve"/>
      <point x="267" y="75"/>
      <point x="242" y="73"/>
      <point x="220" y="73" type="curve" smooth="yes"/>
      <point x="211" y="73"/>
      <point x="170" y="73"/>
      <point x="157" y="80" type="curve" smooth="yes"/>
      <point x="151" y="83"/>
      <point x="142" y="96"/>
      <point x="142" y="116" type="curve" smooth="yes"/>
      <point x="142" y="139"/>
      <point x="149" y="202"/>
      <point x="155" y="257" type="curve" smooth="yes"/>
      <point x="156" y="265"/>
      <point x="157" y="281"/>
      <point x="158" y="292" type="curve"/>
      <point x="165" y="285"/>
      <point x="175" y="284"/>
      <point x="183" y="284" type="curve" smooth="yes"/>
      <point x="235" y="284"/>
      <point x="284" y="320"/>
      <point x="335" y="320" type="curve" smooth="yes"/>
      <point x="356" y="320"/>
      <point x="374" y="317"/>
      <point x="393" y="317" type="curve" smooth="yes"/>
      <point x="409" y="317"/>
      <point x="426" y="329"/>
      <point x="426" y="347" type="curve" smooth="yes"/>
      <point x="426" y="388"/>
      <point x="405" y="407"/>
    </contour>
  </outline>
</glyph>
<glyph name="F" format="1">
  <advance width="499"/>
  <unicode hex="0046"/>
  <outline>
    <contour>
      <point x="415" y="428" type="curve" smooth="yes"/>
      <point x="405" y="428"/>
      <point x="388" y="422"/>
      <point x="369" y="416" type="curve" smooth="yes"/>
      <point x="311" y="400"/>
      <point x="255" y="395"/>
      <point x="191" y="395" type="curve" smooth="yes"/>
      <point x="178" y="395" type="line"/>
      <point x="182" y="434"/>
      <point x="184" y="458"/>
      <point x="184" y="479" type="curve" smooth="yes"/>
      <point x="184" y="566"/>
      <point x="183" y="585"/>
      <point x="186" y="591" type="curve" smooth="yes"/>
      <point x="203" y="620"/>
      <point x="327" y="635"/>
      <point x="363" y="635" type="curve" smooth="yes"/>
      <point x="389" y="635"/>
      <point x="409" y="617"/>
      <point x="433" y="617" type="curve" smooth="yes"/>
      <point x="458" y="617"/>
      <point x="488" y="637"/>
      <point x="488" y="663" type="curve" smooth="yes"/>
      <point x="488" y="704"/>
      <point x="462" y="731"/>
      <point x="418" y="731" type="curve" smooth="yes"/>
      <point x="370" y="731"/>
      <point x="229" y="708"/>
      <point x="188" y="694" type="curve" smooth="yes"/>
      <point x="163" y="686"/>
      <point x="139" y="667"/>
      <point x="123" y="651" type="curve"/>
      <point x="104" y="646"/>
      <point x="78" y="631"/>
      <point x="78" y="575" type="curve" smooth="yes"/>
      <point x="78" y="520"/>
      <point x="89" y="472"/>
      <point x="89" y="423" type="curve" smooth="yes"/>
      <point x="89" y="418"/>
      <point x="89" y="408"/>
      <point x="87" y="390" type="curve"/>
      <point x="70" y="377"/>
      <point x="62" y="360"/>
      <point x="62" y="346" type="curve" smooth="yes"/>
      <point x="62" y="334"/>
      <point x="66" y="324"/>
      <point x="77" y="313" type="curve"/>
      <point x="75" y="283"/>
      <point x="70" y="259"/>
      <point x="67" y="236" type="curve" smooth="yes"/>
      <point x="60" y="169"/>
      <point x="48" y="89"/>
      <point x="48" y="71" type="curve" smooth="yes"/>
      <point x="48" y="33"/>
      <point x="69" y="-2"/>
      <point x="92" y="-2" type="curve" smooth="yes"/>
      <point x="116" y="-2"/>
      <point x="153" y="18"/>
      <point x="153" y="38" type="curve" smooth="yes"/>
      <point x="153" y="68"/>
      <point x="146" y="94"/>
      <point x="146" y="120" type="curve" smooth="yes"/>
      <point x="146" y="164"/>
      <point x="155" y="228"/>
      <point x="165" y="297" type="curve"/>
      <point x="181" y="299"/>
      <point x="190" y="302"/>
      <point x="203" y="306" type="curve" smooth="yes"/>
      <point x="228" y="315"/>
      <point x="275" y="321"/>
      <point x="406" y="321" type="curve" smooth="yes"/>
      <point x="438" y="321"/>
      <point x="463" y="343"/>
      <point x="463" y="366" type="curve" smooth="yes"/>
      <point x="463" y="392"/>
      <point x="446" y="428"/>
    </contour>
  </outline>
</glyph>
<glyph name="G" format="1">
  <advance width="641"/>
  <unicode hex="0047"/>
  <outline>
    <contour>
      <point x="385" y="766" type="move" name="top"/>
    </contour>
    <contour>
      <point x="425" y="731" type="curve" smooth="yes"/>
      <point x="268" y="731"/>
      <point x="33" y="471"/>
      <point x="33" y="296" type="curve" smooth="yes"/>
      <point x="33" y="88"/>
      <point x="160" y="-10"/>
      <point x="421" y="-10" type="curve" smooth="yes"/>
      <point x="457" y="-10"/>
      <point x="487" y="6"/>
      <point x="487" y="33" type="curve" smooth="yes"/>
      <point x="487" y="55"/>
      <point x="470" y="100"/>
      <point x="443" y="100" type="curve" smooth="yes"/>
      <point x="426" y="100"/>
      <point x="420" y="78"/>
      <point x="399" y="78" type="curve" smooth="yes"/>
      <point x="222" y="78"/>
      <point x="128" y="143"/>
      <point x="128" y="279" type="curve" smooth="yes"/>
      <point x="128" y="345"/>
      <point x="180" y="460"/>
      <point x="237" y="517" type="curve" smooth="yes"/>
      <point x="287" y="566"/>
      <point x="361" y="631"/>
      <point x="414" y="631" type="curve" smooth="yes"/>
      <point x="433" y="631"/>
      <point x="447" y="613"/>
      <point x="465" y="613" type="curve" smooth="yes"/>
      <point x="479" y="614"/>
      <point x="513" y="630"/>
      <point x="513" y="661" type="curve" smooth="yes"/>
      <point x="513" y="691"/>
      <point x="472" y="731"/>
    </contour>
    <contour>
      <point x="601" y="102" type="curve" smooth="yes"/>
      <point x="601" y="154"/>
      <point x="596" y="198"/>
      <point x="596" y="243" type="curve" smooth="yes"/>
      <point x="596" y="321"/>
      <point x="557" y="390"/>
      <point x="480" y="390" type="curve" smooth="yes"/>
      <point x="417" y="390"/>
      <point x="385" y="395"/>
      <point x="357" y="400" type="curve" smooth="yes"/>
      <point x="334" y="404"/>
      <point x="318" y="406"/>
      <point x="296" y="406" type="curve" smooth="yes"/>
      <point x="251" y="406"/>
      <point x="203" y="380"/>
      <point x="203" y="350" type="curve" smooth="yes"/>
      <point x="203" y="321"/>
      <point x="224" y="290"/>
      <point x="249" y="290" type="curve" smooth="yes"/>
      <point x="265" y="290"/>
      <point x="277" y="295"/>
      <point x="288" y="300" type="curve" smooth="yes"/>
      <point x="307" y="310"/>
      <point x="451" y="316"/>
      <point x="474" y="296" type="curve"/>
      <point x="493" y="279"/>
      <point x="511" y="263"/>
      <point x="511" y="186" type="curve" smooth="yes"/>
      <point x="511" y="141"/>
      <point x="498" y="102"/>
      <point x="498" y="61" type="curve" smooth="yes"/>
      <point x="498" y="29"/>
      <point x="529" y="8"/>
      <point x="562" y="8" type="curve" smooth="yes"/>
      <point x="600" y="8"/>
      <point x="601" y="66"/>
    </contour>
  </outline>
</glyph>
<glyph name="H" format="1">
  <advance width="634"/>
  <unicode hex="0048"/>
  <outline>
    <contour>
      <point x="293" y="764" type="move" name="top"/>
    </contour>
    <contour>
      <point x="470" y="734" type="curve" smooth="yes"/>
      <point x="440" y="734"/>
      <point x="421" y="716"/>
      <point x="421" y="686" type="curve" smooth="yes"/>
      <point x="421" y="670"/>
      <point x="427" y="653"/>
      <point x="433" y="641" type="curve" smooth="yes"/>
      <point x="453" y="605"/>
      <point x="467" y="549"/>
      <point x="467" y="426" type="curve" smooth="yes"/>
      <point x="467" y="414"/>
      <point x="467" y="397"/>
      <point x="466" y="374" type="curve"/>
      <point x="416" y="371"/>
      <point x="369" y="368"/>
      <point x="316" y="368" type="curve" smooth="yes"/>
      <point x="260" y="368"/>
      <point x="219" y="368"/>
      <point x="170" y="369" type="curve"/>
      <point x="172" y="459"/>
      <point x="175" y="541"/>
      <point x="179" y="571" type="curve" smooth="yes"/>
      <point x="181" y="591"/>
      <point x="191" y="606"/>
      <point x="191" y="623" type="curve" smooth="yes"/>
      <point x="191" y="640"/>
      <point x="171" y="712"/>
      <point x="124" y="712" type="curve" smooth="yes"/>
      <point x="102" y="712"/>
      <point x="67" y="675"/>
      <point x="67" y="657" type="curve" smooth="yes"/>
      <point x="67" y="651"/>
      <point x="68" y="630"/>
      <point x="71" y="607" type="curve"/>
      <point x="76" y="563"/>
      <point x="82" y="505"/>
      <point x="82" y="480" type="curve" smooth="yes"/>
      <point x="82" y="462"/>
      <point x="82" y="411"/>
      <point x="79" y="349" type="curve"/>
      <point x="67" y="340"/>
      <point x="59" y="325"/>
      <point x="59" y="311" type="curve" smooth="yes"/>
      <point x="59" y="303"/>
      <point x="64" y="291"/>
      <point x="77" y="284" type="curve"/>
      <point x="76" y="234"/>
      <point x="78" y="180"/>
      <point x="70" y="129" type="curve"/>
      <point x="63" y="114"/>
      <point x="47" y="98"/>
      <point x="47" y="80" type="curve" smooth="yes"/>
      <point x="47" y="64"/>
      <point x="76" y="13"/>
      <point x="106" y="13" type="curve" smooth="yes"/>
      <point x="146" y="13"/>
      <point x="167" y="65"/>
      <point x="167" y="103" type="curve" smooth="yes"/>
      <point x="167" y="115"/>
      <point x="167" y="155"/>
      <point x="169" y="276" type="curve"/>
      <point x="219" y="280"/>
      <point x="266" y="285"/>
      <point x="316" y="285" type="curve" smooth="yes"/>
      <point x="375" y="285"/>
      <point x="416" y="284"/>
      <point x="465" y="282" type="curve"/>
      <point x="463" y="210"/>
      <point x="463" y="137"/>
      <point x="463" y="63" type="curve" smooth="yes"/>
      <point x="463" y="25"/>
      <point x="487" y="-2"/>
      <point x="520" y="-2" type="curve" smooth="yes"/>
      <point x="538" y="-2"/>
      <point x="563" y="5"/>
      <point x="563" y="67" type="curve" smooth="yes"/>
      <point x="563" y="76"/>
      <point x="561" y="163"/>
      <point x="561" y="229" type="curve" smooth="yes"/>
      <point x="561" y="264"/>
      <point x="561" y="287"/>
      <point x="561" y="303" type="curve"/>
      <point x="567" y="311"/>
      <point x="569" y="319"/>
      <point x="569" y="330" type="curve" smooth="yes"/>
      <point x="569" y="341"/>
      <point x="566" y="350"/>
      <point x="560" y="359" type="curve"/>
      <point x="560" y="500" type="line" smooth="yes"/>
      <point x="560" y="648"/>
      <point x="521" y="734"/>
    </contour>
  </outline>
</glyph>
<glyph name="I" format="1">
  <advance width="256"/>
  <unicode hex="0049"/>
  <outline>
    <contour>
      <point x="81" y="767" type="move" name="top"/>
    </contour>
    <contour>
      <point x="94" y="730" type="curve" smooth="yes"/>
      <point x="70" y="730"/>
      <point x="46" y="701"/>
      <point x="46" y="677" type="curve" smooth="yes"/>
      <point x="46" y="658"/>
      <point x="52" y="627"/>
      <point x="59" y="586" type="curve" smooth="yes"/>
      <point x="74" y="493"/>
      <point x="88" y="368"/>
      <point x="88" y="240" type="curve" smooth="yes"/>
      <point x="88" y="152"/>
      <point x="82" y="101"/>
      <point x="76" y="84" type="curve" smooth="yes"/>
      <point x="73" y="76"/>
      <point x="73" y="69"/>
      <point x="73" y="58" type="curve" smooth="yes"/>
      <point x="73" y="36"/>
      <point x="102" y="-9"/>
      <point x="138" y="-9" type="curve" smooth="yes"/>
      <point x="170" y="-9"/>
      <point x="185" y="36"/>
      <point x="185" y="74" type="curve" smooth="yes"/>
      <point x="185" y="94"/>
      <point x="180" y="201"/>
      <point x="176" y="291" type="curve" smooth="yes"/>
      <point x="174" y="346"/>
      <point x="174" y="366"/>
      <point x="173" y="381" type="curve" smooth="yes"/>
      <point x="169" y="508"/>
      <point x="164" y="602"/>
      <point x="155" y="681" type="curve" smooth="yes"/>
      <point x="152" y="709"/>
      <point x="120" y="730"/>
    </contour>
  </outline>
</glyph>
<glyph name="J" format="1">
  <advance width="604"/>
  <unicode hex="004A"/>
  <outline>
    <contour>
      <point x="361" y="752" type="move" name="top"/>
    </contour>
    <contour>
      <point x="130" y="726" type="curve" smooth="yes"/>
      <point x="106" y="726"/>
      <point x="88" y="697"/>
      <point x="88" y="670" type="curve" smooth="yes"/>
      <point x="88" y="644"/>
      <point x="125" y="614"/>
      <point x="150" y="614" type="curve" smooth="yes"/>
      <point x="167" y="614"/>
      <point x="181" y="619"/>
      <point x="196" y="624" type="curve" smooth="yes"/>
      <point x="234" y="636"/>
      <point x="272" y="637"/>
      <point x="312" y="635" type="curve"/>
      <point x="315" y="615"/>
      <point x="321" y="591"/>
      <point x="323" y="585" type="curve"/>
      <point x="346" y="455"/>
      <point x="345" y="285"/>
      <point x="345" y="211" type="curve" smooth="yes"/>
      <point x="345" y="122"/>
      <point x="324" y="50"/>
      <point x="236" y="50" type="curve" smooth="yes"/>
      <point x="199" y="50"/>
      <point x="154" y="65"/>
      <point x="94" y="95" type="curve" smooth="yes"/>
      <point x="76" y="104"/>
      <point x="60" y="121"/>
      <point x="39" y="121" type="curve" smooth="yes"/>
      <point x="12" y="121"/>
      <point x="1" y="87"/>
      <point x="1" y="58" type="curve" smooth="yes"/>
      <point x="1" y="35"/>
      <point x="17" y="-5"/>
      <point x="59" y="-5" type="curve" smooth="yes"/>
      <point x="124" y="-5"/>
      <point x="183" y="-32"/>
      <point x="246" y="-32" type="curve" smooth="yes"/>
      <point x="285" y="-32"/>
      <point x="337" y="-19"/>
      <point x="360" y="-1" type="curve" smooth="yes"/>
      <point x="428" y="51"/>
      <point x="440" y="84"/>
      <point x="440" y="173" type="curve" smooth="yes"/>
      <point x="440" y="181"/>
      <point x="438" y="203"/>
      <point x="435" y="258" type="curve" smooth="yes"/>
      <point x="432" y="297"/>
      <point x="422" y="438"/>
      <point x="422" y="534" type="curve" smooth="yes"/>
      <point x="422" y="569"/>
      <point x="423" y="586"/>
      <point x="426" y="600" type="curve" smooth="yes"/>
      <point x="427" y="609"/>
      <point x="429" y="618"/>
      <point x="428" y="634" type="curve"/>
      <point x="449" y="633"/>
      <point x="460" y="632"/>
      <point x="474" y="632" type="curve" smooth="yes"/>
      <point x="511" y="631"/>
      <point x="539" y="629"/>
      <point x="573" y="629" type="curve" smooth="yes"/>
      <point x="597" y="629"/>
      <point x="607" y="653"/>
      <point x="607" y="671" type="curve" smooth="yes"/>
      <point x="607" y="690"/>
      <point x="586" y="724"/>
      <point x="542" y="724" type="curve" smooth="yes"/>
      <point x="483" y="724"/>
      <point x="431" y="717"/>
      <point x="379" y="717" type="curve" smooth="yes"/>
      <point x="329" y="717"/>
      <point x="287" y="718"/>
      <point x="241" y="722" type="curve"/>
      <point x="201" y="724"/>
      <point x="165" y="726"/>
    </contour>
  </outline>
</glyph>
<glyph name="L" format="1">
  <advance width="493"/>
  <unicode hex="004C"/>
  <outline>
    <contour>
      <point x="160" y="766" type="move" name="top"/>
    </contour>
    <contour>
      <point x="151" y="731" type="curve" smooth="yes"/>
      <point x="123" y="731"/>
      <point x="104" y="696"/>
      <point x="104" y="669" type="curve" smooth="yes"/>
      <point x="104" y="638"/>
      <point x="112" y="611"/>
      <point x="112" y="584" type="curve" smooth="yes"/>
      <point x="112" y="538"/>
      <point x="99" y="445"/>
      <point x="84" y="345" type="curve" smooth="yes"/>
      <point x="67" y="234"/>
      <point x="50" y="128"/>
      <point x="50" y="69" type="curve" smooth="yes"/>
      <point x="50" y="11"/>
      <point x="87" y="-16"/>
      <point x="106" y="-16" type="curve" smooth="yes"/>
      <point x="119" y="-16"/>
      <point x="128" y="-15"/>
      <point x="143" y="-12" type="curve" smooth="yes"/>
      <point x="168" y="-7"/>
      <point x="214" y="0"/>
      <point x="381" y="0" type="curve" smooth="yes"/>
      <point x="402" y="0"/>
      <point x="420" y="-12"/>
      <point x="439" y="-12" type="curve" smooth="yes"/>
      <point x="465" y="-12"/>
      <point x="497" y="6"/>
      <point x="497" y="29" type="curve" smooth="yes"/>
      <point x="497" y="54"/>
      <point x="478" y="92"/>
      <point x="437" y="92" type="curve" smooth="yes"/>
      <point x="394" y="92"/>
      <point x="357" y="83"/>
      <point x="320" y="83" type="curve" smooth="yes"/>
      <point x="265" y="83"/>
      <point x="232" y="87"/>
      <point x="183" y="87" type="curve" smooth="yes"/>
      <point x="165" y="87"/>
      <point x="149" y="100"/>
      <point x="149" y="122" type="curve" smooth="yes"/>
      <point x="149" y="203"/>
      <point x="168" y="300"/>
      <point x="188" y="402" type="curve" smooth="yes"/>
      <point x="206" y="495"/>
      <point x="223" y="583"/>
      <point x="223" y="649" type="curve" smooth="yes"/>
      <point x="223" y="686"/>
      <point x="195" y="731"/>
    </contour>
  </outline>
</glyph>
<glyph name="M" format="1">
  <advance width="906"/>
  <unicode hex="004D"/>
  <outline>
    <contour>
      <point x="134" y="721" type="curve" smooth="yes"/>
      <point x="114" y="721"/>
      <point x="74" y="671"/>
      <point x="74" y="643" type="curve" smooth="yes"/>
      <point x="74" y="634"/>
      <point x="76" y="618"/>
      <point x="78" y="603" type="curve" smooth="yes"/>
      <point x="82" y="569"/>
      <point x="81" y="512"/>
      <point x="81" y="337" type="curve" smooth="yes"/>
      <point x="81" y="282"/>
      <point x="77" y="216"/>
      <point x="73" y="155" type="curve"/>
      <point x="71" y="124"/>
      <point x="69" y="92"/>
      <point x="69" y="51" type="curve" smooth="yes"/>
      <point x="69" y="28"/>
      <point x="99" y="-2"/>
      <point x="132" y="-2" type="curve" smooth="yes"/>
      <point x="144" y="-2"/>
      <point x="175" y="2"/>
      <point x="175" y="66" type="curve" smooth="yes"/>
      <point x="175" y="116"/>
      <point x="168" y="158"/>
      <point x="168" y="200" type="curve" smooth="yes"/>
      <point x="168" y="285"/>
      <point x="170" y="355"/>
      <point x="174" y="429" type="curve" smooth="yes"/>
      <point x="175" y="473"/>
      <point x="175" y="510"/>
      <point x="178" y="580" type="curve"/>
      <point x="230" y="517"/>
      <point x="268" y="457"/>
      <point x="301" y="401" type="curve" smooth="yes"/>
      <point x="406" y="218"/>
      <point x="441" y="194"/>
      <point x="461" y="194" type="curve" smooth="yes"/>
      <point x="518" y="194"/>
      <point x="536" y="259"/>
      <point x="557" y="298" type="curve" smooth="yes"/>
      <point x="600" y="377"/>
      <point x="644" y="459"/>
      <point x="711" y="579" type="curve"/>
      <point x="725" y="470"/>
      <point x="739" y="372"/>
      <point x="739" y="284" type="curve" smooth="yes"/>
      <point x="739" y="177"/>
      <point x="737" y="126"/>
      <point x="737" y="46" type="curve" smooth="yes"/>
      <point x="737" y="22"/>
      <point x="754" y="-17"/>
      <point x="794" y="-17" type="curve" smooth="yes"/>
      <point x="820" y="-17"/>
      <point x="840" y="14"/>
      <point x="840" y="41" type="curve" smooth="yes"/>
      <point x="840" y="348"/>
      <point x="804" y="453"/>
      <point x="804" y="599" type="curve" smooth="yes"/>
      <point x="804" y="615"/>
      <point x="804" y="639"/>
      <point x="807" y="664" type="curve"/>
      <point x="805" y="700"/>
      <point x="757" y="730"/>
      <point x="723" y="730" type="curve" smooth="yes"/>
      <point x="689" y="730"/>
      <point x="660" y="684"/>
      <point x="648" y="656" type="curve" smooth="yes"/>
      <point x="609" y="565"/>
      <point x="541" y="448"/>
      <point x="463" y="324" type="curve"/>
      <point x="400" y="414"/>
      <point x="353" y="490"/>
      <point x="312" y="556" type="curve"/>
      <point x="266" y="630"/>
      <point x="216" y="721"/>
    </contour>
  </outline>
</glyph>
<glyph name="N" format="1">
  <advance width="731"/>
  <unicode hex="004E"/>
  <outline>
    <contour>
      <point x="349" y="762" type="move" name="top"/>
    </contour>
    <contour>
      <point x="180" y="722" type="curve" smooth="yes"/>
      <point x="145" y="722"/>
      <point x="101" y="688"/>
      <point x="101" y="648" type="curve" smooth="yes"/>
      <point x="101" y="500"/>
      <point x="85" y="376"/>
      <point x="75" y="245" type="curve" smooth="yes"/>
      <point x="70" y="180"/>
      <point x="57" y="121"/>
      <point x="57" y="63" type="curve" smooth="yes"/>
      <point x="57" y="24"/>
      <point x="92" y="-6"/>
      <point x="121" y="-6" type="curve" smooth="yes"/>
      <point x="152" y="-6"/>
      <point x="174" y="35"/>
      <point x="174" y="63" type="curve" smooth="yes"/>
      <point x="174" y="86"/>
      <point x="167" y="103"/>
      <point x="167" y="122" type="curve" smooth="yes"/>
      <point x="167" y="299"/>
      <point x="176" y="455"/>
      <point x="206" y="599" type="curve"/>
      <point x="325" y="458"/>
      <point x="425" y="270"/>
      <point x="521" y="101" type="curve"/>
      <point x="549" y="49"/>
      <point x="574" y="-4"/>
      <point x="601" y="-4" type="curve" smooth="yes"/>
      <point x="641" y="-4"/>
      <point x="668" y="38"/>
      <point x="668" y="60" type="curve" smooth="yes"/>
      <point x="668" y="99"/>
      <point x="653" y="133"/>
      <point x="653" y="168" type="curve" smooth="yes"/>
      <point x="653" y="347"/>
      <point x="646" y="511"/>
      <point x="642" y="599" type="curve" smooth="yes"/>
      <point x="640" y="630"/>
      <point x="639" y="650"/>
      <point x="639" y="670" type="curve" smooth="yes"/>
      <point x="639" y="701"/>
      <point x="605" y="730"/>
      <point x="585" y="730" type="curve" smooth="yes"/>
      <point x="567" y="730"/>
      <point x="529" y="713"/>
      <point x="529" y="678" type="curve" smooth="yes"/>
      <point x="529" y="657"/>
      <point x="534" y="636"/>
      <point x="539" y="618" type="curve"/>
      <point x="550" y="510"/>
      <point x="557" y="341"/>
      <point x="562" y="205" type="curve"/>
      <point x="528" y="259"/>
      <point x="510" y="294"/>
      <point x="490" y="329" type="curve" smooth="yes"/>
      <point x="401" y="486"/>
      <point x="268" y="722"/>
    </contour>
  </outline>
</glyph>
<glyph name="O" format="1">
  <advance width="619"/>
  <unicode hex="004F"/>
  <outline>
    <contour>
      <point x="275" y="766" type="move" name="top"/>
    </contour>
    <contour>
      <point x="33" y="344" type="curve" smooth="yes"/>
      <point x="33" y="208"/>
      <point x="109" y="-9"/>
      <point x="315" y="-9" type="curve" smooth="yes"/>
      <point x="466" y="-9"/>
      <point x="586" y="136"/>
      <point x="586" y="320" type="curve" smooth="yes"/>
      <point x="586" y="480"/>
      <point x="536" y="598"/>
      <point x="435" y="674" type="curve" smooth="yes"/>
      <point x="387" y="711"/>
      <point x="330" y="731"/>
      <point x="280" y="731" type="curve" smooth="yes"/>
      <point x="248" y="731"/>
      <point x="191" y="719"/>
      <point x="169" y="693" type="curve"/>
      <point x="111" y="685"/>
      <point x="33" y="514"/>
    </contour>
    <contour>
      <point x="270" y="645" type="curve" smooth="yes"/>
      <point x="316" y="645"/>
      <point x="364" y="624"/>
      <point x="395" y="597" type="curve" smooth="yes"/>
      <point x="468" y="532"/>
      <point x="496" y="404"/>
      <point x="496" y="337" type="curve" smooth="yes"/>
      <point x="496" y="187"/>
      <point x="419" y="80"/>
      <point x="307" y="80" type="curve" smooth="yes"/>
      <point x="177" y="80"/>
      <point x="129" y="232"/>
      <point x="129" y="327" type="curve" smooth="yes"/>
      <point x="129" y="441"/>
      <point x="150" y="526"/>
      <point x="190" y="577" type="curve"/>
      <point x="204" y="592"/>
      <point x="233" y="598"/>
      <point x="233" y="622" type="curve" smooth="yes"/>
      <point x="233" y="623"/>
      <point x="233" y="630"/>
      <point x="229" y="638" type="curve"/>
      <point x="244" y="642"/>
      <point x="260" y="645"/>
    </contour>
  </outline>
</glyph>
<glyph name="P" format="1">
  <advance width="574"/>
  <unicode hex="0050"/>
  <outline>
    <contour>
      <point x="222" y="727" type="curve" smooth="yes"/>
      <point x="178" y="727"/>
      <point x="70" y="703"/>
      <point x="70" y="657" type="curve" smooth="yes"/>
      <point x="70" y="646"/>
      <point x="75" y="627"/>
      <point x="90" y="618" type="curve"/>
      <point x="71" y="605"/>
      <point x="64" y="584"/>
      <point x="64" y="575" type="curve" smooth="yes"/>
      <point x="64" y="550"/>
      <point x="81" y="527"/>
      <point x="83" y="495" type="curve" smooth="yes"/>
      <point x="83" y="482"/>
      <point x="82" y="426"/>
      <point x="80" y="359" type="curve"/>
      <point x="64" y="351"/>
      <point x="56" y="336"/>
      <point x="56" y="326" type="curve" smooth="yes"/>
      <point x="56" y="309"/>
      <point x="62" y="293"/>
      <point x="77" y="280" type="curve"/>
      <point x="73" y="200"/>
      <point x="69" y="146"/>
      <point x="66" y="117" type="curve" smooth="yes"/>
      <point x="62" y="90"/>
      <point x="32" y="73"/>
      <point x="32" y="45" type="curve" smooth="yes"/>
      <point x="32" y="9"/>
      <point x="69" y="-15"/>
      <point x="103" y="-15" type="curve" smooth="yes"/>
      <point x="148" y="-15"/>
      <point x="157" y="59"/>
      <point x="160" y="86" type="curve" smooth="yes"/>
      <point x="167" y="148"/>
      <point x="165" y="219"/>
      <point x="168" y="281" type="curve"/>
      <point x="177" y="285"/>
      <point x="184" y="287"/>
      <point x="191" y="287" type="curve" smooth="yes"/>
      <point x="248" y="287"/>
      <point x="560" y="303"/>
      <point x="560" y="503" type="curve" smooth="yes"/>
      <point x="560" y="568"/>
      <point x="461" y="727"/>
    </contour>
    <contour>
      <point x="179" y="628" type="curve"/>
      <point x="194" y="636"/>
      <point x="218" y="639"/>
      <point x="238" y="639" type="curve" smooth="yes"/>
      <point x="325" y="639"/>
      <point x="465" y="562"/>
      <point x="465" y="497" type="curve" smooth="yes"/>
      <point x="465" y="428"/>
      <point x="357" y="374"/>
      <point x="170" y="366" type="curve" smooth="yes"/>
      <point x="173" y="446"/>
      <point x="174" y="505"/>
      <point x="174" y="521" type="curve" smooth="yes"/>
      <point x="174" y="543"/>
      <point x="182" y="559"/>
      <point x="182" y="578" type="curve" smooth="yes"/>
      <point x="182" y="587"/>
      <point x="175" y="602"/>
      <point x="162" y="609" type="curve"/>
      <point x="172" y="616"/>
      <point x="175" y="625"/>
    </contour>
  </outline>
</glyph>
<glyph name="Q" format="1">
  <advance width="604"/>
  <unicode hex="0051"/>
  <outline>
    <contour>
      <point x="532" y="-61" type="curve" smooth="yes"/>
      <point x="532" y="-32"/>
      <point x="475" y="23"/>
      <point x="435" y="66" type="curve"/>
      <point x="524" y="144"/>
      <point x="574" y="244"/>
      <point x="574" y="300" type="curve" smooth="yes"/>
      <point x="574" y="530"/>
      <point x="441" y="731"/>
      <point x="391" y="731" type="curve" smooth="yes"/>
      <point x="350" y="731"/>
      <point x="219" y="675"/>
      <point x="202" y="624" type="curve"/>
      <point x="99" y="605"/>
      <point x="33" y="364"/>
      <point x="33" y="230" type="curve" smooth="yes"/>
      <point x="33" y="85"/>
      <point x="110" y="-21"/>
      <point x="213" y="-21" type="curve" smooth="yes"/>
      <point x="263" y="-21"/>
      <point x="312" y="-9"/>
      <point x="365" y="18" type="curve"/>
      <point x="398" y="-18"/>
      <point x="424" y="-51"/>
      <point x="438" y="-74" type="curve"/>
      <point x="441" y="-94"/>
      <point x="452" y="-126"/>
      <point x="476" y="-126" type="curve" smooth="yes"/>
      <point x="502" y="-126"/>
      <point x="532" y="-92"/>
    </contour>
    <contour>
      <point x="270" y="562" type="line"/>
      <point x="303" y="562"/>
      <point x="323" y="593"/>
      <point x="336" y="610" type="curve" smooth="yes"/>
      <point x="349" y="626"/>
      <point x="358" y="635"/>
      <point x="373" y="635" type="curve" smooth="yes"/>
      <point x="426" y="635"/>
      <point x="489" y="440"/>
      <point x="489" y="336" type="curve" smooth="yes"/>
      <point x="489" y="262"/>
      <point x="449" y="187"/>
      <point x="377" y="130" type="curve"/>
      <point x="336" y="177"/>
      <point x="324" y="203"/>
      <point x="324" y="224" type="curve" smooth="yes"/>
      <point x="324" y="229"/>
      <point x="326" y="234"/>
      <point x="328" y="244" type="curve" smooth="yes"/>
      <point x="333" y="272"/>
      <point x="304" y="279"/>
      <point x="282" y="279" type="curve" smooth="yes"/>
      <point x="257" y="279"/>
      <point x="236" y="240"/>
      <point x="236" y="209" type="curve" smooth="yes"/>
      <point x="236" y="178"/>
      <point x="264" y="136"/>
      <point x="303" y="87" type="curve"/>
      <point x="270" y="75"/>
      <point x="245" y="71"/>
      <point x="221" y="71" type="curve" smooth="yes"/>
      <point x="172" y="71"/>
      <point x="127" y="105"/>
      <point x="127" y="238" type="curve" smooth="yes"/>
      <point x="127" y="335"/>
      <point x="179" y="534"/>
      <point x="246" y="552" type="curve" smooth="yes"/>
      <point x="254" y="554"/>
      <point x="258" y="555"/>
      <point x="263" y="562" type="curve"/>
    </contour>
  </outline>
</glyph>
<glyph name="R" format="1">
  <advance width="602"/>
  <unicode hex="0052"/>
  <outline>
    <contour>
      <point x="284" y="759" type="move" name="top"/>
    </contour>
    <contour>
      <point x="103" y="688" type="curve" smooth="yes"/>
      <point x="87" y="687"/>
      <point x="55" y="666"/>
      <point x="55" y="641" type="curve" smooth="yes"/>
      <point x="55" y="620"/>
      <point x="67" y="593"/>
      <point x="74" y="575" type="curve" smooth="yes"/>
      <point x="84" y="554"/>
      <point x="91" y="525"/>
      <point x="91" y="492" type="curve" smooth="yes"/>
      <point x="91" y="454"/>
      <point x="91" y="413"/>
      <point x="89" y="371" type="curve"/>
      <point x="68" y="355"/>
      <point x="59" y="337"/>
      <point x="59" y="313" type="curve" smooth="yes"/>
      <point x="59" y="299"/>
      <point x="66" y="282"/>
      <point x="85" y="262" type="curve"/>
      <point x="81" y="204"/>
      <point x="74" y="159"/>
      <point x="66" y="127" type="curve"/>
      <point x="58" y="111"/>
      <point x="52" y="88"/>
      <point x="52" y="70" type="curve" smooth="yes"/>
      <point x="52" y="17"/>
      <point x="93" y="-5"/>
      <point x="117" y="-5" type="curve" smooth="yes"/>
      <point x="139" y="-5"/>
      <point x="159" y="27"/>
      <point x="159" y="75" type="curve"/>
      <point x="159" y="102"/>
      <point x="160" y="122"/>
      <point x="161" y="145" type="curve" smooth="yes"/>
      <point x="163" y="159"/>
      <point x="164" y="173"/>
      <point x="167" y="207" type="curve"/>
      <point x="217" y="176"/>
      <point x="252" y="155"/>
      <point x="286" y="132" type="curve"/>
      <point x="343" y="99"/>
      <point x="387" y="71"/>
      <point x="430" y="43" type="curve" smooth="yes"/>
      <point x="475" y="13"/>
      <point x="515" y="-13"/>
      <point x="556" y="-13" type="curve" smooth="yes"/>
      <point x="583" y="-13"/>
      <point x="610" y="21"/>
      <point x="610" y="50" type="curve" smooth="yes"/>
      <point x="610" y="78"/>
      <point x="556" y="90"/>
      <point x="533" y="95" type="curve" smooth="yes"/>
      <point x="393" y="149"/>
      <point x="269" y="234"/>
      <point x="184" y="298" type="curve"/>
      <point x="184" y="302"/>
      <point x="184" y="301"/>
      <point x="184" y="305" type="curve"/>
      <point x="417" y="326"/>
      <point x="549" y="411"/>
      <point x="549" y="543" type="curve" smooth="yes"/>
      <point x="549" y="652"/>
      <point x="400" y="728"/>
      <point x="174" y="728" type="curve" smooth="yes"/>
      <point x="152" y="728"/>
      <point x="125" y="712"/>
      <point x="114" y="686" type="curve"/>
      <point x="110" y="688"/>
      <point x="106" y="688"/>
    </contour>
    <contour>
      <point x="241" y="639" type="curve" smooth="yes"/>
      <point x="274" y="639"/>
      <point x="449" y="622"/>
      <point x="449" y="530" type="curve" smooth="yes"/>
      <point x="449" y="425"/>
      <point x="297" y="397"/>
      <point x="180" y="387" type="curve" smooth="yes"/>
      <point x="182" y="421"/>
      <point x="183" y="450"/>
      <point x="183" y="480" type="curve" smooth="yes"/>
      <point x="183" y="508"/>
      <point x="181" y="539"/>
      <point x="179" y="562" type="curve" smooth="yes"/>
      <point x="177" y="576"/>
      <point x="176" y="591"/>
      <point x="174" y="613" type="curve"/>
      <point x="203" y="617"/>
      <point x="220" y="639"/>
    </contour>
  </outline>
</glyph>
<glyph name="S" format="1">
  <advance width="555"/>
  <unicode hex="0053"/>
  <outline>
    <contour>
      <point x="331" y="776" type="move" name="top"/>
    </contour>
    <contour>
      <point x="328" y="741" type="curve" smooth="yes"/>
      <point x="225" y="741"/>
      <point x="89" y="589"/>
      <point x="89" y="475" type="curve" smooth="yes"/>
      <point x="89" y="436"/>
      <point x="106" y="358"/>
      <point x="181" y="352" type="curve" smooth="yes"/>
      <point x="322" y="340"/>
      <point x="428" y="295"/>
      <point x="428" y="192" type="curve" smooth="yes"/>
      <point x="428" y="98"/>
      <point x="326" y="69"/>
      <point x="270" y="69" type="curve" smooth="yes"/>
      <point x="164" y="69"/>
      <point x="131" y="161"/>
      <point x="130" y="178" type="curve" smooth="yes"/>
      <point x="130" y="199"/>
      <point x="144" y="217"/>
      <point x="144" y="239" type="curve" smooth="yes"/>
      <point x="144" y="265"/>
      <point x="118" y="299"/>
      <point x="96" y="299" type="curve" smooth="yes"/>
      <point x="53" y="299"/>
      <point x="29" y="261"/>
      <point x="29" y="224" type="curve" smooth="yes"/>
      <point x="29" y="86"/>
      <point x="135" y="-15"/>
      <point x="276" y="-15" type="curve" smooth="yes"/>
      <point x="436" y="-15"/>
      <point x="524" y="105"/>
      <point x="524" y="187" type="curve" smooth="yes"/>
      <point x="524" y="372"/>
      <point x="354" y="408"/>
      <point x="273" y="428" type="curve" smooth="yes"/>
      <point x="247" y="434"/>
      <point x="185" y="440"/>
      <point x="185" y="479" type="curve" smooth="yes"/>
      <point x="185" y="557"/>
      <point x="285" y="652"/>
      <point x="339" y="652" type="curve" smooth="yes"/>
      <point x="377" y="652"/>
      <point x="401" y="634"/>
      <point x="416" y="615" type="curve" smooth="yes"/>
      <point x="429" y="599"/>
      <point x="439" y="582"/>
      <point x="465" y="582" type="curve" smooth="yes"/>
      <point x="487" y="582"/>
      <point x="512" y="609"/>
      <point x="512" y="650" type="curve" smooth="yes"/>
      <point x="512" y="683"/>
      <point x="439" y="741"/>
    </contour>
  </outline>
</glyph>
<glyph name="T" format="1">
  <advance width="559"/>
  <unicode hex="0054"/>
  <outline>
    <contour>
      <point x="279" y="752" type="move" name="top"/>
    </contour>
    <contour>
      <point x="47" y="725" type="curve" smooth="yes"/>
      <point x="23" y="725"/>
      <point x="-20" y="704"/>
      <point x="-20" y="664" type="curve" smooth="yes"/>
      <point x="-20" y="645"/>
      <point x="7" y="614"/>
      <point x="39" y="614" type="curve" smooth="yes"/>
      <point x="76" y="614"/>
      <point x="109" y="623"/>
      <point x="142" y="628" type="curve" smooth="yes"/>
      <point x="155" y="629"/>
      <point x="187" y="633"/>
      <point x="233" y="634" type="curve"/>
      <point x="233" y="603"/>
      <point x="251" y="576"/>
      <point x="251" y="542" type="curve" smooth="yes"/>
      <point x="251" y="376"/>
      <point x="228" y="211"/>
      <point x="217" y="119" type="curve" smooth="yes"/>
      <point x="211" y="74"/>
      <point x="210" y="61"/>
      <point x="210" y="55" type="curve" smooth="yes"/>
      <point x="210" y="34"/>
      <point x="231" y="-7"/>
      <point x="258" y="-7" type="curve" smooth="yes"/>
      <point x="284" y="-7"/>
      <point x="335" y="37"/>
      <point x="335" y="72" type="curve" smooth="yes"/>
      <point x="335" y="81"/>
      <point x="330" y="92"/>
      <point x="317" y="107" type="curve"/>
      <point x="317" y="119"/>
      <point x="319" y="146"/>
      <point x="325" y="242" type="curve" smooth="yes"/>
      <point x="331" y="329"/>
      <point x="342" y="507"/>
      <point x="342" y="544" type="curve" smooth="yes"/>
      <point x="342" y="577"/>
      <point x="340" y="605"/>
      <point x="333" y="636" type="curve"/>
      <point x="395" y="634"/>
      <point x="449" y="624"/>
      <point x="503" y="624" type="curve" smooth="yes"/>
      <point x="537" y="624"/>
      <point x="567" y="646"/>
      <point x="567" y="667" type="curve" smooth="yes"/>
      <point x="567" y="701"/>
      <point x="530" y="725"/>
      <point x="498" y="725" type="curve" smooth="yes"/>
      <point x="490" y="725"/>
      <point x="469" y="724"/>
      <point x="420" y="721" type="curve" smooth="yes"/>
      <point x="370" y="718"/>
      <point x="315" y="717"/>
      <point x="290" y="717" type="curve" smooth="yes"/>
      <point x="256" y="717"/>
      <point x="169" y="718"/>
      <point x="124" y="719" type="curve" smooth="yes"/>
      <point x="94" y="720"/>
      <point x="70" y="725"/>
    </contour>
  </outline>
</glyph>
<glyph name="U" format="1">
  <advance width="662"/>
  <unicode hex="0055"/>
  <outline>
    <contour>
      <point x="284" y="763" type="move" name="top"/>
    </contour>
    <contour>
      <point x="112" y="726" type="curve" smooth="yes"/>
      <point x="89" y="726"/>
      <point x="56" y="696"/>
      <point x="56" y="649" type="curve" smooth="yes"/>
      <point x="56" y="621"/>
      <point x="63" y="598"/>
      <point x="63" y="574" type="curve" smooth="yes"/>
      <point x="63" y="542"/>
      <point x="62" y="507"/>
      <point x="61" y="477" type="curve" smooth="yes"/>
      <point x="60" y="446"/>
      <point x="59" y="418"/>
      <point x="59" y="394" type="curve" smooth="yes"/>
      <point x="59" y="187"/>
      <point x="123" y="-13"/>
      <point x="312" y="-13" type="curve" smooth="yes"/>
      <point x="443" y="-13"/>
      <point x="615" y="98"/>
      <point x="615" y="298" type="curve" smooth="yes"/>
      <point x="615" y="473"/>
      <point x="548" y="602"/>
      <point x="520" y="648" type="curve"/>
      <point x="511" y="673"/>
      <point x="489" y="730"/>
      <point x="448" y="730" type="curve" smooth="yes"/>
      <point x="425" y="730"/>
      <point x="394" y="694"/>
      <point x="394" y="668" type="curve" smooth="yes"/>
      <point x="394" y="629"/>
      <point x="440" y="578"/>
      <point x="470" y="557" type="curve"/>
      <point x="506" y="492"/>
      <point x="523" y="407"/>
      <point x="523" y="277" type="curve" smooth="yes"/>
      <point x="523" y="184"/>
      <point x="438" y="82"/>
      <point x="310" y="82" type="curve" smooth="yes"/>
      <point x="205" y="82"/>
      <point x="153" y="222"/>
      <point x="153" y="388" type="curve" smooth="yes"/>
      <point x="153" y="432"/>
      <point x="157" y="563"/>
      <point x="163" y="592" type="curve"/>
      <point x="170" y="604"/>
      <point x="178" y="627"/>
      <point x="178" y="645" type="curve" smooth="yes"/>
      <point x="178" y="673"/>
      <point x="150" y="726"/>
    </contour>
  </outline>
</glyph>
<glyph name="V" format="1">
  <advance width="567"/>
  <unicode hex="0056"/>
  <outline>
    <contour>
      <point x="51" y="703" type="curve" smooth="yes"/>
      <point x="32" y="703"/>
      <point x="-10" y="662"/>
      <point x="-10" y="638" type="curve" smooth="yes"/>
      <point x="-10" y="610"/>
      <point x="9" y="595"/>
      <point x="26" y="585" type="curve" smooth="yes"/>
      <point x="31" y="582"/>
      <point x="37" y="576"/>
      <point x="40" y="571" type="curve" smooth="yes"/>
      <point x="97" y="476"/>
      <point x="207" y="116"/>
      <point x="207" y="70" type="curve" smooth="yes"/>
      <point x="207" y="63"/>
      <point x="200" y="51"/>
      <point x="200" y="44" type="curve" smooth="yes"/>
      <point x="200" y="23"/>
      <point x="234" y="-9"/>
      <point x="254" y="-9" type="curve" smooth="yes"/>
      <point x="277" y="-9"/>
      <point x="311" y="1"/>
      <point x="330" y="61" type="curve" smooth="yes"/>
      <point x="361" y="158"/>
      <point x="401" y="242"/>
      <point x="430" y="330" type="curve" smooth="yes"/>
      <point x="454" y="406"/>
      <point x="482" y="487"/>
      <point x="517" y="585" type="curve" smooth="yes"/>
      <point x="528" y="616"/>
      <point x="551" y="643"/>
      <point x="551" y="677" type="curve" smooth="yes"/>
      <point x="551" y="706"/>
      <point x="522" y="730"/>
      <point x="503" y="730" type="curve" smooth="yes"/>
      <point x="461" y="730"/>
      <point x="435" y="710"/>
      <point x="433" y="690" type="curve" smooth="yes"/>
      <point x="423" y="619"/>
      <point x="357" y="370"/>
      <point x="275" y="167" type="curve"/>
      <point x="206" y="430"/>
      <point x="126" y="703"/>
    </contour>
  </outline>
</glyph>
<glyph name="W" format="1">
  <advance width="873"/>
  <unicode hex="0057"/>
  <outline>
    <contour>
      <point x="424" y="705" type="move" name="top"/>
    </contour>
    <contour>
      <point x="77" y="725" type="curve" smooth="yes"/>
      <point x="50" y="725"/>
      <point x="22" y="680"/>
      <point x="22" y="640" type="curve" smooth="yes"/>
      <point x="22" y="611"/>
      <point x="38" y="579"/>
      <point x="55" y="558" type="curve" smooth="yes"/>
      <point x="76" y="534"/>
      <point x="107" y="324"/>
      <point x="117" y="218" type="curve" smooth="yes"/>
      <point x="122" y="177"/>
      <point x="123" y="137"/>
      <point x="123" y="52" type="curve" smooth="yes"/>
      <point x="123" y="19"/>
      <point x="150" y="-20"/>
      <point x="183" y="-20" type="curve" smooth="yes"/>
      <point x="215" y="-20"/>
      <point x="252" y="11"/>
      <point x="253" y="35" type="curve" smooth="yes"/>
      <point x="259" y="101"/>
      <point x="412" y="394"/>
      <point x="434" y="394" type="curve" smooth="yes"/>
      <point x="449" y="394"/>
      <point x="460" y="347"/>
      <point x="469" y="304" type="curve"/>
      <point x="500" y="180"/>
      <point x="548" y="25"/>
      <point x="661" y="25" type="curve" smooth="yes"/>
      <point x="790" y="25"/>
      <point x="805" y="264"/>
      <point x="805" y="348" type="curve" smooth="yes"/>
      <point x="805" y="396"/>
      <point x="793" y="630"/>
      <point x="781" y="657" type="curve" smooth="yes"/>
      <point x="773" y="679"/>
      <point x="761" y="706"/>
      <point x="724" y="706" type="curve" smooth="yes"/>
      <point x="692" y="706"/>
      <point x="666" y="687"/>
      <point x="666" y="658" type="curve" smooth="yes"/>
      <point x="666" y="639"/>
      <point x="681" y="621"/>
      <point x="688" y="608" type="curve" smooth="yes"/>
      <point x="692" y="599"/>
      <point x="693" y="587"/>
      <point x="697" y="558" type="curve" smooth="yes"/>
      <point x="705" y="496"/>
      <point x="714" y="398"/>
      <point x="714" y="349" type="curve" smooth="yes"/>
      <point x="714" y="198"/>
      <point x="689" y="128"/>
      <point x="658" y="128" type="curve" smooth="yes"/>
      <point x="619" y="128"/>
      <point x="586" y="205"/>
      <point x="570" y="278" type="curve" smooth="yes"/>
      <point x="535" y="432"/>
      <point x="492" y="521"/>
      <point x="447" y="521" type="curve" smooth="yes"/>
      <point x="393" y="521"/>
      <point x="310" y="378"/>
      <point x="277" y="313" type="curve" smooth="yes"/>
      <point x="261" y="280"/>
      <point x="243" y="242"/>
      <point x="212" y="168" type="curve"/>
      <point x="202" y="294"/>
      <point x="173" y="493"/>
      <point x="146" y="600" type="curve" smooth="yes"/>
      <point x="140" y="623"/>
      <point x="146" y="645"/>
      <point x="141" y="667" type="curve"/>
      <point x="136" y="689"/>
      <point x="121" y="725"/>
    </contour>
  </outline>
</glyph>
<glyph name="X" format="1">
  <advance width="573"/>
  <unicode hex="0058"/>
  <outline>
    <contour>
      <point x="101" y="712" type="curve" smooth="yes"/>
      <point x="72" y="712"/>
      <point x="47" y="675"/>
      <point x="47" y="652" type="curve" smooth="yes"/>
      <point x="47" y="608"/>
      <point x="81" y="583"/>
      <point x="102" y="551" type="curve" smooth="yes"/>
      <point x="128" y="511"/>
      <point x="186" y="418"/>
      <point x="221" y="365" type="curve"/>
      <point x="195" y="325"/>
      <point x="169" y="289"/>
      <point x="143" y="251" type="curve" smooth="yes"/>
      <point x="83" y="161"/>
      <point x="29" y="77"/>
      <point x="29" y="52" type="curve" smooth="yes"/>
      <point x="29" y="8"/>
      <point x="64" y="-10"/>
      <point x="86" y="-10" type="curve" smooth="yes"/>
      <point x="109" y="-10"/>
      <point x="132" y="25"/>
      <point x="139" y="66" type="curve" smooth="yes"/>
      <point x="143" y="88"/>
      <point x="218" y="206"/>
      <point x="274" y="293" type="curve"/>
      <point x="295" y="266"/>
      <point x="311" y="246"/>
      <point x="336" y="214" type="curve" smooth="yes"/>
      <point x="403" y="128"/>
      <point x="430" y="91"/>
      <point x="435" y="80" type="curve"/>
      <point x="445" y="52"/>
      <point x="472" y="14"/>
      <point x="509" y="14" type="curve" smooth="yes"/>
      <point x="532" y="14"/>
      <point x="563" y="28"/>
      <point x="563" y="58" type="curve" smooth="yes"/>
      <point x="563" y="107"/>
      <point x="523" y="127"/>
      <point x="492" y="156" type="curve" smooth="yes"/>
      <point x="475" y="173"/>
      <point x="410" y="256"/>
      <point x="327" y="373" type="curve"/>
      <point x="333" y="382"/>
      <point x="347" y="402"/>
      <point x="351" y="408" type="curve" smooth="yes"/>
      <point x="401" y="480"/>
      <point x="439" y="556"/>
      <point x="485" y="614" type="curve" smooth="yes"/>
      <point x="496" y="627"/>
      <point x="521" y="640"/>
      <point x="521" y="662" type="curve" smooth="yes"/>
      <point x="521" y="683"/>
      <point x="507" y="741"/>
      <point x="458" y="741" type="curve" smooth="yes"/>
      <point x="417" y="741"/>
      <point x="384" y="627"/>
      <point x="367" y="595" type="curve" smooth="yes"/>
      <point x="343" y="551"/>
      <point x="315" y="505"/>
      <point x="277" y="448" type="curve"/>
      <point x="214" y="542"/>
      <point x="175" y="615"/>
      <point x="167" y="645" type="curve" smooth="yes"/>
      <point x="159" y="674"/>
      <point x="131" y="712"/>
    </contour>
  </outline>
</glyph>
<glyph name="Y" format="1">
  <advance width="491"/>
  <unicode hex="0059"/>
  <outline>
    <contour>
      <point x="236" y="773" type="move" name="top"/>
    </contour>
    <contour>
      <point x="36" y="737" type="curve" smooth="yes"/>
      <point x="6" y="737"/>
      <point x="-11" y="702"/>
      <point x="-11" y="676" type="curve" smooth="yes"/>
      <point x="-11" y="665"/>
      <point x="2" y="642"/>
      <point x="130" y="461" type="curve" smooth="yes"/>
      <point x="177" y="396"/>
      <point x="205" y="334"/>
      <point x="240" y="299" type="curve"/>
      <point x="192" y="181"/>
      <point x="145" y="71"/>
      <point x="145" y="44" type="curve" smooth="yes"/>
      <point x="145" y="5"/>
      <point x="179" y="-16"/>
      <point x="197" y="-16" type="curve" smooth="yes"/>
      <point x="218" y="-16"/>
      <point x="248" y="-5"/>
      <point x="250" y="33" type="curve" smooth="yes"/>
      <point x="256" y="107"/>
      <point x="278" y="160"/>
      <point x="300" y="212" type="curve" smooth="yes"/>
      <point x="314" y="244"/>
      <point x="321" y="261"/>
      <point x="330" y="282" type="curve"/>
      <point x="345" y="290"/>
      <point x="352" y="304"/>
      <point x="352" y="314" type="curve" smooth="yes"/>
      <point x="352" y="321"/>
      <point x="351" y="326"/>
      <point x="349" y="330" type="curve"/>
      <point x="400" y="453"/>
      <point x="449" y="585"/>
      <point x="453" y="600" type="curve" smooth="yes"/>
      <point x="462" y="630"/>
      <point x="482" y="656"/>
      <point x="482" y="688" type="curve" smooth="yes"/>
      <point x="482" y="714"/>
      <point x="461" y="737"/>
      <point x="429" y="737" type="curve"/>
      <point x="395" y="737"/>
      <point x="371" y="714"/>
      <point x="371" y="689" type="curve" smooth="yes"/>
      <point x="371" y="672"/>
      <point x="370" y="657"/>
      <point x="368" y="644" type="curve" smooth="yes"/>
      <point x="362" y="604"/>
      <point x="328" y="512"/>
      <point x="282" y="401" type="curve"/>
      <point x="207" y="487"/>
      <point x="108" y="639"/>
      <point x="105" y="668" type="curve" smooth="yes"/>
      <point x="102" y="694"/>
      <point x="75" y="737"/>
    </contour>
  </outline>
</glyph>
<glyph name="bracketleft" format="1">
  <advance width="438"/>
  <unicode hex="005B"/>
  <outline>
    <contour>
      <point x="158" y="740" type="curve" smooth="yes"/>
      <point x="140" y="740"/>
      <point x="107" y="705"/>
      <point x="107" y="687" type="curve" smooth="yes"/>
      <point x="107" y="678"/>
      <point x="110" y="666"/>
      <point x="121" y="657" type="curve"/>
      <point x="121" y="644" type="line" smooth="yes"/>
      <point x="121" y="570"/>
      <point x="116" y="481"/>
      <point x="111" y="364" type="curve" smooth="yes"/>
      <point x="101" y="170"/>
      <point x="40" y="-28"/>
      <point x="40" y="-94" type="curve" smooth="yes"/>
      <point x="40" y="-117"/>
      <point x="64" y="-152"/>
      <point x="87" y="-152" type="curve" smooth="yes"/>
      <point x="132" y="-152"/>
      <point x="174" y="-130"/>
      <point x="209" y="-130" type="curve" smooth="yes"/>
      <point x="248" y="-130"/>
      <point x="278" y="-140"/>
      <point x="313" y="-140" type="curve" smooth="yes"/>
      <point x="323" y="-139"/>
      <point x="349" y="-123"/>
      <point x="349" y="-110" type="curve" smooth="yes"/>
      <point x="349" y="-92"/>
      <point x="336" y="-45"/>
      <point x="300" y="-45" type="curve" smooth="yes"/>
      <point x="245" y="-45"/>
      <point x="194" y="-57"/>
      <point x="144" y="-58" type="curve"/>
      <point x="145" y="-22"/>
      <point x="156" y="63"/>
      <point x="174" y="173" type="curve" smooth="yes"/>
      <point x="192" y="292"/>
      <point x="200" y="470"/>
      <point x="215" y="592" type="curve" smooth="yes"/>
      <point x="217" y="609"/>
      <point x="222" y="624"/>
      <point x="225" y="638" type="curve"/>
      <point x="264" y="634"/>
      <point x="305" y="623"/>
      <point x="340" y="623" type="curve" smooth="yes"/>
      <point x="362" y="623"/>
      <point x="372" y="644"/>
      <point x="372" y="663" type="curve" smooth="yes"/>
      <point x="372" y="701"/>
      <point x="340" y="718"/>
      <point x="323" y="718" type="curve" smooth="yes"/>
      <point x="298" y="718"/>
      <point x="281" y="713"/>
      <point x="260" y="713" type="curve" smooth="yes"/>
      <point x="223" y="713"/>
      <point x="193" y="740"/>
    </contour>
  </outline>
</glyph>
<glyph name="backslash" format="1">
  <advance width="451"/>
  <unicode hex="005C"/>
  <outline>
    <contour>
      <point x="378" y="-129" type="curve" smooth="yes"/>
      <point x="403" y="-129"/>
      <point x="430" y="-110"/>
      <point x="430" y="-73" type="curve" smooth="yes"/>
      <point x="430" y="-56"/>
      <point x="400" y="-21"/>
      <point x="395" y="2" type="curve" smooth="yes"/>
      <point x="390" y="21"/>
      <point x="230" y="442"/>
      <point x="189" y="542" type="curve" smooth="yes"/>
      <point x="167" y="592"/>
      <point x="141" y="726"/>
      <point x="79" y="726" type="curve" smooth="yes"/>
      <point x="48" y="726"/>
      <point x="29" y="686"/>
      <point x="29" y="672" type="curve" smooth="yes"/>
      <point x="29" y="639"/>
      <point x="44" y="623"/>
      <point x="47" y="620" type="curve" smooth="yes"/>
      <point x="80" y="582"/>
      <point x="92" y="550"/>
      <point x="173" y="353" type="curve" smooth="yes"/>
      <point x="225" y="222"/>
      <point x="263" y="98"/>
      <point x="311" y="-31" type="curve" smooth="yes"/>
      <point x="327" y="-73"/>
      <point x="326" y="-129"/>
    </contour>
  </outline>
</glyph>
<glyph name="bracketright" format="1">
  <advance width="436"/>
  <unicode hex="005D"/>
  <outline>
    <contour>
      <point x="124" y="722" type="curve" smooth="yes"/>
      <point x="98" y="722"/>
      <point x="85" y="697"/>
      <point x="85" y="673" type="curve" smooth="yes"/>
      <point x="85" y="653"/>
      <point x="110" y="626"/>
      <point x="134" y="626" type="curve" smooth="yes"/>
      <point x="166" y="626"/>
      <point x="207" y="642"/>
      <point x="238" y="642" type="curve" smooth="yes"/>
      <point x="273" y="642" type="line"/>
      <point x="265" y="630"/>
      <point x="264" y="613"/>
      <point x="264" y="603" type="curve" smooth="yes"/>
      <point x="264" y="538"/>
      <point x="261" y="482"/>
      <point x="247" y="345" type="curve" smooth="yes"/>
      <point x="223" y="103"/>
      <point x="219" y="66"/>
      <point x="216" y="48" type="curve" smooth="yes"/>
      <point x="206" y="-9"/>
      <point x="200" y="-40"/>
      <point x="194" y="-60" type="curve"/>
      <point x="146" y="-59"/>
      <point x="82" y="-45"/>
      <point x="61" y="-54" type="curve" smooth="yes"/>
      <point x="40" y="-61"/>
      <point x="26" y="-74"/>
      <point x="26" y="-98" type="curve" smooth="yes"/>
      <point x="26" y="-115"/>
      <point x="46" y="-138"/>
      <point x="79" y="-138" type="curve" smooth="yes"/>
      <point x="226" y="-138"/>
      <point x="205" y="-151"/>
      <point x="251" y="-151" type="curve" smooth="yes"/>
      <point x="284" y="-151"/>
      <point x="297" y="-118"/>
      <point x="297" y="-92" type="curve" smooth="yes"/>
      <point x="297" y="-78"/>
      <point x="298" y="-13"/>
      <point x="304" y="39" type="curve" smooth="yes"/>
      <point x="306" y="52"/>
      <point x="316" y="158"/>
      <point x="331" y="347" type="curve" smooth="yes"/>
      <point x="337" y="415"/>
      <point x="348" y="492"/>
      <point x="356" y="552" type="curve" smooth="yes"/>
      <point x="361" y="590"/>
      <point x="365" y="624"/>
      <point x="365" y="643" type="curve" smooth="yes"/>
      <point x="365" y="645"/>
      <point x="364" y="650"/>
      <point x="361" y="654" type="curve"/>
      <point x="365" y="658"/>
      <point x="367" y="664"/>
      <point x="367" y="667" type="curve" smooth="yes"/>
      <point x="367" y="718"/>
      <point x="343" y="739"/>
      <point x="319" y="739" type="curve" smooth="yes"/>
      <point x="285" y="739"/>
      <point x="256" y="719"/>
      <point x="222" y="719" type="curve" smooth="yes"/>
      <point x="178" y="719"/>
      <point x="153" y="722"/>
    </contour>
  </outline>
</glyph>
<glyph name="asciicircum" format="1">
  <advance width="538"/>
  <unicode hex="005E"/>
  <outline>
    <contour>
      <point x="276" y="689" type="curve" smooth="yes"/>
      <point x="272" y="689"/>
      <point x="270" y="687"/>
      <point x="268" y="686" type="curve"/>
      <point x="265" y="688"/>
      <point x="266" y="699"/>
      <point x="265" y="703" type="curve" smooth="yes"/>
      <point x="264" y="715"/>
      <point x="246" y="738"/>
      <point x="219" y="738" type="curve" smooth="yes"/>
      <point x="193" y="738"/>
      <point x="182" y="712"/>
      <point x="161" y="642" type="curve" smooth="yes"/>
      <point x="151" y="610"/>
      <point x="74" y="471"/>
      <point x="66" y="459" type="curve" smooth="yes"/>
      <point x="56" y="445"/>
      <point x="46" y="430"/>
      <point x="46" y="407" type="curve" smooth="yes"/>
      <point x="46" y="386"/>
      <point x="61" y="358"/>
      <point x="102" y="358" type="curve" smooth="yes"/>
      <point x="126" y="358"/>
      <point x="144" y="388"/>
      <point x="157" y="433" type="curve" smooth="yes"/>
      <point x="158" y="438"/>
      <point x="179" y="497"/>
      <point x="186" y="504" type="curve" smooth="yes"/>
      <point x="197" y="517"/>
      <point x="215" y="564"/>
      <point x="236" y="600" type="curve"/>
      <point x="265" y="550"/>
      <point x="299" y="504"/>
      <point x="318" y="475" type="curve" smooth="yes"/>
      <point x="350" y="430"/>
      <point x="392" y="371"/>
      <point x="442" y="371" type="curve" smooth="yes"/>
      <point x="487" y="371"/>
      <point x="498" y="397"/>
      <point x="498" y="416" type="curve" smooth="yes"/>
      <point x="498" y="433"/>
      <point x="481" y="455"/>
      <point x="464" y="455" type="curve" smooth="yes"/>
      <point x="460" y="455"/>
      <point x="457" y="457"/>
      <point x="442" y="465" type="curve"/>
      <point x="422" y="478"/>
      <point x="349" y="563"/>
      <point x="319" y="625" type="curve" smooth="yes"/>
      <point x="313" y="639"/>
      <point x="308" y="652"/>
      <point x="305" y="662" type="curve" smooth="yes"/>
      <point x="301" y="676"/>
      <point x="288" y="689"/>
    </contour>
  </outline>
</glyph>
<glyph name="underscore" format="1">
  <advance width="506"/>
  <unicode hex="005F"/>
  <outline>
    <contour>
      <point x="506" y="-176" type="curve" smooth="yes"/>
      <point x="506" y="-154"/>
      <point x="497" y="-136"/>
      <point x="456" y="-136" type="curve" smooth="yes"/>
      <point x="401" y="-136"/>
      <point x="362" y="-138"/>
      <point x="314" y="-138" type="curve" smooth="yes"/>
      <point x="293" y="-138"/>
      <point x="156" y="-139"/>
      <point x="55" y="-146" type="curve" smooth="yes"/>
      <point x="3" y="-149"/>
      <point x="0" y="-176"/>
      <point x="0" y="-186" type="curve" smooth="yes"/>
      <point x="0" y="-219"/>
      <point x="26" y="-240"/>
      <point x="48" y="-240" type="curve" smooth="yes"/>
      <point x="82" y="-240"/>
      <point x="102" y="-226"/>
      <point x="339" y="-226" type="curve" smooth="yes"/>
      <point x="391" y="-226"/>
      <point x="419" y="-237"/>
      <point x="460" y="-237" type="curve" smooth="yes"/>
      <point x="483" y="-237"/>
      <point x="506" y="-206"/>
    </contour>
  </outline>
</glyph>
<glyph name="grave" format="1">
  <advance width="400"/>
  <unicode hex="0060"/>
  <outline>
    <contour>
      <point x="242" y="528" type="move" name="_top"/>
    </contour>
    <contour>
      <point x="93" y="701" type="curve" smooth="yes"/>
      <point x="94" y="677"/>
      <point x="126" y="665"/>
      <point x="145" y="649" type="curve" smooth="yes"/>
      <point x="196" y="601"/>
      <point x="230" y="548"/>
      <point x="260" y="548" type="curve" smooth="yes"/>
      <point x="292" y="548"/>
      <point x="305" y="574"/>
      <point x="305" y="584" type="curve" smooth="yes"/>
      <point x="305" y="612"/>
      <point x="259" y="648"/>
      <point x="238" y="670" type="curve" smooth="yes"/>
      <point x="218" y="692"/>
      <point x="196" y="716"/>
      <point x="183" y="741" type="curve" smooth="yes"/>
      <point x="178" y="752"/>
      <point x="162" y="762"/>
      <point x="140" y="762" type="curve" smooth="yes"/>
      <point x="111" y="762"/>
      <point x="93" y="728"/>
    </contour>
  </outline>
</glyph>
<glyph name="a" format="1">
  <advance width="553"/>
  <unicode hex="0061"/>
  <outline>
    <contour>
      <point x="321" y="532" type="move" name="top"/>
    </contour>
    <contour>
      <point x="317" y="490" type="curve" smooth="yes"/>
      <point x="191" y="490"/>
      <point x="28" y="299"/>
      <point x="28" y="132" type="curve" smooth="yes"/>
      <point x="28" y="41"/>
      <point x="73" y="-14"/>
      <point x="147" y="-14" type="curve" smooth="yes"/>
      <point x="258" y="-14"/>
      <point x="347" y="81"/>
      <point x="403" y="172" type="curve"/>
      <point x="402" y="161"/>
      <point x="399" y="124"/>
      <point x="398" y="113" type="curve" smooth="yes"/>
      <point x="394" y="90"/>
      <point x="394" y="66"/>
      <point x="394" y="49" type="curve" smooth="yes"/>
      <point x="394" y="13"/>
      <point x="398" y="-9"/>
      <point x="448" y="-9" type="curve" smooth="yes"/>
      <point x="464" y="-9"/>
      <point x="496" y="6"/>
      <point x="496" y="32" type="curve" smooth="yes"/>
      <point x="496" y="48"/>
      <point x="494" y="60"/>
      <point x="492" y="76" type="curve" smooth="yes"/>
      <point x="488" y="104"/>
      <point x="483" y="134"/>
      <point x="483" y="221" type="curve" smooth="yes"/>
      <point x="483" y="259"/>
      <point x="493" y="295"/>
      <point x="498" y="318" type="curve" smooth="yes"/>
      <point x="504" y="344"/>
      <point x="507" y="357"/>
      <point x="507" y="368" type="curve" smooth="yes"/>
      <point x="507" y="386"/>
      <point x="497" y="411"/>
      <point x="472" y="411" type="curve" smooth="yes"/>
      <point x="467" y="411"/>
      <point x="460" y="409"/>
      <point x="454" y="404" type="curve"/>
      <point x="438" y="425"/>
      <point x="384" y="490"/>
    </contour>
    <contour>
      <point x="317" y="406" type="curve" smooth="yes"/>
      <point x="351" y="406"/>
      <point x="383" y="367"/>
      <point x="383" y="337" type="curve" smooth="yes"/>
      <point x="383" y="246"/>
      <point x="263" y="70"/>
      <point x="158" y="70" type="curve" smooth="yes"/>
      <point x="127" y="70"/>
      <point x="114" y="104"/>
      <point x="114" y="123" type="curve" smooth="yes"/>
      <point x="114" y="216"/>
      <point x="204" y="406"/>
    </contour>
  </outline>
</glyph>
<glyph name="b" format="1">
  <advance width="559"/>
  <unicode hex="0062"/>
  <outline>
    <contour>
      <point x="237" y="-9" type="curve" smooth="yes"/>
      <point x="473" y="-9"/>
      <point x="533" y="199"/>
      <point x="533" y="276" type="curve" smooth="yes"/>
      <point x="533" y="388"/>
      <point x="459" y="479"/>
      <point x="367" y="479" type="curve" smooth="yes"/>
      <point x="295" y="479"/>
      <point x="224" y="439"/>
      <point x="170" y="353" type="curve"/>
      <point x="179" y="464"/>
      <point x="184" y="613"/>
      <point x="184" y="643" type="curve" smooth="yes"/>
      <point x="184" y="682"/>
      <point x="161" y="727"/>
      <point x="123" y="727" type="curve" smooth="yes"/>
      <point x="100" y="727"/>
      <point x="67" y="694"/>
      <point x="67" y="672" type="curve" smooth="yes"/>
      <point x="67" y="651"/>
      <point x="85" y="637"/>
      <point x="85" y="617" type="curve" smooth="yes"/>
      <point x="85" y="412"/>
      <point x="76" y="243"/>
      <point x="53" y="114" type="curve" smooth="yes"/>
      <point x="53" y="109"/>
      <point x="52" y="105"/>
      <point x="50" y="100" type="curve" smooth="yes"/>
      <point x="41" y="77"/>
      <point x="31" y="57"/>
      <point x="31" y="42" type="curve" smooth="yes"/>
      <point x="31" y="-8"/>
      <point x="60" y="-17"/>
      <point x="77" y="-17" type="curve" smooth="yes"/>
      <point x="94" y="-17"/>
      <point x="107" y="-12"/>
      <point x="118" y="1" type="curve"/>
      <point x="158" y="-7"/>
      <point x="203" y="-9"/>
    </contour>
    <contour>
      <point x="360" y="395" type="curve" smooth="yes"/>
      <point x="399" y="395"/>
      <point x="444" y="346"/>
      <point x="444" y="273" type="curve" smooth="yes"/>
      <point x="444" y="188"/>
      <point x="376" y="68"/>
      <point x="237" y="68" type="curve" smooth="yes"/>
      <point x="192" y="68"/>
      <point x="167" y="74"/>
      <point x="147" y="81" type="curve"/>
      <point x="164" y="186"/>
      <point x="226" y="395"/>
    </contour>
  </outline>
</glyph>
<glyph name="c" format="1">
  <advance width="475"/>
  <unicode hex="0063"/>
  <outline>
    <contour>
      <point x="293" y="528" type="move" name="top"/>
    </contour>
    <contour>
      <point x="358" y="486" type="curve" smooth="yes"/>
      <point x="198" y="486"/>
      <point x="31" y="376"/>
      <point x="31" y="173" type="curve" smooth="yes"/>
      <point x="31" y="50"/>
      <point x="105" y="-17"/>
      <point x="241" y="-17" type="curve" smooth="yes"/>
      <point x="296" y="-17"/>
      <point x="348" y="-6"/>
      <point x="404" y="-6" type="curve" smooth="yes"/>
      <point x="436" y="-6"/>
      <point x="450" y="21"/>
      <point x="450" y="41" type="curve" smooth="yes"/>
      <point x="450" y="61"/>
      <point x="438" y="95"/>
      <point x="411" y="95" type="curve" smooth="yes"/>
      <point x="388" y="95"/>
      <point x="367" y="83"/>
      <point x="347" y="74" type="curve" smooth="yes"/>
      <point x="325" y="63"/>
      <point x="262" y="61"/>
      <point x="249" y="61" type="curve" smooth="yes"/>
      <point x="160" y="61"/>
      <point x="125" y="107"/>
      <point x="125" y="170" type="curve" smooth="yes"/>
      <point x="125" y="285"/>
      <point x="198" y="394"/>
      <point x="307" y="394" type="curve" smooth="yes"/>
      <point x="327" y="394"/>
      <point x="343" y="375"/>
      <point x="363" y="375" type="curve" smooth="yes"/>
      <point x="392" y="375"/>
      <point x="419" y="405"/>
      <point x="419" y="424" type="curve" smooth="yes"/>
      <point x="419" y="465"/>
      <point x="397" y="486"/>
    </contour>
  </outline>
</glyph>
<glyph name="d" format="1">
  <advance width="582"/>
  <unicode hex="0064"/>
  <outline>
    <contour>
      <point x="481" y="-12" type="curve" smooth="yes"/>
      <point x="491" y="-12"/>
      <point x="524" y="-9"/>
      <point x="524" y="50" type="curve" smooth="yes"/>
      <point x="524" y="65"/>
      <point x="523" y="92"/>
      <point x="521" y="119" type="curve" smooth="yes"/>
      <point x="517" y="188"/>
      <point x="515" y="248"/>
      <point x="515" y="306" type="curve" smooth="yes"/>
      <point x="515" y="335"/>
      <point x="515" y="350"/>
      <point x="516" y="366" type="curve" smooth="yes"/>
      <point x="524" y="455"/>
      <point x="533" y="576"/>
      <point x="533" y="632" type="curve" smooth="yes"/>
      <point x="533" y="685"/>
      <point x="511" y="730"/>
      <point x="471" y="730" type="curve" smooth="yes"/>
      <point x="437" y="730"/>
      <point x="408" y="690"/>
      <point x="425" y="660" type="curve" smooth="yes"/>
      <point x="430" y="652"/>
      <point x="433" y="633"/>
      <point x="433" y="580" type="curve" smooth="yes"/>
      <point x="433" y="536"/>
      <point x="432" y="495"/>
      <point x="431" y="471" type="curve" smooth="yes"/>
      <point x="431" y="445"/>
      <point x="430" y="371"/>
      <point x="425" y="329" type="curve" smooth="yes"/>
      <point x="411" y="175"/>
      <point x="285" y="65"/>
      <point x="204" y="65" type="curve" smooth="yes"/>
      <point x="162" y="65"/>
      <point x="118" y="106"/>
      <point x="118" y="175" type="curve" smooth="yes"/>
      <point x="118" y="303"/>
      <point x="205" y="405"/>
      <point x="272" y="405" type="curve" smooth="yes"/>
      <point x="307" y="405"/>
      <point x="331" y="386"/>
      <point x="331" y="373" type="curve" smooth="yes"/>
      <point x="331" y="351"/>
      <point x="342" y="334"/>
      <point x="365" y="334" type="curve" smooth="yes"/>
      <point x="386" y="334"/>
      <point x="414" y="357"/>
      <point x="414" y="381" type="curve" smooth="yes"/>
      <point x="414" y="427"/>
      <point x="363" y="489"/>
      <point x="279" y="489" type="curve" smooth="yes"/>
      <point x="129" y="489"/>
      <point x="30" y="317"/>
      <point x="30" y="180" type="curve" smooth="yes"/>
      <point x="30" y="43"/>
      <point x="108" y="-19"/>
      <point x="187" y="-19" type="curve" smooth="yes"/>
      <point x="276" y="-19"/>
      <point x="362" y="29"/>
      <point x="429" y="139" type="curve"/>
      <point x="429" y="121"/>
      <point x="428" y="68"/>
      <point x="428" y="50" type="curve" smooth="yes"/>
      <point x="428" y="8"/>
      <point x="438" y="-12"/>
    </contour>
  </outline>
</glyph>
<glyph name="e" format="1">
  <advance width="506"/>
  <unicode hex="0065"/>
  <outline>
    <contour>
      <point x="282" y="522" type="move" name="top"/>
    </contour>
    <contour>
      <point x="319" y="481" type="curve" smooth="yes"/>
      <point x="131" y="481"/>
      <point x="30" y="344"/>
      <point x="30" y="214" type="curve" smooth="yes"/>
      <point x="30" y="101"/>
      <point x="95" y="-17"/>
      <point x="307" y="-17" type="curve" smooth="yes"/>
      <point x="376" y="-17"/>
      <point x="458" y="-10"/>
      <point x="458" y="42" type="curve" smooth="yes"/>
      <point x="458" y="81"/>
      <point x="440" y="94"/>
      <point x="420" y="94" type="curve" smooth="yes"/>
      <point x="408" y="94"/>
      <point x="399" y="90"/>
      <point x="389" y="83" type="curve" smooth="yes"/>
      <point x="374" y="72"/>
      <point x="353" y="60"/>
      <point x="296" y="60" type="curve" smooth="yes"/>
      <point x="187" y="60"/>
      <point x="121" y="104"/>
      <point x="121" y="222" type="curve" smooth="yes"/>
      <point x="121" y="340"/>
      <point x="212" y="404"/>
      <point x="310" y="404" type="curve" smooth="yes"/>
      <point x="365" y="404"/>
      <point x="395" y="378"/>
      <point x="395" y="350" type="curve" smooth="yes"/>
      <point x="395" y="285"/>
      <point x="276" y="269"/>
      <point x="177" y="269" type="curve" smooth="yes"/>
      <point x="161" y="269"/>
      <point x="141" y="261"/>
      <point x="141" y="234" type="curve" smooth="yes"/>
      <point x="141" y="199"/>
      <point x="171" y="187"/>
      <point x="193" y="187" type="curve" smooth="yes"/>
      <point x="224" y="187"/>
      <point x="245" y="197"/>
      <point x="272" y="199" type="curve" smooth="yes"/>
      <point x="376" y="208"/>
      <point x="481" y="250"/>
      <point x="481" y="338" type="curve" smooth="yes"/>
      <point x="481" y="429"/>
      <point x="392" y="481"/>
    </contour>
  </outline>
</glyph>
<glyph name="f" format="1">
  <advance width="385"/>
  <unicode hex="0066"/>
  <outline>
    <contour>
      <point x="55" y="472" type="curve" smooth="yes"/>
      <point x="33" y="472"/>
      <point x="15" y="447"/>
      <point x="15" y="426" type="curve" smooth="yes"/>
      <point x="15" y="413"/>
      <point x="25" y="377"/>
      <point x="54" y="377" type="curve" smooth="yes"/>
      <point x="67" y="377"/>
      <point x="77" y="379"/>
      <point x="90" y="381" type="curve" smooth="yes"/>
      <point x="105" y="383"/>
      <point x="114" y="385"/>
      <point x="132" y="386" type="curve"/>
      <point x="128" y="350"/>
      <point x="125" y="320"/>
      <point x="124" y="295" type="curve" smooth="yes"/>
      <point x="119" y="180"/>
      <point x="109" y="127"/>
      <point x="102" y="90" type="curve" smooth="yes"/>
      <point x="98" y="74"/>
      <point x="96" y="62"/>
      <point x="96" y="43" type="curve" smooth="yes"/>
      <point x="96" y="13"/>
      <point x="114" y="-13"/>
      <point x="157" y="-13" type="curve" smooth="yes"/>
      <point x="179" y="-13"/>
      <point x="208" y="-6"/>
      <point x="208" y="45" type="curve" smooth="yes"/>
      <point x="208" y="152"/>
      <point x="210" y="275"/>
      <point x="225" y="390" type="curve"/>
      <point x="265" y="390"/>
      <point x="307" y="387"/>
      <point x="353" y="387" type="curve" smooth="yes"/>
      <point x="378" y="387"/>
      <point x="399" y="393"/>
      <point x="399" y="422" type="curve" smooth="yes"/>
      <point x="399" y="444"/>
      <point x="389" y="475"/>
      <point x="361" y="475" type="curve" smooth="yes"/>
      <point x="340" y="475"/>
      <point x="317" y="473"/>
      <point x="293" y="470" type="curve" smooth="yes"/>
      <point x="277" y="468"/>
      <point x="264" y="467"/>
      <point x="235" y="466" type="curve"/>
      <point x="263" y="594"/>
      <point x="303" y="651"/>
      <point x="366" y="651" type="curve" smooth="yes"/>
      <point x="388" y="651"/>
      <point x="404" y="642"/>
      <point x="404" y="625" type="curve" smooth="yes"/>
      <point x="404" y="603"/>
      <point x="386" y="589"/>
      <point x="386" y="571" type="curve" smooth="yes"/>
      <point x="386" y="549"/>
      <point x="409" y="538"/>
      <point x="434" y="538" type="curve" smooth="yes"/>
      <point x="494" y="538"/>
      <point x="492" y="574"/>
      <point x="492" y="637" type="curve" smooth="yes"/>
      <point x="492" y="679"/>
      <point x="452" y="733"/>
      <point x="380" y="733" type="curve" smooth="yes"/>
      <point x="278" y="733"/>
      <point x="189" y="666"/>
      <point x="145" y="467" type="curve"/>
      <point x="130" y="468"/>
      <point x="122" y="468"/>
      <point x="113" y="469" type="curve" smooth="yes"/>
      <point x="93" y="471"/>
      <point x="76" y="472"/>
    </contour>
  </outline>
</glyph>
<glyph name="g" format="1">
  <advance width="530"/>
  <unicode hex="0067"/>
  <outline>
    <contour>
      <point x="294" y="518" type="move" name="top"/>
    </contour>
    <contour>
      <point x="307" y="478" type="curve" smooth="yes"/>
      <point x="127" y="478"/>
      <point x="32" y="293"/>
      <point x="32" y="163" type="curve" smooth="yes"/>
      <point x="32" y="20"/>
      <point x="135" y="-9"/>
      <point x="195" y="-9" type="curve" smooth="yes"/>
      <point x="247" y="-9"/>
      <point x="313" y="9"/>
      <point x="374" y="63" type="curve"/>
      <point x="359" y="-69"/>
      <point x="332" y="-275"/>
      <point x="226" y="-275" type="curve" smooth="yes"/>
      <point x="195" y="-275"/>
      <point x="137" y="-255"/>
      <point x="123" y="-241" type="curve" smooth="yes"/>
      <point x="105" y="-227"/>
      <point x="99" y="-199"/>
      <point x="71" y="-199" type="curve" smooth="yes"/>
      <point x="41" y="-199"/>
      <point x="31" y="-246"/>
      <point x="31" y="-267" type="curve" smooth="yes"/>
      <point x="31" y="-300"/>
      <point x="71" y="-311"/>
      <point x="91" y="-320" type="curve" smooth="yes"/>
      <point x="130" y="-339"/>
      <point x="178" y="-360"/>
      <point x="227" y="-360" type="curve" smooth="yes"/>
      <point x="345" y="-360"/>
      <point x="391" y="-272"/>
      <point x="408" y="-215" type="curve" smooth="yes"/>
      <point x="450" y="-73"/>
      <point x="477" y="180"/>
      <point x="477" y="286" type="curve" smooth="yes"/>
      <point x="477" y="344"/>
      <point x="460" y="478"/>
    </contour>
    <contour>
      <point x="365" y="179" type="curve" smooth="yes"/>
      <point x="347" y="146"/>
      <point x="294" y="71"/>
      <point x="197" y="71" type="curve" smooth="yes"/>
      <point x="151" y="71"/>
      <point x="127" y="117"/>
      <point x="127" y="155" type="curve" smooth="yes"/>
      <point x="127" y="276"/>
      <point x="204" y="395"/>
      <point x="287" y="395" type="curve" smooth="yes"/>
      <point x="370" y="395"/>
      <point x="384" y="338"/>
      <point x="384" y="316" type="curve" smooth="yes"/>
      <point x="384" y="282"/>
      <point x="383" y="241"/>
      <point x="382" y="197" type="curve"/>
      <point x="374" y="193"/>
      <point x="368" y="184"/>
    </contour>
  </outline>
</glyph>
<glyph name="h" format="1">
  <advance width="569"/>
  <unicode hex="0068"/>
  <outline>
    <contour>
      <point x="127" y="765" type="move" name="top"/>
    </contour>
    <contour>
      <point x="130" y="730" type="curve" smooth="yes"/>
      <point x="108" y="730"/>
      <point x="66" y="708"/>
      <point x="66" y="681" type="curve" smooth="yes"/>
      <point x="66" y="662"/>
      <point x="76" y="646"/>
      <point x="76" y="627" type="curve" smooth="yes"/>
      <point x="76" y="583" type="line" smooth="yes"/>
      <point x="76" y="466"/>
      <point x="74" y="219"/>
      <point x="58" y="115" type="curve"/>
      <point x="54" y="91"/>
      <point x="44" y="68"/>
      <point x="44" y="42" type="curve" smooth="yes"/>
      <point x="44" y="6"/>
      <point x="76" y="-5"/>
      <point x="102" y="-5" type="curve" smooth="yes"/>
      <point x="133" y="-5"/>
      <point x="157" y="56"/>
      <point x="159" y="208" type="curve"/>
      <point x="171" y="267"/>
      <point x="226" y="395"/>
      <point x="325" y="395" type="curve" smooth="yes"/>
      <point x="389" y="395"/>
      <point x="428" y="321"/>
      <point x="428" y="200" type="curve" smooth="yes"/>
      <point x="428" y="150"/>
      <point x="421" y="122"/>
      <point x="417" y="98" type="curve" smooth="yes"/>
      <point x="413" y="81"/>
      <point x="410" y="64"/>
      <point x="410" y="41" type="curve" smooth="yes"/>
      <point x="410" y="19"/>
      <point x="438" y="-8"/>
      <point x="458" y="-8" type="curve" smooth="yes"/>
      <point x="488" y="-8"/>
      <point x="510" y="20"/>
      <point x="508" y="47" type="curve" smooth="yes"/>
      <point x="505" y="93"/>
      <point x="514" y="135"/>
      <point x="514" y="181" type="curve" smooth="yes"/>
      <point x="514" y="379"/>
      <point x="442" y="480"/>
      <point x="337" y="480" type="curve" smooth="yes"/>
      <point x="257" y="480"/>
      <point x="201" y="429"/>
      <point x="161" y="379" type="curve"/>
      <point x="163" y="483"/>
      <point x="173" y="631"/>
      <point x="180" y="675" type="curve"/>
      <point x="183" y="707"/>
      <point x="161" y="730"/>
    </contour>
  </outline>
</glyph>
<glyph name="j" format="1">
  <advance width="227"/>
  <unicode hex="006A"/>
  <outline>
    <contour>
      <point x="110" y="477" type="curve" smooth="yes"/>
      <point x="87" y="477"/>
      <point x="48" y="453"/>
      <point x="48" y="417" type="curve" smooth="yes"/>
      <point x="48" y="398"/>
      <point x="54" y="372"/>
      <point x="58" y="363" type="curve" smooth="yes"/>
      <point x="70" y="331"/>
      <point x="79" y="144"/>
      <point x="79" y="-69" type="curve" smooth="yes"/>
      <point x="79" y="-131"/>
      <point x="66" y="-192"/>
      <point x="7" y="-192" type="curve" smooth="yes"/>
      <point x="-31" y="-192"/>
      <point x="-54" y="-179"/>
      <point x="-73" y="-167" type="curve" smooth="yes"/>
      <point x="-90" y="-157"/>
      <point x="-108" y="-146"/>
      <point x="-136" y="-146" type="curve" smooth="yes"/>
      <point x="-161" y="-146"/>
      <point x="-173" y="-172"/>
      <point x="-173" y="-197" type="curve" smooth="yes"/>
      <point x="-173" y="-222"/>
      <point x="-151" y="-247"/>
      <point x="-134" y="-248" type="curve" smooth="yes"/>
      <point x="-114" y="-248"/>
      <point x="-96" y="-253"/>
      <point x="-69" y="-260" type="curve" smooth="yes"/>
      <point x="-44" y="-266"/>
      <point x="-16" y="-274"/>
      <point x="17" y="-274" type="curve" smooth="yes"/>
      <point x="88" y="-274"/>
      <point x="169" y="-232"/>
      <point x="169" y="-82" type="curve" smooth="yes"/>
      <point x="169" y="-37"/>
      <point x="166" y="-6"/>
      <point x="166" y="24" type="curve" smooth="yes"/>
      <point x="165" y="95"/>
      <point x="161" y="197"/>
      <point x="160" y="263" type="curve" smooth="yes"/>
      <point x="160" y="338"/>
      <point x="163" y="375"/>
      <point x="166" y="399" type="curve" smooth="yes"/>
      <point x="167" y="407"/>
      <point x="168" y="420"/>
      <point x="168" y="424" type="curve" smooth="yes"/>
      <point x="168" y="453"/>
      <point x="141" y="477"/>
    </contour>
    <contour>
      <point x="102" y="722" type="curve" smooth="yes"/>
      <point x="81" y="722"/>
      <point x="42" y="701"/>
      <point x="42" y="653" type="curve" smooth="yes"/>
      <point x="42" y="622"/>
      <point x="78" y="596"/>
      <point x="102" y="596" type="curve" smooth="yes"/>
      <point x="130" y="596"/>
      <point x="162" y="631"/>
      <point x="162" y="668" type="curve" smooth="yes"/>
      <point x="162" y="687"/>
      <point x="131" y="722"/>
    </contour>
  </outline>
</glyph>
<glyph name="k" format="1">
  <advance width="497"/>
  <unicode hex="006B"/>
  <outline>
    <contour>
      <point x="413" y="466" type="curve" smooth="yes"/>
      <point x="380" y="466"/>
      <point x="363" y="429"/>
      <point x="343" y="409" type="curve" smooth="yes"/>
      <point x="299" y="367"/>
      <point x="216" y="319"/>
      <point x="155" y="278" type="curve"/>
      <point x="156" y="305"/>
      <point x="157" y="330"/>
      <point x="158" y="354" type="curve" smooth="yes"/>
      <point x="160" y="485"/>
      <point x="161" y="623"/>
      <point x="161" y="645" type="curve" smooth="yes"/>
      <point x="161" y="709"/>
      <point x="136" y="716"/>
      <point x="119" y="716" type="curve" smooth="yes"/>
      <point x="87" y="716"/>
      <point x="55" y="678"/>
      <point x="55" y="656" type="curve" smooth="yes"/>
      <point x="55" y="635"/>
      <point x="65" y="618"/>
      <point x="66" y="599" type="curve" smooth="yes"/>
      <point x="67" y="580"/>
      <point x="70" y="557"/>
      <point x="70" y="529" type="curve" smooth="yes"/>
      <point x="70" y="428"/>
      <point x="67" y="359"/>
      <point x="67" y="290" type="curve" smooth="yes"/>
      <point x="67" y="270"/>
      <point x="67" y="253"/>
      <point x="66" y="233" type="curve"/>
      <point x="60" y="228"/>
      <point x="56" y="222"/>
      <point x="56" y="213" type="curve" smooth="yes"/>
      <point x="56" y="205"/>
      <point x="59" y="193"/>
      <point x="65" y="181" type="curve"/>
      <point x="62" y="116"/>
      <point x="58" y="80"/>
      <point x="53" y="61" type="curve" smooth="yes"/>
      <point x="51" y="51"/>
      <point x="49" y="45"/>
      <point x="49" y="39" type="curve" smooth="yes"/>
      <point x="49" y="19"/>
      <point x="77" y="-9"/>
      <point x="96" y="-9" type="curve" smooth="yes"/>
      <point x="118" y="-9"/>
      <point x="153" y="10"/>
      <point x="153" y="44" type="curve" smooth="yes"/>
      <point x="153" y="72"/>
      <point x="154" y="122"/>
      <point x="154" y="151" type="curve"/>
      <point x="158" y="151"/>
      <point x="160" y="152"/>
      <point x="163" y="152" type="curve"/>
      <point x="208" y="139"/>
      <point x="360" y="37"/>
      <point x="371" y="25" type="curve" smooth="yes"/>
      <point x="394" y="1"/>
      <point x="416" y="-12"/>
      <point x="440" y="-12" type="curve" smooth="yes"/>
      <point x="463" y="-12"/>
      <point x="479" y="15"/>
      <point x="479" y="31" type="curve" smooth="yes"/>
      <point x="479" y="66"/>
      <point x="467" y="76"/>
      <point x="446" y="85" type="curve"/>
      <point x="415" y="101"/>
      <point x="385" y="118"/>
      <point x="342" y="144" type="curve" smooth="yes"/>
      <point x="293" y="173"/>
      <point x="254" y="197"/>
      <point x="212" y="220" type="curve"/>
      <point x="239" y="239"/>
      <point x="258" y="252"/>
      <point x="280" y="266" type="curve" smooth="yes"/>
      <point x="303" y="280"/>
      <point x="322" y="293"/>
      <point x="354" y="312" type="curve" smooth="yes"/>
      <point x="400" y="341"/>
      <point x="443" y="366"/>
      <point x="451" y="388" type="curve"/>
      <point x="460" y="420"/>
      <point x="451" y="466"/>
    </contour>
  </outline>
</glyph>
<glyph name="l" format="1">
  <advance width="244"/>
  <unicode hex="006C"/>
  <outline>
    <contour>
      <point x="123" y="743" type="move" name="top"/>
    </contour>
    <contour>
      <point x="219" y="33" type="curve" smooth="yes"/>
      <point x="219" y="64"/>
      <point x="205" y="66"/>
      <point x="190" y="70" type="curve" smooth="yes"/>
      <point x="184" y="72"/>
      <point x="178" y="72"/>
      <point x="171" y="76" type="curve"/>
      <point x="162" y="92"/>
      <point x="154" y="117"/>
      <point x="154" y="181" type="curve" smooth="yes"/>
      <point x="154" y="332"/>
      <point x="166" y="484"/>
      <point x="186" y="606" type="curve" smooth="yes"/>
      <point x="189" y="621"/>
      <point x="190" y="634"/>
      <point x="190" y="638" type="curve" smooth="yes"/>
      <point x="190" y="660"/>
      <point x="167" y="708"/>
      <point x="128" y="708" type="curve" smooth="yes"/>
      <point x="106" y="708"/>
      <point x="75" y="686"/>
      <point x="75" y="660" type="curve" smooth="yes"/>
      <point x="77" y="645"/>
      <point x="83" y="624"/>
      <point x="83" y="605" type="curve" smooth="yes"/>
      <point x="81" y="495"/>
      <point x="75" y="383"/>
      <point x="69" y="274" type="curve" smooth="yes"/>
      <point x="65" y="202"/>
      <point x="63" y="135"/>
      <point x="63" y="78" type="curve" smooth="yes"/>
      <point x="63" y="19"/>
      <point x="116" y="-16"/>
      <point x="155" y="-16" type="curve" smooth="yes"/>
      <point x="184" y="-16"/>
      <point x="219" y="0"/>
    </contour>
  </outline>
</glyph>
<glyph name="m" format="1">
  <advance width="871"/>
  <unicode hex="006D"/>
  <outline>
    <contour>
      <point x="134" y="474" type="curve" smooth="yes"/>
      <point x="107" y="474"/>
      <point x="67" y="467"/>
      <point x="67" y="421" type="curve" smooth="yes"/>
      <point x="67" y="386"/>
      <point x="76" y="358"/>
      <point x="76" y="327" type="curve" smooth="yes"/>
      <point x="76" y="173"/>
      <point x="65" y="122"/>
      <point x="55" y="88" type="curve" smooth="yes"/>
      <point x="51" y="72"/>
      <point x="47" y="59"/>
      <point x="47" y="40" type="curve" smooth="yes"/>
      <point x="47" y="0"/>
      <point x="74" y="-11"/>
      <point x="103" y="-11" type="curve" smooth="yes"/>
      <point x="130" y="-11"/>
      <point x="156" y="14"/>
      <point x="156" y="96" type="curve" smooth="yes"/>
      <point x="156" y="163"/>
      <point x="167" y="221"/>
      <point x="167" y="281" type="curve"/>
      <point x="185" y="340"/>
      <point x="243" y="391"/>
      <point x="298" y="391" type="curve" smooth="yes"/>
      <point x="349" y="391"/>
      <point x="392" y="359"/>
      <point x="392" y="234" type="curve" smooth="yes"/>
      <point x="392" y="202"/>
      <point x="387" y="156"/>
      <point x="383" y="120" type="curve" smooth="yes"/>
      <point x="378" y="79"/>
      <point x="375" y="53"/>
      <point x="375" y="42" type="curve" smooth="yes"/>
      <point x="375" y="-3"/>
      <point x="401" y="-5"/>
      <point x="415" y="-5" type="curve" smooth="yes"/>
      <point x="461" y="-5"/>
      <point x="475" y="36"/>
      <point x="475" y="56" type="curve" smooth="yes"/>
      <point x="475" y="83"/>
      <point x="484" y="222"/>
      <point x="492" y="259" type="curve"/>
      <point x="506" y="285"/>
      <point x="557" y="386"/>
      <point x="630" y="386" type="curve" smooth="yes"/>
      <point x="669" y="386"/>
      <point x="718" y="371"/>
      <point x="718" y="243" type="curve" smooth="yes"/>
      <point x="718" y="209"/>
      <point x="715" y="169"/>
      <point x="705" y="111" type="curve" smooth="yes"/>
      <point x="700" y="79"/>
      <point x="694" y="53"/>
      <point x="694" y="31" type="curve" smooth="yes"/>
      <point x="694" y="6"/>
      <point x="714" y="-7"/>
      <point x="744" y="-7" type="curve" smooth="yes"/>
      <point x="771" y="-7"/>
      <point x="797" y="6"/>
      <point x="798" y="33" type="curve" smooth="yes"/>
      <point x="799" y="58"/>
      <point x="801" y="82"/>
      <point x="804" y="115" type="curve" smooth="yes"/>
      <point x="809" y="168"/>
      <point x="812" y="212"/>
      <point x="812" y="251" type="curve" smooth="yes"/>
      <point x="812" y="384"/>
      <point x="745" y="470"/>
      <point x="639" y="470" type="curve" smooth="yes"/>
      <point x="548" y="470"/>
      <point x="492" y="409"/>
      <point x="459" y="365" type="curve"/>
      <point x="434" y="437"/>
      <point x="374" y="474"/>
      <point x="316" y="474" type="curve" smooth="yes"/>
      <point x="254" y="474"/>
      <point x="203" y="445"/>
      <point x="164" y="401" type="curve"/>
      <point x="165" y="412"/>
      <point x="166" y="421"/>
      <point x="166" y="426" type="curve" smooth="yes"/>
      <point x="169" y="451"/>
      <point x="163" y="474"/>
    </contour>
  </outline>
</glyph>
<glyph name="n" format="1">
  <advance width="579"/>
  <unicode hex="006E"/>
  <outline>
    <contour>
      <point x="297" y="520" type="move" name="top"/>
    </contour>
    <contour>
      <point x="58" y="419" type="curve"/>
      <point x="59" y="399"/>
      <point x="72" y="373"/>
      <point x="72" y="348" type="curve" smooth="yes"/>
      <point x="72" y="293"/>
      <point x="69" y="239"/>
      <point x="63" y="176" type="curve" smooth="yes"/>
      <point x="58" y="129"/>
      <point x="52" y="78"/>
      <point x="52" y="39" type="curve" smooth="yes"/>
      <point x="52" y="10"/>
      <point x="86" y="-10"/>
      <point x="105" y="-10" type="curve" smooth="yes"/>
      <point x="154" y="-10"/>
      <point x="157" y="110"/>
      <point x="157" y="225" type="curve" smooth="yes"/>
      <point x="157" y="249"/>
      <point x="167" y="271"/>
      <point x="174" y="288" type="curve" smooth="yes"/>
      <point x="183" y="306"/>
      <point x="244" y="400"/>
      <point x="331" y="400" type="curve" smooth="yes"/>
      <point x="416" y="400"/>
      <point x="436" y="298"/>
      <point x="436" y="243" type="curve" smooth="yes"/>
      <point x="436" y="142"/>
      <point x="422" y="97"/>
      <point x="411" y="71" type="curve" smooth="yes"/>
      <point x="407" y="63"/>
      <point x="405" y="56"/>
      <point x="405" y="49" type="curve" smooth="yes"/>
      <point x="405" y="20"/>
      <point x="419" y="-9"/>
      <point x="444" y="-9" type="curve" smooth="yes"/>
      <point x="494" y="-9"/>
      <point x="506" y="31"/>
      <point x="513" y="67" type="curve" smooth="yes"/>
      <point x="520" y="102"/>
      <point x="524" y="172"/>
      <point x="524" y="242" type="curve" smooth="yes"/>
      <point x="524" y="387"/>
      <point x="458" y="479"/>
      <point x="346" y="479" type="curve" smooth="yes"/>
      <point x="261" y="479"/>
      <point x="201" y="432"/>
      <point x="159" y="380" type="curve"/>
      <point x="163" y="412"/>
      <point x="163" y="414"/>
      <point x="163" y="421" type="curve" smooth="yes"/>
      <point x="161" y="465"/>
      <point x="150" y="480"/>
      <point x="129" y="480" type="curve" smooth="yes"/>
      <point x="91" y="480"/>
      <point x="58" y="458"/>
    </contour>
  </outline>
</glyph>
<glyph name="o" format="1">
  <advance width="513"/>
  <unicode hex="006F"/>
  <outline>
    <contour>
      <point x="254" y="528" type="move" name="top"/>
    </contour>
    <contour>
      <point x="248" y="487" type="curve" smooth="yes"/>
      <point x="135" y="487"/>
      <point x="30" y="356"/>
      <point x="30" y="179" type="curve" smooth="yes"/>
      <point x="30" y="71"/>
      <point x="112" y="-12"/>
      <point x="217" y="-12" type="curve" smooth="yes"/>
      <point x="420" y="-12"/>
      <point x="483" y="142"/>
      <point x="483" y="236" type="curve" smooth="yes"/>
      <point x="483" y="434"/>
      <point x="335" y="487"/>
    </contour>
    <contour>
      <point x="241" y="402" type="curve" smooth="yes"/>
      <point x="329" y="402"/>
      <point x="396" y="339"/>
      <point x="396" y="256" type="curve" smooth="yes"/>
      <point x="396" y="164"/>
      <point x="336" y="71"/>
      <point x="234" y="71" type="curve" smooth="yes"/>
      <point x="177" y="71"/>
      <point x="118" y="110"/>
      <point x="118" y="188" type="curve" smooth="yes"/>
      <point x="118" y="287"/>
      <point x="177" y="402"/>
    </contour>
  </outline>
</glyph>
<glyph name="p" format="1">
  <advance width="540"/>
  <unicode hex="0070"/>
  <outline>
    <contour>
      <point x="98" y="480" type="curve" smooth="yes"/>
      <point x="72" y="480"/>
      <point x="52" y="461"/>
      <point x="52" y="431" type="curve" smooth="yes"/>
      <point x="52" y="418"/>
      <point x="54" y="391"/>
      <point x="57" y="361" type="curve" smooth="yes"/>
      <point x="62" y="299"/>
      <point x="66" y="252"/>
      <point x="66" y="215" type="curve" smooth="yes"/>
      <point x="66" y="181"/>
      <point x="61" y="109"/>
      <point x="54" y="-5" type="curve" smooth="yes"/>
      <point x="46" y="-128"/>
      <point x="42" y="-204"/>
      <point x="42" y="-233" type="curve" smooth="yes"/>
      <point x="42" y="-266"/>
      <point x="76" y="-304"/>
      <point x="103" y="-304" type="curve" smooth="yes"/>
      <point x="137" y="-304"/>
      <point x="146" y="-268"/>
      <point x="146" y="-237" type="curve" smooth="yes"/>
      <point x="146" y="-209"/>
      <point x="137" y="-185"/>
      <point x="137" y="-160" type="curve" smooth="yes"/>
      <point x="137" y="-149"/>
      <point x="141" y="-64"/>
      <point x="142" y="-42" type="curve" smooth="yes"/>
      <point x="142" y="-36"/>
      <point x="143" y="-22"/>
      <point x="144" y="-10" type="curve"/>
      <point x="161" y="-6"/>
      <point x="176" y="-5"/>
      <point x="200" y="-5" type="curve" smooth="yes"/>
      <point x="363" y="-5"/>
      <point x="509" y="108"/>
      <point x="509" y="232" type="curve" smooth="yes"/>
      <point x="509" y="359"/>
      <point x="394" y="488"/>
      <point x="174" y="488" type="curve" smooth="yes"/>
      <point x="146" y="488"/>
      <point x="129" y="483"/>
      <point x="118" y="472" type="curve"/>
      <point x="113" y="478"/>
      <point x="103" y="480"/>
    </contour>
    <contour>
      <point x="208" y="405" type="curve" smooth="yes"/>
      <point x="330" y="405"/>
      <point x="411" y="340"/>
      <point x="411" y="234" type="curve" smooth="yes"/>
      <point x="411" y="150"/>
      <point x="321" y="75"/>
      <point x="196" y="75" type="curve" smooth="yes"/>
      <point x="186" y="75"/>
      <point x="165" y="77"/>
      <point x="150" y="77" type="curve"/>
      <point x="155" y="149"/>
      <point x="157" y="199"/>
      <point x="157" y="220" type="curve" smooth="yes"/>
      <point x="157" y="259"/>
      <point x="157" y="330"/>
      <point x="155" y="389" type="curve"/>
      <point x="178" y="392"/>
      <point x="193" y="405"/>
    </contour>
  </outline>
</glyph>
<glyph name="q" format="1">
  <advance width="544"/>
  <unicode hex="0071"/>
  <outline>
    <contour>
      <point x="510" y="-247" type="curve" smooth="yes"/>
      <point x="509" y="-220"/>
      <point x="498" y="-198"/>
      <point x="495" y="-173" type="curve" smooth="yes"/>
      <point x="488" y="-130"/>
      <point x="480" y="51"/>
      <point x="480" y="148" type="curve" smooth="yes"/>
      <point x="480" y="186"/>
      <point x="482" y="223"/>
      <point x="485" y="256" type="curve" smooth="yes"/>
      <point x="487" y="284"/>
      <point x="489" y="316"/>
      <point x="489" y="344" type="curve" smooth="yes"/>
      <point x="489" y="453"/>
      <point x="453" y="478"/>
      <point x="416" y="478" type="curve" smooth="yes"/>
      <point x="391" y="478"/>
      <point x="374" y="462"/>
      <point x="371" y="434" type="curve"/>
      <point x="348" y="458"/>
      <point x="297" y="480"/>
      <point x="234" y="480" type="curve" smooth="yes"/>
      <point x="138" y="480"/>
      <point x="36" y="406"/>
      <point x="36" y="240" type="curve" smooth="yes"/>
      <point x="36" y="120"/>
      <point x="102" y="-6"/>
      <point x="238" y="-6" type="curve" smooth="yes"/>
      <point x="295" y="-6"/>
      <point x="341" y="13"/>
      <point x="398" y="58" type="curve"/>
      <point x="399" y="26"/>
      <point x="400" y="-9"/>
      <point x="400" y="-33" type="curve" smooth="yes"/>
      <point x="400" y="-105"/>
      <point x="399" y="-187"/>
      <point x="399" y="-218" type="curve" smooth="yes"/>
      <point x="398" y="-233"/>
      <point x="397" y="-246"/>
      <point x="397" y="-250" type="curve" smooth="yes"/>
      <point x="397" y="-283"/>
      <point x="423" y="-297"/>
      <point x="449" y="-297" type="curve" smooth="yes"/>
      <point x="474" y="-297"/>
      <point x="510" y="-279"/>
    </contour>
    <contour>
      <point x="238" y="76" type="curve" smooth="yes"/>
      <point x="171" y="76"/>
      <point x="123" y="145"/>
      <point x="123" y="242" type="curve" smooth="yes"/>
      <point x="123" y="336"/>
      <point x="174" y="397"/>
      <point x="237" y="397" type="curve" smooth="yes"/>
      <point x="286" y="397"/>
      <point x="308" y="378"/>
      <point x="316" y="359" type="curve" smooth="yes"/>
      <point x="322" y="346"/>
      <point x="329" y="332"/>
      <point x="352" y="332" type="curve" smooth="yes"/>
      <point x="366" y="332"/>
      <point x="378" y="340"/>
      <point x="380" y="353" type="curve"/>
      <point x="388" y="306"/>
      <point x="391" y="239"/>
      <point x="395" y="167" type="curve"/>
      <point x="359" y="127"/>
      <point x="310" y="76"/>
    </contour>
  </outline>
</glyph>
<glyph name="r" format="1">
  <advance width="447"/>
  <unicode hex="0072"/>
  <outline>
    <contour>
      <point x="223" y="513" type="move" name="top"/>
    </contour>
    <contour>
      <point x="348" y="472" type="curve" smooth="yes"/>
      <point x="269" y="472"/>
      <point x="195" y="426"/>
      <point x="148" y="333" type="curve"/>
      <point x="150" y="353"/>
      <point x="153" y="393"/>
      <point x="153" y="410" type="curve" smooth="yes"/>
      <point x="153" y="449"/>
      <point x="135" y="474"/>
      <point x="93" y="474" type="curve" smooth="yes"/>
      <point x="71" y="474"/>
      <point x="47" y="465"/>
      <point x="47" y="432" type="curve" smooth="yes"/>
      <point x="47" y="414"/>
      <point x="63" y="391"/>
      <point x="64" y="372" type="curve"/>
      <point x="69" y="285"/>
      <point x="70" y="235"/>
      <point x="70" y="198" type="curve" smooth="yes"/>
      <point x="70" y="150"/>
      <point x="67" y="121"/>
      <point x="67" y="79" type="curve"/>
      <point x="66" y="58"/>
      <point x="58" y="41"/>
      <point x="58" y="22" type="curve" smooth="yes"/>
      <point x="58" y="6"/>
      <point x="85" y="-8"/>
      <point x="111" y="-8" type="curve" smooth="yes"/>
      <point x="135" y="-8"/>
      <point x="161" y="24"/>
      <point x="161" y="48" type="curve" smooth="yes"/>
      <point x="161" y="81"/>
      <point x="155" y="125"/>
      <point x="155" y="152" type="curve" smooth="yes"/>
      <point x="156" y="186"/>
      <point x="200" y="391"/>
      <point x="340" y="391" type="curve" smooth="yes"/>
      <point x="373" y="391"/>
      <point x="386" y="351"/>
      <point x="411" y="351" type="curve" smooth="yes"/>
      <point x="429" y="351"/>
      <point x="454" y="379"/>
      <point x="454" y="416" type="curve" smooth="yes"/>
      <point x="454" y="438"/>
      <point x="419" y="472"/>
    </contour>
  </outline>
</glyph>
<glyph name="t" format="1">
  <advance width="369"/>
  <unicode hex="0074"/>
  <outline>
    <contour>
      <point x="41" y="467" type="curve" smooth="yes"/>
      <point x="19" y="467"/>
      <point x="0" y="446"/>
      <point x="0" y="421" type="curve" smooth="yes"/>
      <point x="0" y="392"/>
      <point x="12" y="374"/>
      <point x="39" y="374" type="curve" smooth="yes"/>
      <point x="54" y="374"/>
      <point x="72" y="376"/>
      <point x="82" y="378" type="curve"/>
      <point x="90" y="381"/>
      <point x="98" y="382"/>
      <point x="115" y="384" type="curve" smooth="yes"/>
      <point x="112" y="358"/>
      <point x="110" y="342"/>
      <point x="109" y="326" type="curve" smooth="yes"/>
      <point x="99" y="248"/>
      <point x="92" y="173"/>
      <point x="92" y="95" type="curve" smooth="yes"/>
      <point x="92" y="23"/>
      <point x="151" y="-11"/>
      <point x="181" y="-11" type="curve" smooth="yes"/>
      <point x="206" y="-11"/>
      <point x="226" y="-6"/>
      <point x="247" y="-1" type="curve" smooth="yes"/>
      <point x="265" y="4"/>
      <point x="282" y="7"/>
      <point x="303" y="7" type="curve" smooth="yes"/>
      <point x="320" y="7"/>
      <point x="338" y="32"/>
      <point x="338" y="48" type="curve" smooth="yes"/>
      <point x="338" y="63"/>
      <point x="318" y="97"/>
      <point x="298" y="97" type="curve" smooth="yes"/>
      <point x="279" y="97"/>
      <point x="267" y="91"/>
      <point x="252" y="85" type="curve" smooth="yes"/>
      <point x="234" y="77"/>
      <point x="213" y="72"/>
      <point x="201" y="72" type="curve" smooth="yes"/>
      <point x="193" y="72"/>
      <point x="179" y="108"/>
      <point x="179" y="119" type="curve" smooth="yes"/>
      <point x="179" y="178"/>
      <point x="189" y="281"/>
      <point x="200" y="385" type="curve"/>
      <point x="226" y="385"/>
      <point x="247" y="386"/>
      <point x="254" y="386" type="curve" smooth="yes"/>
      <point x="304" y="386" type="line" smooth="yes"/>
      <point x="332" y="386"/>
      <point x="357" y="411"/>
      <point x="357" y="434" type="curve" smooth="yes"/>
      <point x="357" y="456"/>
      <point x="333" y="473"/>
      <point x="308" y="473" type="curve" smooth="yes"/>
      <point x="283" y="473"/>
      <point x="265" y="464"/>
      <point x="243" y="464" type="curve" smooth="yes"/>
      <point x="211" y="464" type="line"/>
      <point x="214" y="476"/>
      <point x="215" y="490"/>
      <point x="218" y="506" type="curve" smooth="yes"/>
      <point x="224" y="537"/>
      <point x="229" y="574"/>
      <point x="229" y="585" type="curve" smooth="yes"/>
      <point x="229" y="625"/>
      <point x="197" y="644"/>
      <point x="156" y="644" type="curve" smooth="yes"/>
      <point x="138" y="644"/>
      <point x="112" y="604"/>
      <point x="112" y="581" type="curve" smooth="yes"/>
      <point x="112" y="566"/>
      <point x="117" y="553"/>
      <point x="125" y="540" type="curve"/>
      <point x="125" y="516"/>
      <point x="123" y="491"/>
      <point x="121" y="464" type="curve"/>
      <point x="92" y="464" type="line" smooth="yes"/>
      <point x="70" y="464"/>
      <point x="55" y="467"/>
    </contour>
  </outline>
</glyph>
<glyph name="u" format="1">
  <advance width="531"/>
  <unicode hex="0075"/>
  <outline>
    <contour>
      <point x="278" y="516" type="move" name="top"/>
    </contour>
    <contour>
      <point x="126" y="477" type="curve" smooth="yes"/>
      <point x="91" y="477"/>
      <point x="63" y="447"/>
      <point x="63" y="420" type="curve" smooth="yes"/>
      <point x="63" y="403"/>
      <point x="68" y="388"/>
      <point x="68" y="373" type="curve" smooth="yes"/>
      <point x="68" y="372"/>
      <point x="68" y="365"/>
      <point x="63" y="328" type="curve" smooth="yes"/>
      <point x="57" y="281"/>
      <point x="50" y="221"/>
      <point x="50" y="182" type="curve" smooth="yes"/>
      <point x="50" y="44"/>
      <point x="130" y="-12"/>
      <point x="203" y="-12" type="curve" smooth="yes"/>
      <point x="278" y="-12"/>
      <point x="336" y="23"/>
      <point x="379" y="67" type="curve"/>
      <point x="379" y="8"/>
      <point x="376" y="-12"/>
      <point x="414" y="-12" type="curve" smooth="yes"/>
      <point x="452" y="-12"/>
      <point x="480" y="16"/>
      <point x="480" y="37" type="curve" smooth="yes"/>
      <point x="480" y="71"/>
      <point x="460" y="94"/>
      <point x="460" y="133" type="curve" smooth="yes"/>
      <point x="460" y="174"/>
      <point x="468" y="337"/>
      <point x="471" y="371" type="curve" smooth="yes"/>
      <point x="474" y="392"/>
      <point x="481" y="411"/>
      <point x="481" y="432" type="curve" smooth="yes"/>
      <point x="481" y="449"/>
      <point x="468" y="476"/>
      <point x="442" y="476" type="curve" smooth="yes"/>
      <point x="418" y="476"/>
      <point x="371" y="450"/>
      <point x="371" y="420" type="curve" smooth="yes"/>
      <point x="371" y="415"/>
      <point x="372" y="409"/>
      <point x="373" y="390" type="curve" smooth="yes"/>
      <point x="375" y="362"/>
      <point x="378" y="324"/>
      <point x="378" y="273" type="curve" smooth="yes"/>
      <point x="378" y="238"/>
      <point x="378" y="200"/>
      <point x="373" y="158" type="curve"/>
      <point x="341" y="112"/>
      <point x="274" y="66"/>
      <point x="209" y="66" type="curve" smooth="yes"/>
      <point x="179" y="66"/>
      <point x="136" y="102"/>
      <point x="136" y="164" type="curve" smooth="yes"/>
      <point x="136" y="233"/>
      <point x="145" y="281"/>
      <point x="156" y="326" type="curve" smooth="yes"/>
      <point x="164" y="361"/>
      <point x="174" y="395"/>
      <point x="175" y="438" type="curve" smooth="yes"/>
      <point x="175" y="459"/>
      <point x="163" y="477"/>
    </contour>
  </outline>
</glyph>
<glyph name="v" format="1">
  <advance width="439"/>
  <unicode hex="0076"/>
  <outline>
    <contour>
      <point x="64" y="478" type="curve" smooth="yes"/>
      <point x="40" y="478"/>
      <point x="15" y="439"/>
      <point x="15" y="420" type="curve" smooth="yes"/>
      <point x="15" y="387"/>
      <point x="38" y="361"/>
      <point x="53" y="336" type="curve" smooth="yes"/>
      <point x="76" y="291"/>
      <point x="158" y="27"/>
      <point x="162" y="13" type="curve" smooth="yes"/>
      <point x="167" y="0"/>
      <point x="173" y="-17"/>
      <point x="209" y="-17" type="curve" smooth="yes"/>
      <point x="238" y="-17"/>
      <point x="259" y="0"/>
      <point x="268" y="32" type="curve"/>
      <point x="302" y="118"/>
      <point x="354" y="241"/>
      <point x="406" y="346" type="curve" smooth="yes"/>
      <point x="425" y="384"/>
      <point x="438" y="410"/>
      <point x="438" y="427" type="curve" smooth="yes"/>
      <point x="438" y="459"/>
      <point x="394" y="477"/>
      <point x="372" y="477" type="curve" smooth="yes"/>
      <point x="348" y="477"/>
      <point x="338" y="451"/>
      <point x="325" y="408" type="curve" smooth="yes"/>
      <point x="318" y="386"/>
      <point x="257" y="204"/>
      <point x="216" y="117" type="curve"/>
      <point x="199" y="184"/>
      <point x="173" y="260"/>
      <point x="156" y="309" type="curve" smooth="yes"/>
      <point x="143" y="348"/>
      <point x="140" y="357"/>
      <point x="138" y="362" type="curve" smooth="yes"/>
      <point x="134" y="379"/>
      <point x="126" y="407"/>
      <point x="120" y="445" type="curve" smooth="yes"/>
      <point x="116" y="465"/>
      <point x="100" y="478"/>
    </contour>
  </outline>
</glyph>
<glyph name="w" format="1">
  <advance width="659"/>
  <unicode hex="0077"/>
  <outline>
    <contour>
      <point x="327" y="478" type="move" name="top"/>
    </contour>
    <contour>
      <point x="102" y="477" type="curve" smooth="yes"/>
      <point x="83" y="477"/>
      <point x="42" y="445"/>
      <point x="42" y="422" type="curve" smooth="yes"/>
      <point x="42" y="397"/>
      <point x="65" y="380"/>
      <point x="69" y="356" type="curve" smooth="yes"/>
      <point x="72" y="339"/>
      <point x="76" y="296"/>
      <point x="76" y="206" type="curve" smooth="yes"/>
      <point x="76" y="126"/>
      <point x="74" y="90"/>
      <point x="74" y="55" type="curve" smooth="yes"/>
      <point x="74" y="33"/>
      <point x="86" y="-14"/>
      <point x="126" y="-14" type="curve" smooth="yes"/>
      <point x="166" y="-14"/>
      <point x="195" y="26"/>
      <point x="203" y="51" type="curve" smooth="yes"/>
      <point x="212" y="77"/>
      <point x="269" y="209"/>
      <point x="295" y="232" type="curve" smooth="yes"/>
      <point x="298" y="227"/>
      <point x="301" y="225"/>
      <point x="309" y="195" type="curve" smooth="yes"/>
      <point x="327" y="130"/>
      <point x="361" y="9"/>
      <point x="439" y="9" type="curve" smooth="yes"/>
      <point x="553" y="9"/>
      <point x="600" y="203"/>
      <point x="608" y="267" type="curve" smooth="yes"/>
      <point x="610" y="281"/>
      <point x="611" y="301"/>
      <point x="611" y="333" type="curve" smooth="yes"/>
      <point x="611" y="352"/>
      <point x="629" y="358"/>
      <point x="629" y="372" type="curve" smooth="yes"/>
      <point x="629" y="405"/>
      <point x="601" y="486"/>
      <point x="557" y="486" type="curve" smooth="yes"/>
      <point x="534" y="486"/>
      <point x="516" y="462"/>
      <point x="516" y="443" type="curve" smooth="yes"/>
      <point x="516" y="388"/>
      <point x="523" y="343"/>
      <point x="523" y="297" type="curve" smooth="yes"/>
      <point x="523" y="220"/>
      <point x="492" y="106"/>
      <point x="447" y="106" type="curve" smooth="yes"/>
      <point x="408" y="106"/>
      <point x="395" y="175"/>
      <point x="381" y="230" type="curve" smooth="yes"/>
      <point x="366" y="291"/>
      <point x="351" y="352"/>
      <point x="307" y="352" type="curve" smooth="yes"/>
      <point x="264" y="352"/>
      <point x="211" y="244"/>
      <point x="191" y="193" type="curve" smooth="yes"/>
      <point x="186" y="179"/>
      <point x="175" y="153"/>
      <point x="161" y="123" type="curve"/>
      <point x="154" y="160"/>
      <point x="156" y="219"/>
      <point x="156" y="243" type="curve" smooth="yes"/>
      <point x="156" y="308"/>
      <point x="160" y="391"/>
      <point x="151" y="421" type="curve" smooth="yes"/>
      <point x="143" y="446"/>
      <point x="129" y="477"/>
    </contour>
  </outline>
</glyph>
<glyph name="x" format="1">
  <advance width="482"/>
  <unicode hex="0078"/>
  <outline>
    <contour>
      <point x="357" y="487" type="curve" smooth="yes"/>
      <point x="330" y="487"/>
      <point x="300" y="462"/>
      <point x="283" y="428" type="curve" smooth="yes"/>
      <point x="277" y="415"/>
      <point x="254" y="375"/>
      <point x="225" y="323" type="curve"/>
      <point x="183" y="372"/>
      <point x="152" y="414"/>
      <point x="146" y="423" type="curve" smooth="yes"/>
      <point x="131" y="442"/>
      <point x="104" y="477"/>
      <point x="77" y="477" type="curve" smooth="yes"/>
      <point x="48" y="477"/>
      <point x="30" y="445"/>
      <point x="30" y="423" type="curve" smooth="yes"/>
      <point x="30" y="403"/>
      <point x="38" y="378"/>
      <point x="58" y="369" type="curve" smooth="yes"/>
      <point x="95" y="350"/>
      <point x="136" y="308"/>
      <point x="183" y="250" type="curve"/>
      <point x="179" y="243"/>
      <point x="176" y="237"/>
      <point x="172" y="230" type="curve" smooth="yes"/>
      <point x="144" y="184"/>
      <point x="120" y="150"/>
      <point x="94" y="121" type="curve" smooth="yes"/>
      <point x="76" y="100"/>
      <point x="39" y="73"/>
      <point x="39" y="48" type="curve" smooth="yes"/>
      <point x="39" y="15"/>
      <point x="69" y="-9"/>
      <point x="94" y="-9" type="curve" smooth="yes"/>
      <point x="120" y="-9"/>
      <point x="148" y="25"/>
      <point x="156" y="49" type="curve" smooth="yes"/>
      <point x="160" y="62"/>
      <point x="210" y="149"/>
      <point x="233" y="187" type="curve"/>
      <point x="256" y="160"/>
      <point x="276" y="133"/>
      <point x="294" y="112" type="curve" smooth="yes"/>
      <point x="311" y="90"/>
      <point x="337" y="62"/>
      <point x="347" y="41" type="curve" smooth="yes"/>
      <point x="354" y="25"/>
      <point x="373" y="-11"/>
      <point x="409" y="-11" type="curve" smooth="yes"/>
      <point x="431" y="-11"/>
      <point x="457" y="9"/>
      <point x="457" y="25" type="curve" smooth="yes"/>
      <point x="457" y="34"/>
      <point x="451" y="70"/>
      <point x="429" y="85" type="curve" smooth="yes"/>
      <point x="398" y="104"/>
      <point x="357" y="166"/>
      <point x="331" y="198" type="curve" smooth="yes"/>
      <point x="315" y="218"/>
      <point x="299" y="236"/>
      <point x="279" y="261" type="curve"/>
      <point x="286" y="272"/>
      <point x="294" y="285"/>
      <point x="301" y="296" type="curve" smooth="yes"/>
      <point x="316" y="321"/>
      <point x="340" y="364"/>
      <point x="358" y="382" type="curve" smooth="yes"/>
      <point x="372" y="394"/>
      <point x="403" y="413"/>
      <point x="403" y="427" type="curve" smooth="yes"/>
      <point x="403" y="450"/>
      <point x="391" y="487"/>
    </contour>
  </outline>
</glyph>
